STARTFONT 2.1
COMMENT $Xorg: $
COMMENT ISO10646-1 extension by Markus Kuhn <mkuhn@acm.org>, 2001-03-20
FONT -B&H-LucidaTypewriter-Bold-R-Normal-Sans-19-190-75-75-M-110-ISO10646-1
SIZE 19 72 72
FONTBOUNDINGBOX 18 31 -4 -9
STARTPROPERTIES 22
FONTNAME_REGISTRY ""
FOUNDRY "B&H"
FAMILY_NAME "LucidaTypewriter"
WEIGHT_NAME "Bold"
SLANT "R"
SETWIDTH_NAME "Normal"
ADD_STYLE_NAME "Sans"
PIXEL_SIZE 19
POINT_SIZE 190
RESOLUTION_X 75
RESOLUTION_Y 75
SPACING "M"
AVERAGE_WIDTH 110
CHARSET_REGISTRY "ISO10646"
CHARSET_ENCODING "1"
COPYRIGHT "Copyright Bigelow & Holmes 1986, 1985."
FONT_ASCENT 18
FONT_DESCENT 4
DEFAULT_CHAR 0
FACE_NAME "Lucida Sans Typewriter Bold"
X_HEIGHT 10
CAP_HEIGHT 14
ENDPROPERTIES
CHARS 873
STARTCHAR char0
ENCODING 0
SWIDTH 602 0
DWIDTH 11 0
BBX 9 13 1 0
BITMAP
AA80
0000
8080
0000
8080
0000
8080
0000
8080
0000
8080
0000
AA80
ENDCHAR
STARTCHAR space
ENCODING 32
SWIDTH 602 0
DWIDTH 11 0
BBX 1 1 0 0
BITMAP
00
ENDCHAR
STARTCHAR exclam
ENCODING 33
SWIDTH 602 0
DWIDTH 11 0
BBX 3 14 4 0
BITMAP
E0
E0
E0
E0
E0
E0
C0
C0
C0
C0
00
00
E0
E0
ENDCHAR
STARTCHAR quotedbl
ENCODING 34
SWIDTH 602 0
DWIDTH 11 0
BBX 7 5 2 9
BITMAP
C6
C6
C6
C6
C6
ENDCHAR
STARTCHAR numbersign
ENCODING 35
SWIDTH 602 0
DWIDTH 11 0
BBX 10 14 1 0
BITMAP
0D80
0D80
1D80
1B80
7FC0
7FC0
3B00
3600
FF80
FF80
7600
6E00
6C00
6C00
ENDCHAR
STARTCHAR dollar
ENCODING 36
SWIDTH 602 0
DWIDTH 11 0
BBX 9 19 1 -3
BITMAP
0C00
0C00
3F00
7F00
E100
E000
F000
F800
7E00
1F00
0F80
0380
0380
8780
FF00
7F00
0C00
0C00
0C00
ENDCHAR
STARTCHAR percent
ENCODING 37
SWIDTH 602 0
DWIDTH 11 0
BBX 13 14 0 0
BITMAP
7830
FC60
CCE0
CCC0
CD80
FF80
7B00
06F0
0FF8
0D98
1998
3998
31F8
60F0
ENDCHAR
STARTCHAR ampersand
ENCODING 38
SWIDTH 602 0
DWIDTH 11 0
BBX 11 14 0 0
BITMAP
1E00
3F00
3F00
3F00
3F00
1E00
3CE0
7CE0
EEE0
EFC0
EFC0
F780
7F80
3FE0
ENDCHAR
STARTCHAR quotesingle
ENCODING 39
SWIDTH 602 0
DWIDTH 11 0
BBX 3 6 4 8
BITMAP
E0
E0
E0
60
60
60
ENDCHAR
STARTCHAR parenleft
ENCODING 40
SWIDTH 602 0
DWIDTH 11 0
BBX 8 18 3 -4
BITMAP
07
1F
3C
78
70
F0
E0
E0
E0
E0
E0
E0
70
70
38
1C
0F
03
ENDCHAR
STARTCHAR parenright
ENCODING 41
SWIDTH 602 0
DWIDTH 11 0
BBX 8 18 1 -4
BITMAP
C0
F0
38
1C
0E
0E
07
07
07
07
07
07
0E
0E
1C
3C
F0
C0
ENDCHAR
STARTCHAR asterisk
ENCODING 42
SWIDTH 602 0
DWIDTH 11 0
BBX 9 8 1 6
BITMAP
1C00
0800
C980
F780
0000
3600
7700
2200
ENDCHAR
STARTCHAR plus
ENCODING 43
SWIDTH 602 0
DWIDTH 11 0
BBX 10 10 1 0
BITMAP
0C00
0C00
0C00
0C00
FFC0
FFC0
0C00
0C00
0C00
0C00
ENDCHAR
STARTCHAR comma
ENCODING 44
SWIDTH 602 0
DWIDTH 11 0
BBX 3 8 4 -4
BITMAP
E0
E0
E0
E0
60
60
E0
C0
ENDCHAR
STARTCHAR hyphen
ENCODING 45
SWIDTH 602 0
DWIDTH 11 0
BBX 10 2 1 3
BITMAP
FFC0
FFC0
ENDCHAR
STARTCHAR period
ENCODING 46
SWIDTH 602 0
DWIDTH 11 0
BBX 3 3 4 0
BITMAP
E0
E0
E0
ENDCHAR
STARTCHAR slash
ENCODING 47
SWIDTH 602 0
DWIDTH 11 0
BBX 11 18 0 -4
BITMAP
00E0
00C0
01C0
0180
0180
0300
0300
0600
0600
0C00
0C00
1800
1800
3000
3000
6000
6000
C000
ENDCHAR
STARTCHAR zero
ENCODING 48
SWIDTH 602 0
DWIDTH 11 0
BBX 10 14 1 0
BITMAP
1E00
3F00
7380
6180
E1C0
E1C0
E1C0
E1C0
E1C0
E1C0
6180
7380
3F00
1E00
ENDCHAR
STARTCHAR one
ENCODING 49
SWIDTH 602 0
DWIDTH 11 0
BBX 9 14 2 0
BITMAP
FC00
FC00
1C00
1C00
1C00
1C00
1C00
1C00
1C00
1C00
1C00
1C00
FF80
FF80
ENDCHAR
STARTCHAR two
ENCODING 50
SWIDTH 602 0
DWIDTH 11 0
BBX 8 14 2 0
BITMAP
7C
FE
8F
07
07
07
0E
1C
38
30
60
E0
FF
FF
ENDCHAR
STARTCHAR three
ENCODING 51
SWIDTH 602 0
DWIDTH 11 0
BBX 8 14 2 0
BITMAP
7C
FE
8F
07
07
0E
78
7E
0F
07
07
8F
FE
FC
ENDCHAR
STARTCHAR four
ENCODING 52
SWIDTH 602 0
DWIDTH 11 0
BBX 10 14 1 0
BITMAP
0700
0F00
1F00
1F00
3700
7700
6700
FFC0
FFC0
FFC0
0700
0700
0700
0700
ENDCHAR
STARTCHAR five
ENCODING 53
SWIDTH 602 0
DWIDTH 11 0
BBX 7 14 3 0
BITMAP
FE
FE
C0
C0
C0
F0
FC
1C
0E
0E
0E
9E
FC
F8
ENDCHAR
STARTCHAR six
ENCODING 54
SWIDTH 602 0
DWIDTH 11 0
BBX 10 14 1 0
BITMAP
0F80
3F80
7880
7000
E000
EF00
FF80
F3C0
E1C0
E1C0
61C0
73C0
3F80
1F00
ENDCHAR
STARTCHAR seven
ENCODING 55
SWIDTH 602 0
DWIDTH 11 0
BBX 8 14 2 0
BITMAP
FF
FF
07
07
0E
0C
1C
18
38
30
30
70
70
70
ENDCHAR
STARTCHAR eight
ENCODING 56
SWIDTH 602 0
DWIDTH 11 0
BBX 9 14 1 0
BITMAP
1E00
3F00
7700
7700
7700
3E00
1E00
7F00
E780
E380
E380
F380
7F00
3E00
ENDCHAR
STARTCHAR nine
ENCODING 57
SWIDTH 602 0
DWIDTH 11 0
BBX 10 14 1 0
BITMAP
3E00
7F00
F380
E180
E1C0
E1C0
F3C0
7FC0
3DC0
01C0
0380
4780
7F00
7C00
ENDCHAR
STARTCHAR colon
ENCODING 58
SWIDTH 602 0
DWIDTH 11 0
BBX 3 10 4 0
BITMAP
E0
E0
E0
00
00
00
00
E0
E0
E0
ENDCHAR
STARTCHAR semicolon
ENCODING 59
SWIDTH 602 0
DWIDTH 11 0
BBX 3 14 4 -4
BITMAP
E0
E0
E0
00
00
00
00
E0
E0
E0
60
60
E0
C0
ENDCHAR
STARTCHAR less
ENCODING 60
SWIDTH 602 0
DWIDTH 11 0
BBX 10 10 1 0
BITMAP
0040
01C0
0780
1F00
FC00
7C00
1F00
07C0
01C0
0040
ENDCHAR
STARTCHAR equal
ENCODING 61
SWIDTH 602 0
DWIDTH 11 0
BBX 10 6 1 2
BITMAP
FFC0
FFC0
0000
0000
FFC0
FFC0
ENDCHAR
STARTCHAR greater
ENCODING 62
SWIDTH 602 0
DWIDTH 11 0
BBX 10 10 1 0
BITMAP
8000
E000
F800
3E00
0F80
0FC0
3E00
7800
E000
8000
ENDCHAR
STARTCHAR question
ENCODING 63
SWIDTH 602 0
DWIDTH 11 0
BBX 10 14 1 0
BITMAP
7F00
FF80
C3C0
C1C0
01C0
0380
0F00
1C00
3800
3800
0000
0000
3800
3800
ENDCHAR
STARTCHAR at
ENCODING 64
SWIDTH 602 0
DWIDTH 11 0
BBX 11 14 0 0
BITMAP
0F00
3F80
71C0
67C0
EFC0
DCC0
D8C0
D9C0
D9C0
DFE0
EEE0
7100
3F00
1E00
ENDCHAR
STARTCHAR A
ENCODING 65
SWIDTH 602 0
DWIDTH 11 0
BBX 11 14 0 0
BITMAP
0E00
0F00
0F00
1F00
1F00
1B80
3380
3380
33C0
7FC0
7FC0
61C0
C0E0
C0E0
ENDCHAR
STARTCHAR B
ENCODING 66
SWIDTH 602 0
DWIDTH 11 0
BBX 10 14 1 0
BITMAP
FF00
FF80
E380
E380
E380
E700
FE00
FF80
E3C0
E1C0
E1C0
E3C0
FF80
FF00
ENDCHAR
STARTCHAR C
ENCODING 67
SWIDTH 602 0
DWIDTH 11 0
BBX 11 14 0 0
BITMAP
0FE0
3FE0
7820
7000
E000
E000
E000
E000
E000
E000
7000
7820
3FE0
0FC0
ENDCHAR
STARTCHAR D
ENCODING 68
SWIDTH 602 0
DWIDTH 11 0
BBX 10 14 1 0
BITMAP
FE00
FF80
E380
E3C0
E1C0
E1C0
E1C0
E1C0
E1C0
E1C0
E380
E380
FF00
FE00
ENDCHAR
STARTCHAR E
ENCODING 69
SWIDTH 602 0
DWIDTH 11 0
BBX 9 14 2 0
BITMAP
FF80
FF80
E000
E000
E000
E000
FF00
FF00
E000
E000
E000
E000
FF80
FF80
ENDCHAR
STARTCHAR F
ENCODING 70
SWIDTH 602 0
DWIDTH 11 0
BBX 10 14 1 0
BITMAP
FFC0
FFC0
E000
E000
E000
E000
FF80
FF80
E000
E000
E000
E000
E000
E000
ENDCHAR
STARTCHAR G
ENCODING 71
SWIDTH 602 0
DWIDTH 11 0
BBX 11 14 0 0
BITMAP
0FE0
3FE0
7820
7000
E000
E000
E000
E0E0
E0E0
E0E0
70E0
78E0
3FE0
0FC0
ENDCHAR
STARTCHAR H
ENCODING 72
SWIDTH 602 0
DWIDTH 11 0
BBX 10 14 1 0
BITMAP
E1C0
E1C0
E1C0
E1C0
E1C0
E1C0
FFC0
FFC0
E1C0
E1C0
E1C0
E1C0
E1C0
E1C0
ENDCHAR
STARTCHAR I
ENCODING 73
SWIDTH 602 0
DWIDTH 11 0
BBX 9 14 1 0
BITMAP
FF80
FF80
1C00
1C00
1C00
1C00
1C00
1C00
1C00
1C00
1C00
1C00
FF80
FF80
ENDCHAR
STARTCHAR J
ENCODING 74
SWIDTH 602 0
DWIDTH 11 0
BBX 9 14 1 0
BITMAP
7F80
7F80
0380
0380
0380
0380
0380
0380
0380
0380
0380
8780
FF00
FE00
ENDCHAR
STARTCHAR K
ENCODING 75
SWIDTH 602 0
DWIDTH 11 0
BBX 10 14 1 0
BITMAP
E1C0
E380
E300
E600
EE00
EC00
FC00
FC00
FE00
EF00
E700
E780
E380
E3C0
ENDCHAR
STARTCHAR L
ENCODING 76
SWIDTH 602 0
DWIDTH 11 0
BBX 9 14 2 0
BITMAP
E000
E000
E000
E000
E000
E000
E000
E000
E000
E000
E000
E000
FF80
FF80
ENDCHAR
STARTCHAR M
ENCODING 77
SWIDTH 602 0
DWIDTH 11 0
BBX 10 14 1 0
BITMAP
E3C0
F3C0
F3C0
F3C0
F7C0
F7C0
F7C0
DFC0
DFC0
DDC0
DDC0
DDC0
DDC0
C1C0
ENDCHAR
STARTCHAR N
ENCODING 78
SWIDTH 602 0
DWIDTH 11 0
BBX 9 14 1 0
BITMAP
E180
F180
F180
F980
F980
FD80
DD80
DD80
CF80
CF80
C780
C780
C380
C380
ENDCHAR
STARTCHAR O
ENCODING 79
SWIDTH 602 0
DWIDTH 11 0
BBX 11 14 0 0
BITMAP
1F00
3F80
71C0
60C0
E0E0
E0E0
E0E0
E0E0
E0E0
E0E0
60C0
71C0
3F80
1F00
ENDCHAR
STARTCHAR P
ENCODING 80
SWIDTH 602 0
DWIDTH 11 0
BBX 10 14 1 0
BITMAP
FF00
FF80
E1C0
E1C0
E1C0
E1C0
E3C0
FF80
FF00
E000
E000
E000
E000
E000
ENDCHAR
STARTCHAR Q
ENCODING 81
SWIDTH 602 0
DWIDTH 11 0
BBX 12 17 0 -3
BITMAP
1F00
3F80
71C0
60C0
E0E0
E0E0
E0E0
E0E0
E0E0
E0E0
60E0
71C0
3F80
1F00
03F0
00E0
0040
ENDCHAR
STARTCHAR R
ENCODING 82
SWIDTH 602 0
DWIDTH 11 0
BBX 10 14 1 0
BITMAP
FE00
FF00
E380
E380
E380
E380
E700
FC00
FE00
EF00
E700
E780
E380
E1C0
ENDCHAR
STARTCHAR S
ENCODING 83
SWIDTH 602 0
DWIDTH 11 0
BBX 10 14 1 0
BITMAP
3F80
7F80
E080
E000
F000
FC00
3F00
1F80
07C0
01C0
01C0
83C0
FF80
FE00
ENDCHAR
STARTCHAR T
ENCODING 84
SWIDTH 602 0
DWIDTH 11 0
BBX 11 14 0 0
BITMAP
FFE0
FFE0
0E00
0E00
0E00
0E00
0E00
0E00
0E00
0E00
0E00
0E00
0E00
0E00
ENDCHAR
STARTCHAR U
ENCODING 85
SWIDTH 602 0
DWIDTH 11 0
BBX 9 14 1 0
BITMAP
E380
E380
E380
E380
E380
E380
E380
E380
E380
E380
E380
E380
7F00
3E00
ENDCHAR
STARTCHAR V
ENCODING 86
SWIDTH 602 0
DWIDTH 11 0
BBX 11 14 0 0
BITMAP
E060
E0E0
70C0
70C0
70C0
7980
3980
3980
3B00
1F00
1F00
1F00
1E00
0E00
ENDCHAR
STARTCHAR W
ENCODING 87
SWIDTH 602 0
DWIDTH 11 0
BBX 11 14 0 0
BITMAP
E060
EE60
EE60
EE60
6F40
7FC0
7FC0
7FC0
7FC0
7FC0
7BC0
7B80
3380
3380
ENDCHAR
STARTCHAR X
ENCODING 88
SWIDTH 602 0
DWIDTH 11 0
BBX 11 14 0 0
BITMAP
F0E0
70C0
7980
3B80
3F00
1F00
0E00
0F00
1F00
1F80
3380
73C0
61C0
E1E0
ENDCHAR
STARTCHAR Y
ENCODING 89
SWIDTH 602 0
DWIDTH 11 0
BBX 11 14 0 0
BITMAP
E060
70C0
70C0
3980
3980
1F00
1F00
0E00
0E00
0E00
0E00
0E00
0E00
0E00
ENDCHAR
STARTCHAR Z
ENCODING 90
SWIDTH 602 0
DWIDTH 11 0
BBX 10 14 1 0
BITMAP
FFC0
FFC0
03C0
0380
0700
0F00
0E00
1C00
3C00
3800
7800
F000
FFC0
FFC0
ENDCHAR
STARTCHAR bracketleft
ENCODING 91
SWIDTH 602 0
DWIDTH 11 0
BBX 8 18 3 -4
BITMAP
FF
FF
E0
E0
E0
E0
E0
E0
E0
E0
E0
E0
E0
E0
E0
E0
FF
FF
ENDCHAR
STARTCHAR backslash
ENCODING 92
SWIDTH 602 0
DWIDTH 11 0
BBX 11 18 0 -4
BITMAP
C000
6000
6000
3000
3000
1800
1800
0C00
0C00
0600
0600
0300
0300
0180
0180
00C0
00C0
0060
ENDCHAR
STARTCHAR bracketright
ENCODING 93
SWIDTH 602 0
DWIDTH 11 0
BBX 8 18 0 -4
BITMAP
FF
FF
07
07
07
07
07
07
07
07
07
07
07
07
07
07
FF
FF
ENDCHAR
STARTCHAR asciicircum
ENCODING 94
SWIDTH 602 0
DWIDTH 11 0
BBX 10 12 1 2
BITMAP
0400
0C00
0C00
0C00
1E00
1E00
3300
3300
3300
6180
6180
C0C0
ENDCHAR
STARTCHAR underscore
ENCODING 95
SWIDTH 602 0
DWIDTH 11 0
BBX 11 2 0 -3
BITMAP
FFE0
FFE0
ENDCHAR
STARTCHAR grave
ENCODING 96
SWIDTH 602 0
DWIDTH 11 0
BBX 5 3 3 11
BITMAP
E0
70
38
ENDCHAR
STARTCHAR a
ENCODING 97
SWIDTH 602 0
DWIDTH 11 0
BBX 10 10 1 0
BITMAP
3F00
7F80
4780
0380
3F80
FF80
E380
E380
FFC0
79C0
ENDCHAR
STARTCHAR b
ENCODING 98
SWIDTH 602 0
DWIDTH 11 0
BBX 10 14 1 0
BITMAP
E000
E000
E000
E000
EF00
EF80
FFC0
F3C0
E1C0
E1C0
E1C0
E380
FF80
FF00
ENDCHAR
STARTCHAR c
ENCODING 99
SWIDTH 602 0
DWIDTH 11 0
BBX 10 10 1 0
BITMAP
1FC0
7FC0
7040
E000
E000
E000
E000
7800
3FC0
1FC0
ENDCHAR
STARTCHAR d
ENCODING 100
SWIDTH 602 0
DWIDTH 11 0
BBX 10 14 1 0
BITMAP
01C0
01C0
01C0
01C0
3DC0
7FC0
71C0
E1C0
E1C0
E1C0
F3C0
FFC0
7FC0
3DC0
ENDCHAR
STARTCHAR e
ENCODING 101
SWIDTH 602 0
DWIDTH 11 0
BBX 10 10 1 0
BITMAP
1F00
7F80
7180
E1C0
FFC0
FFC0
E000
7040
7FC0
1F80
ENDCHAR
STARTCHAR f
ENCODING 102
SWIDTH 602 0
DWIDTH 11 0
BBX 10 14 2 0
BITMAP
0FC0
3FC0
3840
3800
FF80
FF80
3800
3800
3800
3800
3800
3800
3800
3800
ENDCHAR
STARTCHAR g
ENCODING 103
SWIDTH 602 0
DWIDTH 11 0
BBX 10 14 1 -4
BITMAP
3CC0
7FC0
F3C0
E1C0
E1C0
E1C0
F3C0
FFC0
7FC0
3DC0
01C0
4380
7F80
3E00
ENDCHAR
STARTCHAR h
ENCODING 104
SWIDTH 602 0
DWIDTH 11 0
BBX 9 14 1 0
BITMAP
E000
E000
E000
E000
EF00
FF80
FF80
F380
E380
E380
E380
E380
E380
E380
ENDCHAR
STARTCHAR i
ENCODING 105
SWIDTH 602 0
DWIDTH 11 0
BBX 7 14 2 0
BITMAP
0E
0E
0E
00
FE
FE
0E
0E
0E
0E
0E
0E
0E
0E
ENDCHAR
STARTCHAR j
ENCODING 106
SWIDTH 602 0
DWIDTH 11 0
BBX 8 18 1 -4
BITMAP
07
07
07
00
7F
7F
07
07
07
07
07
07
07
07
07
87
FE
FC
ENDCHAR
STARTCHAR k
ENCODING 107
SWIDTH 602 0
DWIDTH 11 0
BBX 10 14 1 0
BITMAP
E000
E000
E000
E000
E380
E700
E600
EC00
FC00
EE00
EF00
E700
E380
E3C0
ENDCHAR
STARTCHAR l
ENCODING 108
SWIDTH 602 0
DWIDTH 11 0
BBX 7 14 1 0
BITMAP
FE
FE
0E
0E
0E
0E
0E
0E
0E
0E
0E
0E
0E
0E
ENDCHAR
STARTCHAR m
ENCODING 109
SWIDTH 602 0
DWIDTH 11 0
BBX 11 10 0 0
BITMAP
ECE0
FFE0
FFE0
EEE0
EEE0
EEE0
EEE0
EEE0
EEE0
EEE0
ENDCHAR
STARTCHAR n
ENCODING 110
SWIDTH 602 0
DWIDTH 11 0
BBX 9 10 1 0
BITMAP
EF00
FF80
FF80
F380
E380
E380
E380
E380
E380
E380
ENDCHAR
STARTCHAR o
ENCODING 111
SWIDTH 602 0
DWIDTH 11 0
BBX 11 10 0 0
BITMAP
1F00
7FC0
71C0
E0E0
E0E0
E0E0
E0E0
71C0
7FC0
1F00
ENDCHAR
STARTCHAR p
ENCODING 112
SWIDTH 602 0
DWIDTH 11 0
BBX 10 14 1 -4
BITMAP
EF00
FF80
FFC0
F3C0
E1C0
E1C0
E1C0
E380
FF80
EF00
E000
E000
E000
E000
ENDCHAR
STARTCHAR q
ENCODING 113
SWIDTH 602 0
DWIDTH 11 0
BBX 10 14 1 -4
BITMAP
3FC0
7FC0
71C0
E1C0
E1C0
E1C0
F3C0
FFC0
7DC0
3DC0
01C0
01C0
01C0
01C0
ENDCHAR
STARTCHAR r
ENCODING 114
SWIDTH 602 0
DWIDTH 11 0
BBX 9 10 2 0
BITMAP
E780
FF80
FF80
F180
E000
E000
E000
E000
E000
E000
ENDCHAR
STARTCHAR s
ENCODING 115
SWIDTH 602 0
DWIDTH 11 0
BBX 9 10 1 0
BITMAP
3F00
7F00
E100
F800
FF00
3F80
0780
8380
FF00
7E00
ENDCHAR
STARTCHAR t
ENCODING 116
SWIDTH 602 0
DWIDTH 11 0
BBX 9 13 1 0
BITMAP
3800
3800
3800
FF80
FF80
3800
3800
3800
3800
3800
3800
1F80
0F80
ENDCHAR
STARTCHAR u
ENCODING 117
SWIDTH 602 0
DWIDTH 11 0
BBX 9 10 1 0
BITMAP
E380
E380
E380
E380
E380
E380
E780
FF80
FF80
7B80
ENDCHAR
STARTCHAR v
ENCODING 118
SWIDTH 602 0
DWIDTH 11 0
BBX 11 10 0 0
BITMAP
E060
F0C0
70C0
79C0
3980
3980
1F00
1F00
1F00
0E00
ENDCHAR
STARTCHAR w
ENCODING 119
SWIDTH 602 0
DWIDTH 11 0
BBX 11 10 0 0
BITMAP
E060
EE60
EE60
6F40
7FC0
7FC0
7BC0
7BC0
79C0
3180
ENDCHAR
STARTCHAR x
ENCODING 120
SWIDTH 602 0
DWIDTH 11 0
BBX 10 10 1 0
BITMAP
F1C0
7B80
3B00
3E00
1E00
1E00
3F00
3780
6380
E3C0
ENDCHAR
STARTCHAR y
ENCODING 121
SWIDTH 602 0
DWIDTH 11 0
BBX 11 14 0 -4
BITMAP
E060
70C0
70C0
3980
3980
3F80
1F00
1F00
0E00
0E00
0C00
0C00
7800
7000
ENDCHAR
STARTCHAR z
ENCODING 122
SWIDTH 602 0
DWIDTH 11 0
BBX 9 10 1 0
BITMAP
FF80
FF80
0780
0F00
1E00
3C00
7800
F000
FF80
FF80
ENDCHAR
STARTCHAR braceleft
ENCODING 123
SWIDTH 602 0
DWIDTH 11 0
BBX 8 18 2 -4
BITMAP
0F
1F
1C
1C
1C
1C
1C
1C
F0
F0
1C
1C
1C
1C
1C
1C
1F
0F
ENDCHAR
STARTCHAR bar
ENCODING 124
SWIDTH 602 0
DWIDTH 11 0
BBX 2 18 5 -4
BITMAP
C0
C0
C0
C0
C0
C0
C0
C0
C0
C0
C0
C0
C0
C0
C0
C0
C0
C0
ENDCHAR
STARTCHAR braceright
ENCODING 125
SWIDTH 602 0
DWIDTH 11 0
BBX 8 18 1 -4
BITMAP
F8
FC
1C
1C
3C
38
38
38
0F
0F
38
38
38
38
1C
1C
FC
F8
ENDCHAR
STARTCHAR asciitilde
ENCODING 126
SWIDTH 602 0
DWIDTH 11 0
BBX 10 4 1 3
BITMAP
70C0
7CC0
CF80
C380
ENDCHAR
STARTCHAR space
ENCODING 160
SWIDTH 602 0
DWIDTH 11 0
BBX 1 1 0 0
BITMAP
00
ENDCHAR
STARTCHAR exclamdown
ENCODING 161
SWIDTH 602 0
DWIDTH 11 0
BBX 3 14 4 -4
BITMAP
E0
E0
E0
00
C0
C0
C0
C0
E0
E0
E0
E0
E0
E0
ENDCHAR
STARTCHAR cent
ENCODING 162
SWIDTH 602 0
DWIDTH 11 0
BBX 8 14 2 0
BITMAP
0C
0C
3F
7F
70
E0
E0
E0
E0
70
7F
1F
0C
0C
ENDCHAR
STARTCHAR sterling
ENCODING 163
SWIDTH 602 0
DWIDTH 11 0
BBX 8 14 2 0
BITMAP
1F
3F
38
38
38
38
FC
FC
38
38
38
30
FF
FF
ENDCHAR
STARTCHAR currency
ENCODING 164
SWIDTH 602 0
DWIDTH 11 0
BBX 11 12 0 1
BITMAP
4040
FFE0
7FC0
7180
60C0
60C0
60C0
60C0
7180
7FC0
FFE0
4040
ENDCHAR
STARTCHAR yen
ENCODING 165
SWIDTH 602 0
DWIDTH 11 0
BBX 11 14 0 0
BITMAP
F060
70C0
7980
3F80
1F00
1E00
3F80
3F80
0E00
3F80
3F80
0E00
0E00
0E00
ENDCHAR
STARTCHAR brokenbar
ENCODING 166
SWIDTH 602 0
DWIDTH 11 0
BBX 2 18 5 -4
BITMAP
C0
C0
C0
C0
C0
C0
C0
00
00
00
00
C0
C0
C0
C0
C0
C0
C0
ENDCHAR
STARTCHAR section
ENCODING 167
SWIDTH 602 0
DWIDTH 11 0
BBX 8 18 2 -4
BITMAP
3E
7E
E2
E0
F0
78
7E
C7
C3
E3
FB
7E
3E
0F
07
87
FE
FC
ENDCHAR
STARTCHAR dieresis
ENCODING 168
SWIDTH 602 0
DWIDTH 11 0
BBX 5 2 3 12
BITMAP
D8
D8
ENDCHAR
STARTCHAR copyright
ENCODING 169
SWIDTH 602 0
DWIDTH 11 0
BBX 10 14 1 0
BITMAP
1E00
3F00
6180
DCC0
DEC0
F2C0
F0C0
F0C0
F2C0
DEC0
DCC0
6180
3F00
1E00
ENDCHAR
STARTCHAR ordfeminine
ENCODING 170
SWIDTH 602 0
DWIDTH 11 0
BBX 9 8 1 6
BITMAP
7E00
FF00
8300
7F00
FF00
C300
FF80
7B80
ENDCHAR
STARTCHAR guillemotleft
ENCODING 171
SWIDTH 602 0
DWIDTH 11 0
BBX 10 8 1 1
BITMAP
0880
19C0
3380
7700
F700
7380
39C0
1880
ENDCHAR
STARTCHAR logicalnot
ENCODING 172
SWIDTH 602 0
DWIDTH 11 0
BBX 10 4 1 2
BITMAP
FFC0
FFC0
00C0
00C0
ENDCHAR
STARTCHAR hyphen
ENCODING 173
SWIDTH 602 0
DWIDTH 11 0
BBX 8 2 2 5
BITMAP
FF
FF
ENDCHAR
STARTCHAR registered
ENCODING 174
SWIDTH 602 0
DWIDTH 11 0
BBX 10 10 1 4
BITMAP
1E00
7F00
6180
DFC0
DBC0
DEC0
DEC0
7B80
7F00
1E00
ENDCHAR
STARTCHAR macron
ENCODING 175
SWIDTH 602 0
DWIDTH 11 0
BBX 5 2 3 12
BITMAP
F8
F8
ENDCHAR
STARTCHAR degree
ENCODING 176
SWIDTH 602 0
DWIDTH 11 0
BBX 3 4 4 10
BITMAP
E0
A0
A0
40
ENDCHAR
STARTCHAR plusminus
ENCODING 177
SWIDTH 602 0
DWIDTH 11 0
BBX 10 10 1 0
BITMAP
0C00
0C00
FFC0
FFC0
0C00
0C00
0C00
0000
FFC0
FFC0
ENDCHAR
STARTCHAR twosuperior
ENCODING 178
SWIDTH 602 0
DWIDTH 11 0
BBX 4 7 -2 7
BITMAP
E0
10
10
20
60
C0
F0
ENDCHAR
STARTCHAR threesuperior
ENCODING 179
SWIDTH 602 0
DWIDTH 11 0
BBX 3 7 -2 7
BITMAP
E0
20
20
C0
20
20
C0
ENDCHAR
STARTCHAR acute
ENCODING 180
SWIDTH 602 0
DWIDTH 11 0
BBX 5 3 3 11
BITMAP
38
70
E0
ENDCHAR
STARTCHAR mu
ENCODING 181
SWIDTH 602 0
DWIDTH 11 0
BBX 9 14 1 -4
BITMAP
E380
E380
E380
E380
E380
E380
E780
FF80
FF80
FB80
E000
E000
E000
E000
ENDCHAR
STARTCHAR paragraph
ENCODING 182
SWIDTH 602 0
DWIDTH 11 0
BBX 7 18 2 -4
BITMAP
7E
FE
FE
FE
FE
FE
7E
1E
1E
1E
1E
1E
1E
1E
1E
1E
1E
1E
ENDCHAR
STARTCHAR periodcentered
ENCODING 183
SWIDTH 602 0
DWIDTH 11 0
BBX 3 3 4 3
BITMAP
E0
E0
E0
ENDCHAR
STARTCHAR cedilla
ENCODING 184
SWIDTH 602 0
DWIDTH 11 0
BBX 4 4 4 -4
BITMAP
60
F0
30
E0
ENDCHAR
STARTCHAR onesuperior
ENCODING 185
SWIDTH 602 0
DWIDTH 11 0
BBX 3 7 -2 7
BITMAP
C0
40
40
40
40
40
E0
ENDCHAR
STARTCHAR ordmasculine
ENCODING 186
SWIDTH 602 0
DWIDTH 11 0
BBX 8 8 2 6
BITMAP
3C
7E
E7
C3
C3
E7
7E
3C
ENDCHAR
STARTCHAR guillemotright
ENCODING 187
SWIDTH 602 0
DWIDTH 11 0
BBX 10 8 1 1
BITMAP
4600
E700
7380
3BC0
3B80
7300
E600
4400
ENDCHAR
STARTCHAR onequarter
ENCODING 188
SWIDTH 602 0
DWIDTH 11 0
BBX 11 14 2 0
BITMAP
C060
40C0
41C0
4180
4300
4700
E600
0CC0
1CC0
1940
3240
73E0
6040
C040
ENDCHAR
STARTCHAR onehalf
ENCODING 189
SWIDTH 602 0
DWIDTH 11 0
BBX 11 14 2 0
BITMAP
C060
40C0
41C0
4180
4300
4700
E600
0DC0
1C20
1820
3040
70C0
6180
C1E0
ENDCHAR
STARTCHAR threequarters
ENCODING 190
SWIDTH 602 0
DWIDTH 11 0
BBX 11 14 2 0
BITMAP
E060
20C0
21C0
C180
2300
2700
C600
0CC0
1CC0
1940
3240
73E0
6040
C040
ENDCHAR
STARTCHAR questiondown
ENCODING 191
SWIDTH 602 0
DWIDTH 11 0
BBX 10 14 0 -4
BITMAP
0700
0700
0700
0000
0700
0700
0E00
3C00
7000
E000
E0C0
F0C0
7FC0
3F80
ENDCHAR
STARTCHAR Agrave
ENCODING 192
SWIDTH 602 0
DWIDTH 11 0
BBX 11 18 0 0
BITMAP
1C00
0E00
0700
0000
0E00
0F00
0F00
1F00
1F00
1B80
3380
3380
33C0
7FC0
7FC0
61C0
C0E0
C0E0
ENDCHAR
STARTCHAR Aacute
ENCODING 193
SWIDTH 602 0
DWIDTH 11 0
BBX 11 18 0 0
BITMAP
0700
0E00
1C00
0000
0E00
0F00
0F00
1F00
1F00
1B80
3380
3380
33C0
7FC0
7FC0
61C0
C0E0
C0E0
ENDCHAR
STARTCHAR Acircumflex
ENCODING 194
SWIDTH 602 0
DWIDTH 11 0
BBX 11 18 0 0
BITMAP
0C00
1E00
3300
0000
0E00
0F00
0F00
1F00
1F00
1B80
3380
3380
33C0
7FC0
7FC0
61C0
C0E0
C0E0
ENDCHAR
STARTCHAR Atilde
ENCODING 195
SWIDTH 602 0
DWIDTH 11 0
BBX 11 18 0 0
BITMAP
0D80
1F80
1B00
0000
0E00
0F00
0F00
1F00
1F00
1B80
3380
3380
33C0
7FC0
7FC0
61C0
C0E0
C0E0
ENDCHAR
STARTCHAR Adieresis
ENCODING 196
SWIDTH 602 0
DWIDTH 11 0
BBX 11 17 0 0
BITMAP
1B00
1B00
0000
0E00
0F00
0F00
1F00
1F00
1B80
3380
3380
33C0
7FC0
7FC0
61C0
C0E0
C0E0
ENDCHAR
STARTCHAR Aring
ENCODING 197
SWIDTH 602 0
DWIDTH 11 0
BBX 11 18 0 0
BITMAP
0E00
0A00
0E00
0000
0E00
0F00
0F00
1F00
1F00
1B80
3380
3380
33C0
7FC0
7FC0
61C0
C0E0
C0E0
ENDCHAR
STARTCHAR AE
ENCODING 198
SWIDTH 602 0
DWIDTH 11 0
BBX 12 14 0 0
BITMAP
07F0
07F0
0780
0F80
0F80
1F80
1BF0
3BF0
3380
3F80
7F80
6380
E3F0
C3F0
ENDCHAR
STARTCHAR Ccedilla
ENCODING 199
SWIDTH 602 0
DWIDTH 11 0
BBX 11 18 0 -4
BITMAP
0FE0
3FE0
7820
7000
E000
E000
E000
E000
E000
E000
7000
7820
3FE0
0FC0
0400
0F00
0300
0E00
ENDCHAR
STARTCHAR Egrave
ENCODING 200
SWIDTH 602 0
DWIDTH 11 0
BBX 9 18 2 0
BITMAP
3800
1C00
0E00
0000
FF80
FF80
E000
E000
E000
E000
FF00
FF00
E000
E000
E000
E000
FF80
FF80
ENDCHAR
STARTCHAR Eacute
ENCODING 201
SWIDTH 602 0
DWIDTH 11 0
BBX 9 18 2 0
BITMAP
0E00
1C00
3800
0000
FF80
FF80
E000
E000
E000
E000
FF00
FF00
E000
E000
E000
E000
FF80
FF80
ENDCHAR
STARTCHAR Ecircumflex
ENCODING 202
SWIDTH 602 0
DWIDTH 11 0
BBX 9 18 2 0
BITMAP
0C00
1E00
3300
0000
FF80
FF80
E000
E000
E000
E000
FF00
FF00
E000
E000
E000
E000
FF80
FF80
ENDCHAR
STARTCHAR Edieresis
ENCODING 203
SWIDTH 602 0
DWIDTH 11 0
BBX 9 17 2 0
BITMAP
3600
3600
0000
FF80
FF80
E000
E000
E000
E000
FF00
FF00
E000
E000
E000
E000
FF80
FF80
ENDCHAR
STARTCHAR Igrave
ENCODING 204
SWIDTH 602 0
DWIDTH 11 0
BBX 9 18 1 0
BITMAP
3800
1C00
0E00
0000
FF80
FF80
1C00
1C00
1C00
1C00
1C00
1C00
1C00
1C00
1C00
1C00
FF80
FF80
ENDCHAR
STARTCHAR Iacute
ENCODING 205
SWIDTH 602 0
DWIDTH 11 0
BBX 9 18 1 0
BITMAP
0E00
1C00
3800
0000
FF80
FF80
1C00
1C00
1C00
1C00
1C00
1C00
1C00
1C00
1C00
1C00
FF80
FF80
ENDCHAR
STARTCHAR Icircumflex
ENCODING 206
SWIDTH 602 0
DWIDTH 11 0
BBX 9 18 1 0
BITMAP
1800
3C00
6600
0000
FF80
FF80
1C00
1C00
1C00
1C00
1C00
1C00
1C00
1C00
1C00
1C00
FF80
FF80
ENDCHAR
STARTCHAR Idieresis
ENCODING 207
SWIDTH 602 0
DWIDTH 11 0
BBX 9 17 1 0
BITMAP
3600
3600
0000
FF80
FF80
1C00
1C00
1C00
1C00
1C00
1C00
1C00
1C00
1C00
1C00
FF80
FF80
ENDCHAR
STARTCHAR Eth
ENCODING 208
SWIDTH 602 0
DWIDTH 11 0
BBX 11 14 0 0
BITMAP
7F00
7FC0
71C0
71E0
70E0
70E0
FCE0
FCE0
70E0
70E0
71C0
71C0
7F80
7F00
ENDCHAR
STARTCHAR Ntilde
ENCODING 209
SWIDTH 602 0
DWIDTH 11 0
BBX 9 18 1 0
BITMAP
1B00
3F00
3600
0000
E180
F180
F180
F980
F980
FD80
DD80
DD80
CF80
CF80
C780
C780
C380
C380
ENDCHAR
STARTCHAR Ograve
ENCODING 210
SWIDTH 602 0
DWIDTH 11 0
BBX 11 18 0 0
BITMAP
1C00
0E00
0700
0000
1F00
3F80
71C0
60C0
E0E0
E0E0
E0E0
E0E0
E0E0
E0E0
60C0
71C0
3F80
1F00
ENDCHAR
STARTCHAR Oacute
ENCODING 211
SWIDTH 602 0
DWIDTH 11 0
BBX 11 18 0 0
BITMAP
0700
0E00
1C00
0000
1F00
3F80
71C0
60C0
E0E0
E0E0
E0E0
E0E0
E0E0
E0E0
60C0
71C0
3F80
1F00
ENDCHAR
STARTCHAR Ocircumflex
ENCODING 212
SWIDTH 602 0
DWIDTH 11 0
BBX 11 18 0 0
BITMAP
0C00
1E00
3300
0000
1F00
3F80
71C0
60C0
E0E0
E0E0
E0E0
E0E0
E0E0
E0E0
60C0
71C0
3F80
1F00
ENDCHAR
STARTCHAR Otilde
ENCODING 213
SWIDTH 602 0
DWIDTH 11 0
BBX 11 18 0 0
BITMAP
1B00
3F00
3600
0000
1F00
3F80
71C0
60C0
E0E0
E0E0
E0E0
E0E0
E0E0
E0E0
60C0
71C0
3F80
1F00
ENDCHAR
STARTCHAR Odieresis
ENCODING 214
SWIDTH 602 0
DWIDTH 11 0
BBX 11 17 0 0
BITMAP
1B00
1B00
0000
1F00
3F80
71C0
60C0
E0E0
E0E0
E0E0
E0E0
E0E0
E0E0
60C0
71C0
3F80
1F00
ENDCHAR
STARTCHAR multiply
ENCODING 215
SWIDTH 602 0
DWIDTH 11 0
BBX 10 10 1 0
BITMAP
4080
E1C0
7380
3F00
1E00
1E00
3F00
7380
E1C0
4080
ENDCHAR
STARTCHAR Oslash
ENCODING 216
SWIDTH 602 0
DWIDTH 11 0
BBX 11 14 0 0
BITMAP
1F60
3FC0
71C0
61C0
E3E0
E7E0
E6E0
ECE0
FCE0
F8E0
70C0
71C0
7F80
DF00
ENDCHAR
STARTCHAR Ugrave
ENCODING 217
SWIDTH 602 0
DWIDTH 11 0
BBX 9 18 1 0
BITMAP
3800
1C00
0E00
0000
E380
E380
E380
E380
E380
E380
E380
E380
E380
E380
E380
E380
7F00
3E00
ENDCHAR
STARTCHAR Uacute
ENCODING 218
SWIDTH 602 0
DWIDTH 11 0
BBX 9 18 1 0
BITMAP
0E00
1C00
3800
0000
E380
E380
E380
E380
E380
E380
E380
E380
E380
E380
E380
E380
7F00
3E00
ENDCHAR
STARTCHAR Ucircumflex
ENCODING 219
SWIDTH 602 0
DWIDTH 11 0
BBX 9 18 1 0
BITMAP
1800
3C00
6600
0000
E380
E380
E380
E380
E380
E380
E380
E380
E380
E380
E380
E380
7F00
3E00
ENDCHAR
STARTCHAR Udieresis
ENCODING 220
SWIDTH 602 0
DWIDTH 11 0
BBX 9 17 1 0
BITMAP
3600
3600
0000
E380
E380
E380
E380
E380
E380
E380
E380
E380
E380
E380
E380
7F00
3E00
ENDCHAR
STARTCHAR Yacute
ENCODING 221
SWIDTH 602 0
DWIDTH 11 0
BBX 11 18 0 0
BITMAP
0700
0E00
1C00
0000
E060
70C0
70C0
3980
3980
1F00
1F00
0E00
0E00
0E00
0E00
0E00
0E00
0E00
ENDCHAR
STARTCHAR Thorn
ENCODING 222
SWIDTH 602 0
DWIDTH 11 0
BBX 10 14 1 0
BITMAP
E000
E000
FF00
FF80
E1C0
E1C0
E1C0
E1C0
E3C0
FF80
FF00
E000
E000
E000
ENDCHAR
STARTCHAR germandbls
ENCODING 223
SWIDTH 602 0
DWIDTH 11 0
BBX 10 14 1 0
BITMAP
3E00
7F00
E700
E700
E600
EE00
EE00
EF00
E780
E3C0
E1C0
E9C0
EFC0
EF80
ENDCHAR
STARTCHAR agrave
ENCODING 224
SWIDTH 602 0
DWIDTH 11 0
BBX 10 14 1 0
BITMAP
3800
1C00
0E00
0000
3F00
7F80
4780
0380
3F80
FF80
E380
E380
FFC0
79C0
ENDCHAR
STARTCHAR aacute
ENCODING 225
SWIDTH 602 0
DWIDTH 11 0
BBX 10 14 1 0
BITMAP
0E00
1C00
3800
0000
3F00
7F80
4780
0380
3F80
FF80
E380
E380
FFC0
79C0
ENDCHAR
STARTCHAR acircumflex
ENCODING 226
SWIDTH 602 0
DWIDTH 11 0
BBX 10 14 1 0
BITMAP
0C00
1E00
3300
0000
3F00
7F80
4780
0380
3F80
FF80
E380
E380
FFC0
79C0
ENDCHAR
STARTCHAR atilde
ENCODING 227
SWIDTH 602 0
DWIDTH 11 0
BBX 10 14 1 0
BITMAP
1B00
3F00
3600
0000
3F00
7F80
4780
0380
3F80
FF80
E380
E380
FFC0
79C0
ENDCHAR
STARTCHAR adieresis
ENCODING 228
SWIDTH 602 0
DWIDTH 11 0
BBX 10 13 1 0
BITMAP
3600
3600
0000
3F00
7F80
4780
0380
3F80
FF80
E380
E380
FFC0
79C0
ENDCHAR
STARTCHAR aring
ENCODING 229
SWIDTH 602 0
DWIDTH 11 0
BBX 10 14 1 0
BITMAP
1C00
1400
1C00
0000
3F00
7F80
4780
0380
3F80
FF80
E380
E380
FFC0
79C0
ENDCHAR
STARTCHAR ae
ENCODING 230
SWIDTH 602 0
DWIDTH 11 0
BBX 10 10 1 0
BITMAP
7B80
7F80
4DC0
0DC0
7FC0
FFC0
EC00
EC40
FFC0
7380
ENDCHAR
STARTCHAR ccedilla
ENCODING 231
SWIDTH 602 0
DWIDTH 11 0
BBX 10 14 1 -4
BITMAP
1FC0
7FC0
7040
E000
E000
E000
E000
7800
3FC0
1FC0
0800
1E00
0600
1C00
ENDCHAR
STARTCHAR egrave
ENCODING 232
SWIDTH 602 0
DWIDTH 11 0
BBX 10 14 1 0
BITMAP
3800
1C00
0E00
0000
1F00
7F80
7180
E1C0
FFC0
FFC0
E000
7040
7FC0
1F80
ENDCHAR
STARTCHAR eacute
ENCODING 233
SWIDTH 602 0
DWIDTH 11 0
BBX 10 14 1 0
BITMAP
0E00
1C00
3800
0000
1F00
7F80
7180
E1C0
FFC0
FFC0
E000
7040
7FC0
1F80
ENDCHAR
STARTCHAR ecircumflex
ENCODING 234
SWIDTH 602 0
DWIDTH 11 0
BBX 10 14 1 0
BITMAP
0C00
1E00
3300
0000
1F00
7F80
7180
E1C0
FFC0
FFC0
E000
7040
7FC0
1F80
ENDCHAR
STARTCHAR edieresis
ENCODING 235
SWIDTH 602 0
DWIDTH 11 0
BBX 10 13 1 0
BITMAP
3600
3600
0000
1F00
7F80
7180
E1C0
FFC0
FFC0
E000
7040
7FC0
1F80
ENDCHAR
STARTCHAR igrave
ENCODING 236
SWIDTH 602 0
DWIDTH 11 0
BBX 7 14 2 0
BITMAP
38
1C
0E
00
FE
FE
0E
0E
0E
0E
0E
0E
0E
0E
ENDCHAR
STARTCHAR iacute
ENCODING 237
SWIDTH 602 0
DWIDTH 11 0
BBX 7 14 2 0
BITMAP
0E
1C
38
00
FE
FE
0E
0E
0E
0E
0E
0E
0E
0E
ENDCHAR
STARTCHAR icircumflex
ENCODING 238
SWIDTH 602 0
DWIDTH 11 0
BBX 7 14 2 0
BITMAP
18
3C
66
00
FE
FE
0E
0E
0E
0E
0E
0E
0E
0E
ENDCHAR
STARTCHAR idieresis
ENCODING 239
SWIDTH 602 0
DWIDTH 11 0
BBX 7 13 2 0
BITMAP
36
36
00
FE
FE
0E
0E
0E
0E
0E
0E
0E
0E
ENDCHAR
STARTCHAR eth
ENCODING 240
SWIDTH 602 0
DWIDTH 11 0
BBX 10 14 1 0
BITMAP
FF00
9E00
1E00
1700
3F80
7F80
73C0
E1C0
E1C0
E1C0
E1C0
7380
7F80
1E00
ENDCHAR
STARTCHAR ntilde
ENCODING 241
SWIDTH 602 0
DWIDTH 11 0
BBX 9 14 1 0
BITMAP
3600
7E00
6C00
0000
EF00
FF80
FF80
F380
E380
E380
E380
E380
E380
E380
ENDCHAR
STARTCHAR ograve
ENCODING 242
SWIDTH 602 0
DWIDTH 11 0
BBX 11 14 0 0
BITMAP
1C00
0E00
0700
0000
1F00
7FC0
71C0
E0E0
E0E0
E0E0
E0E0
71C0
7FC0
1F00
ENDCHAR
STARTCHAR oacute
ENCODING 243
SWIDTH 602 0
DWIDTH 11 0
BBX 11 14 0 0
BITMAP
0700
0E00
1C00
0000
1F00
7FC0
71C0
E0E0
E0E0
E0E0
E0E0
71C0
7FC0
1F00
ENDCHAR
STARTCHAR ocircumflex
ENCODING 244
SWIDTH 602 0
DWIDTH 11 0
BBX 11 14 0 0
BITMAP
0C00
1E00
3300
0000
1F00
7FC0
71C0
E0E0
E0E0
E0E0
E0E0
71C0
7FC0
1F00
ENDCHAR
STARTCHAR otilde
ENCODING 245
SWIDTH 602 0
DWIDTH 11 0
BBX 11 14 0 0
BITMAP
0D80
1F80
1B00
0000
1F00
7FC0
71C0
E0E0
E0E0
E0E0
E0E0
71C0
7FC0
1F00
ENDCHAR
STARTCHAR odieresis
ENCODING 246
SWIDTH 602 0
DWIDTH 11 0
BBX 11 13 0 0
BITMAP
1B00
1B00
0000
1F00
7FC0
71C0
E0E0
E0E0
E0E0
E0E0
71C0
7FC0
1F00
ENDCHAR
STARTCHAR divide
ENCODING 247
SWIDTH 602 0
DWIDTH 11 0
BBX 11 10 0 0
BITMAP
0E00
0E00
0E00
0000
FFE0
FFE0
0000
0E00
0E00
0E00
ENDCHAR
STARTCHAR oslash
ENCODING 248
SWIDTH 602 0
DWIDTH 11 0
BBX 11 10 0 0
BITMAP
1FE0
7FC0
71C0
E3E0
E6E0
ECE0
F8E0
71C0
7FC0
FF00
ENDCHAR
STARTCHAR ugrave
ENCODING 249
SWIDTH 602 0
DWIDTH 11 0
BBX 9 14 1 0
BITMAP
3800
1C00
0E00
0000
E380
E380
E380
E380
E380
E380
E780
FF80
FF80
7B80
ENDCHAR
STARTCHAR uacute
ENCODING 250
SWIDTH 602 0
DWIDTH 11 0
BBX 9 14 1 0
BITMAP
0E00
1C00
3800
0000
E380
E380
E380
E380
E380
E380
E780
FF80
FF80
7B80
ENDCHAR
STARTCHAR ucircumflex
ENCODING 251
SWIDTH 602 0
DWIDTH 11 0
BBX 9 14 1 0
BITMAP
0C00
1E00
3300
0000
E380
E380
E380
E380
E380
E380
E780
FF80
FF80
7B80
ENDCHAR
STARTCHAR udieresis
ENCODING 252
SWIDTH 602 0
DWIDTH 11 0
BBX 9 13 1 0
BITMAP
3600
3600
0000
E380
E380
E380
E380
E380
E380
E780
FF80
FF80
7B80
ENDCHAR
STARTCHAR yacute
ENCODING 253
SWIDTH 602 0
DWIDTH 11 0
BBX 11 18 0 -4
BITMAP
0700
0E00
1C00
0000
E060
70C0
70C0
3980
3980
3F80
1F00
1F00
0E00
0E00
0C00
0C00
7800
7000
ENDCHAR
STARTCHAR thorn
ENCODING 254
SWIDTH 602 0
DWIDTH 11 0
BBX 10 18 1 -4
BITMAP
E000
E000
E000
E000
EF00
FF80
FFC0
F3C0
E1C0
E1C0
E1C0
E380
FF80
EF00
E000
E000
E000
E000
ENDCHAR
STARTCHAR ydieresis
ENCODING 255
SWIDTH 602 0
DWIDTH 11 0
BBX 11 17 0 -4
BITMAP
1B00
1B00
0000
E060
70C0
70C0
3980
3980
3F80
1F00
1F00
0E00
0E00
0C00
0C00
7800
7000
ENDCHAR
STARTCHAR Amacron
ENCODING 256
SWIDTH 602 0
DWIDTH 11 0
BBX 11 17 0 0
BITMAP
1F00
1F00
0000
0E00
0F00
0F00
1F00
1F00
1B80
3380
3380
33C0
7FC0
7FC0
61C0
C0E0
C0E0
ENDCHAR
STARTCHAR amacron
ENCODING 257
SWIDTH 602 0
DWIDTH 11 0
BBX 10 13 1 0
BITMAP
1F00
1F00
0000
3F00
7F80
4780
0380
3F80
FF80
E380
E380
FFC0
79C0
ENDCHAR
STARTCHAR Abreve
ENCODING 258
SWIDTH 602 0
DWIDTH 11 0
BBX 11 18 0 0
BITMAP
1980
1F80
0F00
0000
0E00
0F00
0F00
1F00
1F00
1B80
3380
3380
33C0
7FC0
7FC0
61C0
C0E0
C0E0
ENDCHAR
STARTCHAR abreve
ENCODING 259
SWIDTH 602 0
DWIDTH 11 0
BBX 10 14 1 0
BITMAP
3300
3F00
1E00
0000
3F00
7F80
4780
0380
3F80
FF80
E380
E380
FFC0
79C0
ENDCHAR
STARTCHAR Aogonek
ENCODING 260
SWIDTH 602 0
DWIDTH 11 0
BBX 11 18 0 -4
BITMAP
0E00
0F00
0F00
1F00
1F00
1B80
3380
3380
33C0
7FC0
7FC0
61C0
C0E0
C0E0
0600
0C00
0C00
0E00
ENDCHAR
STARTCHAR aogonek
ENCODING 261
SWIDTH 602 0
DWIDTH 11 0
BBX 10 14 1 -4
BITMAP
3F00
7F80
4780
0380
3F80
FF80
E380
E380
FFC0
79C0
0C00
1800
1800
1C00
ENDCHAR
STARTCHAR Cacute
ENCODING 262
SWIDTH 602 0
DWIDTH 11 0
BBX 11 18 0 0
BITMAP
0380
0700
0E00
0000
0FE0
3FE0
7820
7000
E000
E000
E000
E000
E000
E000
7000
7820
3FE0
0FC0
ENDCHAR
STARTCHAR cacute
ENCODING 263
SWIDTH 602 0
DWIDTH 11 0
BBX 10 14 1 0
BITMAP
0380
0700
0E00
0000
1FC0
7FC0
7040
E000
E000
E000
E000
7800
3FC0
1FC0
ENDCHAR
STARTCHAR Ccircumflex
ENCODING 264
SWIDTH 602 0
DWIDTH 11 0
BBX 11 18 0 0
BITMAP
0600
0F00
1980
0000
0FE0
3FE0
7820
7000
E000
E000
E000
E000
E000
E000
7000
7820
3FE0
0FC0
ENDCHAR
STARTCHAR ccircumflex
ENCODING 265
SWIDTH 602 0
DWIDTH 11 0
BBX 10 14 1 0
BITMAP
0C00
1E00
3300
0000
1FC0
7FC0
7040
E000
E000
E000
E000
7800
3FC0
1FC0
ENDCHAR
STARTCHAR Cdotaccent
ENCODING 266
SWIDTH 602 0
DWIDTH 11 0
BBX 11 17 0 0
BITMAP
0600
0600
0000
0FE0
3FE0
7820
7000
E000
E000
E000
E000
E000
E000
7000
7820
3FE0
0FC0
ENDCHAR
STARTCHAR cdotaccent
ENCODING 267
SWIDTH 602 0
DWIDTH 11 0
BBX 10 13 1 0
BITMAP
0C00
0C00
0000
1FC0
7FC0
7040
E000
E000
E000
E000
7800
3FC0
1FC0
ENDCHAR
STARTCHAR Ccaron
ENCODING 268
SWIDTH 602 0
DWIDTH 11 0
BBX 11 18 0 0
BITMAP
1980
0F00
0600
0000
0FE0
3FE0
7820
7000
E000
E000
E000
E000
E000
E000
7000
7820
3FE0
0FC0
ENDCHAR
STARTCHAR ccaron
ENCODING 269
SWIDTH 602 0
DWIDTH 11 0
BBX 10 14 1 0
BITMAP
3300
1E00
0C00
0000
1FC0
7FC0
7040
E000
E000
E000
E000
7800
3FC0
1FC0
ENDCHAR
STARTCHAR Dcaron
ENCODING 270
SWIDTH 602 0
DWIDTH 11 0
BBX 10 18 1 0
BITMAP
3300
1E00
0C00
0000
FE00
FF80
E380
E3C0
E1C0
E1C0
E1C0
E1C0
E1C0
E1C0
E380
E380
FF00
FE00
ENDCHAR
STARTCHAR dcaron
ENCODING 271
SWIDTH 602 0
DWIDTH 11 0
BBX 10 18 1 0
BITMAP
0CC0
0780
0300
0000
01C0
01C0
01C0
01C0
3DC0
7FC0
71C0
E1C0
E1C0
E1C0
F3C0
FFC0
7FC0
3DC0
ENDCHAR
STARTCHAR Dcroat
ENCODING 272
SWIDTH 602 0
DWIDTH 11 0
BBX 11 14 0 0
BITMAP
7F00
7FC0
71C0
71E0
70E0
70E0
FCE0
FCE0
70E0
70E0
71C0
71C0
7F80
7F00
ENDCHAR
STARTCHAR dcroat
ENCODING 273
SWIDTH 602 0
DWIDTH 11 0
BBX 12 14 1 0
BITMAP
01C0
01C0
1FF0
1FF0
3DC0
7FC0
71C0
E1C0
E1C0
E1C0
F3C0
FFC0
7FC0
3DC0
ENDCHAR
STARTCHAR Emacron
ENCODING 274
SWIDTH 602 0
DWIDTH 11 0
BBX 9 17 2 0
BITMAP
3E00
3E00
0000
FF80
FF80
E000
E000
E000
E000
FF00
FF00
E000
E000
E000
E000
FF80
FF80
ENDCHAR
STARTCHAR emacron
ENCODING 275
SWIDTH 602 0
DWIDTH 11 0
BBX 10 13 1 0
BITMAP
1F00
1F00
0000
1F00
7F80
7180
E1C0
FFC0
FFC0
E000
7040
7FC0
1F80
ENDCHAR
STARTCHAR Ebreve
ENCODING 276
SWIDTH 602 0
DWIDTH 11 0
BBX 9 18 2 0
BITMAP
6600
7E00
3C00
0000
FF80
FF80
E000
E000
E000
E000
FF00
FF00
E000
E000
E000
E000
FF80
FF80
ENDCHAR
STARTCHAR ebreve
ENCODING 277
SWIDTH 602 0
DWIDTH 11 0
BBX 10 14 1 0
BITMAP
3300
3F00
1E00
0000
1F00
7F80
7180
E1C0
FFC0
FFC0
E000
7040
7FC0
1F80
ENDCHAR
STARTCHAR Edotaccent
ENCODING 278
SWIDTH 602 0
DWIDTH 11 0
BBX 9 17 2 0
BITMAP
1800
1800
0000
FF80
FF80
E000
E000
E000
E000
FF00
FF00
E000
E000
E000
E000
FF80
FF80
ENDCHAR
STARTCHAR edotaccent
ENCODING 279
SWIDTH 602 0
DWIDTH 11 0
BBX 10 13 1 0
BITMAP
0C00
0C00
0000
1F00
7F80
7180
E1C0
FFC0
FFC0
E000
7040
7FC0
1F80
ENDCHAR
STARTCHAR Eogonek
ENCODING 280
SWIDTH 602 0
DWIDTH 11 0
BBX 9 18 2 -4
BITMAP
FF80
FF80
E000
E000
E000
E000
FF00
FF00
E000
E000
E000
E000
FF80
FF80
0C00
1800
1800
1C00
ENDCHAR
STARTCHAR eogonek
ENCODING 281
SWIDTH 602 0
DWIDTH 11 0
BBX 10 14 1 -4
BITMAP
1F00
7F80
7180
E1C0
FFC0
FFC0
E000
7040
7FC0
1F80
0600
0C00
0C00
0E00
ENDCHAR
STARTCHAR Ecaron
ENCODING 282
SWIDTH 602 0
DWIDTH 11 0
BBX 9 18 2 0
BITMAP
6600
3C00
1800
0000
FF80
FF80
E000
E000
E000
E000
FF00
FF00
E000
E000
E000
E000
FF80
FF80
ENDCHAR
STARTCHAR ecaron
ENCODING 283
SWIDTH 602 0
DWIDTH 11 0
BBX 10 14 1 0
BITMAP
3300
1E00
0C00
0000
1F00
7F80
7180
E1C0
FFC0
FFC0
E000
7040
7FC0
1F80
ENDCHAR
STARTCHAR Gcircumflex
ENCODING 284
SWIDTH 602 0
DWIDTH 11 0
BBX 11 18 0 0
BITMAP
0600
0F00
1980
0000
0FE0
3FE0
7820
7000
E000
E000
E000
E0E0
E0E0
E0E0
70E0
78E0
3FE0
0FC0
ENDCHAR
STARTCHAR gcircumflex
ENCODING 285
SWIDTH 602 0
DWIDTH 11 0
BBX 10 18 1 -4
BITMAP
0C00
1E00
3300
0000
3CC0
7FC0
F3C0
E1C0
E1C0
E1C0
F3C0
FFC0
7FC0
3DC0
01C0
4380
7F80
3E00
ENDCHAR
STARTCHAR Gbreve
ENCODING 286
SWIDTH 602 0
DWIDTH 11 0
BBX 11 18 0 0
BITMAP
1980
1F80
0F00
0000
0FE0
3FE0
7820
7000
E000
E000
E000
E0E0
E0E0
E0E0
70E0
78E0
3FE0
0FC0
ENDCHAR
STARTCHAR gbreve
ENCODING 287
SWIDTH 602 0
DWIDTH 11 0
BBX 10 18 1 -4
BITMAP
3300
3F00
1E00
0000
3CC0
7FC0
F3C0
E1C0
E1C0
E1C0
F3C0
FFC0
7FC0
3DC0
01C0
4380
7F80
3E00
ENDCHAR
STARTCHAR Gdotaccent
ENCODING 288
SWIDTH 602 0
DWIDTH 11 0
BBX 11 17 0 0
BITMAP
0600
0600
0000
0FE0
3FE0
7820
7000
E000
E000
E000
E0E0
E0E0
E0E0
70E0
78E0
3FE0
0FC0
ENDCHAR
STARTCHAR gdotaccent
ENCODING 289
SWIDTH 602 0
DWIDTH 11 0
BBX 10 17 1 -4
BITMAP
0C00
0C00
0000
3CC0
7FC0
F3C0
E1C0
E1C0
E1C0
F3C0
FFC0
7FC0
3DC0
01C0
4380
7F80
3E00
ENDCHAR
STARTCHAR Gcommaaccent
ENCODING 290
SWIDTH 602 0
DWIDTH 11 0
BBX 11 23 0 -9
BITMAP
0FE0
3FE0
7820
7000
E000
E000
E000
E0E0
E0E0
E0E0
70E0
78E0
3FE0
0FC0
0000
0700
0700
0700
0700
0300
0300
0700
0600
ENDCHAR
STARTCHAR gcommaaccent
ENCODING 291
SWIDTH 602 0
DWIDTH 11 0
BBX 10 21 1 -4
BITMAP
0600
0E00
0C00
0E00
0E00
0E00
0000
3CC0
7FC0
F3C0
E1C0
E1C0
E1C0
F3C0
FFC0
7FC0
3DC0
01C0
4380
7F80
3E00
ENDCHAR
STARTCHAR Hcircumflex
ENCODING 292
SWIDTH 602 0
DWIDTH 11 0
BBX 10 18 1 0
BITMAP
0C00
1E00
3300
0000
E1C0
E1C0
E1C0
E1C0
E1C0
E1C0
FFC0
FFC0
E1C0
E1C0
E1C0
E1C0
E1C0
E1C0
ENDCHAR
STARTCHAR hcircumflex
ENCODING 293
SWIDTH 602 0
DWIDTH 11 0
BBX 9 18 1 0
BITMAP
3000
7800
CC00
0000
E000
E000
E000
E000
EF00
FF80
FF80
F380
E380
E380
E380
E380
E380
E380
ENDCHAR
STARTCHAR Hbar
ENCODING 294
SWIDTH 602 0
DWIDTH 11 0
BBX 10 14 1 0
BITMAP
E1C0
E1C0
E1C0
FFC0
FFC0
E1C0
FFC0
FFC0
E1C0
E1C0
E1C0
E1C0
E1C0
E1C0
ENDCHAR
STARTCHAR hbar
ENCODING 295
SWIDTH 602 0
DWIDTH 11 0
BBX 11 14 -1 0
BITMAP
3800
3800
FF80
FF80
3BC0
3FE0
3FE0
3CE0
38E0
38E0
38E0
38E0
38E0
38E0
ENDCHAR
STARTCHAR Itilde
ENCODING 296
SWIDTH 602 0
DWIDTH 11 0
BBX 9 18 1 0
BITMAP
1B00
3F00
3600
0000
FF80
FF80
1C00
1C00
1C00
1C00
1C00
1C00
1C00
1C00
1C00
1C00
FF80
FF80
ENDCHAR
STARTCHAR itilde
ENCODING 297
SWIDTH 602 0
DWIDTH 11 0
BBX 7 14 2 0
BITMAP
36
7E
6C
00
FE
FE
0E
0E
0E
0E
0E
0E
0E
0E
ENDCHAR
STARTCHAR Imacron
ENCODING 298
SWIDTH 602 0
DWIDTH 11 0
BBX 9 17 1 0
BITMAP
3E00
3E00
0000
FF80
FF80
1C00
1C00
1C00
1C00
1C00
1C00
1C00
1C00
1C00
1C00
FF80
FF80
ENDCHAR
STARTCHAR imacron
ENCODING 299
SWIDTH 602 0
DWIDTH 11 0
BBX 7 13 2 0
BITMAP
7C
7C
00
FE
FE
0E
0E
0E
0E
0E
0E
0E
0E
ENDCHAR
STARTCHAR Ibreve
ENCODING 300
SWIDTH 602 0
DWIDTH 11 0
BBX 9 18 1 0
BITMAP
3300
3F00
1E00
0000
FF80
FF80
1C00
1C00
1C00
1C00
1C00
1C00
1C00
1C00
1C00
1C00
FF80
FF80
ENDCHAR
STARTCHAR ibreve
ENCODING 301
SWIDTH 602 0
DWIDTH 11 0
BBX 7 14 2 0
BITMAP
66
7E
3C
00
FE
FE
0E
0E
0E
0E
0E
0E
0E
0E
ENDCHAR
STARTCHAR Iogonek
ENCODING 302
SWIDTH 602 0
DWIDTH 11 0
BBX 9 18 1 -4
BITMAP
FF80
FF80
1C00
1C00
1C00
1C00
1C00
1C00
1C00
1C00
1C00
1C00
FF80
FF80
0C00
1800
1800
1C00
ENDCHAR
STARTCHAR iogonek
ENCODING 303
SWIDTH 602 0
DWIDTH 11 0
BBX 7 18 2 -4
BITMAP
0E
0E
0E
00
FE
FE
0E
0E
0E
0E
0E
0E
0E
0E
0C
18
18
1C
ENDCHAR
STARTCHAR Idotaccent
ENCODING 304
SWIDTH 602 0
DWIDTH 11 0
BBX 9 17 1 0
BITMAP
0C00
0C00
0000
FF80
FF80
1C00
1C00
1C00
1C00
1C00
1C00
1C00
1C00
1C00
1C00
FF80
FF80
ENDCHAR
STARTCHAR dotlessi
ENCODING 305
SWIDTH 602 0
DWIDTH 11 0
BBX 7 10 2 0
BITMAP
FE
FE
0E
0E
0E
0E
0E
0E
0E
0E
ENDCHAR
STARTCHAR IJ
ENCODING 306
SWIDTH 602 0
DWIDTH 11 0
BBX 13 14 1 0
BITMAP
FFF8
FFF8
1C38
1C38
1C38
1C38
1C38
1C38
1C38
1C38
1C38
1C78
FFF0
FFE0
ENDCHAR
STARTCHAR ij
ENCODING 307
SWIDTH 602 0
DWIDTH 11 0
BBX 10 18 2 -4
BITMAP
0FC0
0FC0
0FC0
0000
FFC0
FFC0
0FC0
0FC0
0FC0
0FC0
0FC0
0FC0
0FC0
0FC0
01C0
21C0
3F80
3F00
ENDCHAR
STARTCHAR Jcircumflex
ENCODING 308
SWIDTH 602 0
DWIDTH 11 0
BBX 9 18 1 0
BITMAP
0C00
1E00
3300
0000
7F80
7F80
0380
0380
0380
0380
0380
0380
0380
0380
0380
8780
FF00
FE00
ENDCHAR
STARTCHAR jcircumflex
ENCODING 309
SWIDTH 602 0
DWIDTH 11 0
BBX 8 18 1 -4
BITMAP
0C
1E
33
00
7F
7F
07
07
07
07
07
07
07
07
07
87
FE
FC
ENDCHAR
STARTCHAR Kcommaaccent
ENCODING 310
SWIDTH 602 0
DWIDTH 11 0
BBX 10 23 1 -9
BITMAP
E1C0
E380
E300
E600
EE00
EC00
FC00
FC00
FE00
EF00
E700
E780
E380
E3C0
0000
1C00
1C00
1C00
1C00
0C00
0C00
1C00
1800
ENDCHAR
STARTCHAR kcommaaccent
ENCODING 311
SWIDTH 602 0
DWIDTH 11 0
BBX 10 23 1 -9
BITMAP
E000
E000
E000
E000
E380
E700
E600
EC00
FC00
EE00
EF00
E700
E380
E3C0
0000
1C00
1C00
1C00
1C00
0C00
0C00
1C00
1800
ENDCHAR
STARTCHAR kgreenlandic
ENCODING 312
SWIDTH 602 0
DWIDTH 11 0
BBX 10 10 1 0
BITMAP
E380
E700
E600
EC00
FC00
EE00
EF00
E700
E380
E3C0
ENDCHAR
STARTCHAR Lacute
ENCODING 313
SWIDTH 602 0
DWIDTH 11 0
BBX 9 18 2 0
BITMAP
1C00
3800
7000
0000
E000
E000
E000
E000
E000
E000
E000
E000
E000
E000
E000
E000
FF80
FF80
ENDCHAR
STARTCHAR lacute
ENCODING 314
SWIDTH 602 0
DWIDTH 11 0
BBX 7 18 1 0
BITMAP
0E
1C
38
00
FE
FE
0E
0E
0E
0E
0E
0E
0E
0E
0E
0E
0E
0E
ENDCHAR
STARTCHAR Lcommaaccent
ENCODING 315
SWIDTH 602 0
DWIDTH 11 0
BBX 9 23 2 -9
BITMAP
E000
E000
E000
E000
E000
E000
E000
E000
E000
E000
E000
E000
FF80
FF80
0000
1C00
1C00
1C00
1C00
0C00
0C00
1C00
1800
ENDCHAR
STARTCHAR lcommaaccent
ENCODING 316
SWIDTH 602 0
DWIDTH 11 0
BBX 7 23 1 -9
BITMAP
FE
FE
0E
0E
0E
0E
0E
0E
0E
0E
0E
0E
0E
0E
00
1C
1C
1C
1C
0C
0C
1C
18
ENDCHAR
STARTCHAR Lcaron
ENCODING 317
SWIDTH 602 0
DWIDTH 11 0
BBX 9 18 2 0
BITMAP
CC00
7800
3000
0000
E000
E000
E000
E000
E000
E000
E000
E000
E000
E000
E000
E000
FF80
FF80
ENDCHAR
STARTCHAR lcaron
ENCODING 318
SWIDTH 602 0
DWIDTH 11 0
BBX 7 18 1 0
BITMAP
66
3C
18
00
FE
FE
0E
0E
0E
0E
0E
0E
0E
0E
0E
0E
0E
0E
ENDCHAR
STARTCHAR Ldot
ENCODING 319
SWIDTH 602 0
DWIDTH 11 0
BBX 9 14 2 0
BITMAP
E000
E000
E000
E000
E000
E000
E000
E000
EE00
EE00
EE00
E000
FF80
FF80
ENDCHAR
STARTCHAR ldot
ENCODING 320
SWIDTH 602 0
DWIDTH 11 0
BBX 9 14 1 0
BITMAP
FE00
FE00
0E00
0E00
0E00
0E00
0E00
0E00
0F80
0F80
0F80
0E00
0E00
0E00
ENDCHAR
STARTCHAR Lslash
ENCODING 321
SWIDTH 602 0
DWIDTH 11 0
BBX 11 14 0 0
BITMAP
3800
3800
3800
3800
3A00
3E00
3C00
F800
F800
B800
3800
3800
3FE0
3FE0
ENDCHAR
STARTCHAR lslash
ENCODING 322
SWIDTH 602 0
DWIDTH 11 0
BBX 9 14 1 0
BITMAP
FE00
FE00
0E00
0E00
0E80
0F80
0F00
3E00
7E00
4E00
0E00
0E00
0E00
0E00
ENDCHAR
STARTCHAR Nacute
ENCODING 323
SWIDTH 602 0
DWIDTH 11 0
BBX 9 18 1 0
BITMAP
0E00
1C00
3800
0000
E180
F180
F180
F980
F980
FD80
DD80
DD80
CF80
CF80
C780
C780
C380
C380
ENDCHAR
STARTCHAR nacute
ENCODING 324
SWIDTH 602 0
DWIDTH 11 0
BBX 9 14 1 0
BITMAP
0700
0E00
1C00
0000
EF00
FF80
FF80
F380
E380
E380
E380
E380
E380
E380
ENDCHAR
STARTCHAR Ncommaaccent
ENCODING 325
SWIDTH 602 0
DWIDTH 11 0
BBX 9 23 1 -9
BITMAP
E180
F180
F180
F980
F980
FD80
DD80
DD80
CF80
CF80
C780
C780
C380
C380
0000
1C00
1C00
1C00
1C00
0C00
0C00
1C00
1800
ENDCHAR
STARTCHAR ncommaaccent
ENCODING 326
SWIDTH 602 0
DWIDTH 11 0
BBX 9 19 1 -9
BITMAP
EF00
FF80
FF80
F380
E380
E380
E380
E380
E380
E380
0000
1C00
1C00
1C00
1C00
0C00
0C00
1C00
1800
ENDCHAR
STARTCHAR Ncaron
ENCODING 327
SWIDTH 602 0
DWIDTH 11 0
BBX 9 18 1 0
BITMAP
6600
3C00
1800
0000
E180
F180
F180
F980
F980
FD80
DD80
DD80
CF80
CF80
C780
C780
C380
C380
ENDCHAR
STARTCHAR ncaron
ENCODING 328
SWIDTH 602 0
DWIDTH 11 0
BBX 9 14 1 0
BITMAP
6600
3C00
1800
0000
EF00
FF80
FF80
F380
E380
E380
E380
E380
E380
E380
ENDCHAR
STARTCHAR napostrophe
ENCODING 329
SWIDTH 602 0
DWIDTH 11 0
BBX 11 14 -1 0
BITMAP
E000
E000
E000
6000
FBC0
FFE0
3FE0
3CE0
38E0
38E0
38E0
38E0
38E0
38E0
ENDCHAR
STARTCHAR Eng
ENCODING 330
SWIDTH 602 0
DWIDTH 11 0
BBX 9 18 1 -4
BITMAP
E180
F180
F180
F980
F980
FD80
DD80
DD80
CF80
CF80
C780
C780
C380
C380
0380
4380
7F00
7E00
ENDCHAR
STARTCHAR eng
ENCODING 331
SWIDTH 602 0
DWIDTH 11 0
BBX 9 14 1 -4
BITMAP
EF00
FF80
FF80
F380
E380
E380
E380
E380
E380
E380
0380
4380
7F00
7E00
ENDCHAR
STARTCHAR Omacron
ENCODING 332
SWIDTH 602 0
DWIDTH 11 0
BBX 11 17 0 0
BITMAP
1F00
1F00
0000
1F00
3F80
71C0
60C0
E0E0
E0E0
E0E0
E0E0
E0E0
E0E0
60C0
71C0
3F80
1F00
ENDCHAR
STARTCHAR omacron
ENCODING 333
SWIDTH 602 0
DWIDTH 11 0
BBX 11 13 0 0
BITMAP
1F00
1F00
0000
1F00
7FC0
71C0
E0E0
E0E0
E0E0
E0E0
71C0
7FC0
1F00
ENDCHAR
STARTCHAR Obreve
ENCODING 334
SWIDTH 602 0
DWIDTH 11 0
BBX 11 18 0 0
BITMAP
1980
1F80
0F00
0000
1F00
3F80
71C0
60C0
E0E0
E0E0
E0E0
E0E0
E0E0
E0E0
60C0
71C0
3F80
1F00
ENDCHAR
STARTCHAR obreve
ENCODING 335
SWIDTH 602 0
DWIDTH 11 0
BBX 11 14 0 0
BITMAP
1980
1F80
0F00
0000
1F00
7FC0
71C0
E0E0
E0E0
E0E0
E0E0
71C0
7FC0
1F00
ENDCHAR
STARTCHAR Ohungarumlaut
ENCODING 336
SWIDTH 602 0
DWIDTH 11 0
BBX 11 18 0 0
BITMAP
0D80
0B00
1200
0000
1F00
3F80
71C0
60C0
E0E0
E0E0
E0E0
E0E0
E0E0
E0E0
60C0
71C0
3F80
1F00
ENDCHAR
STARTCHAR ohungarumlaut
ENCODING 337
SWIDTH 602 0
DWIDTH 11 0
BBX 11 14 0 0
BITMAP
0D80
0B00
1200
0000
1F00
7FC0
71C0
E0E0
E0E0
E0E0
E0E0
71C0
7FC0
1F00
ENDCHAR
STARTCHAR OE
ENCODING 338
SWIDTH 602 0
DWIDTH 11 0
BBX 11 14 0 0
BITMAP
3FE0
7FE0
7300
E300
E300
E300
E3E0
E3E0
E300
E300
E300
7300
7FE0
1FE0
ENDCHAR
STARTCHAR oe
ENCODING 339
SWIDTH 602 0
DWIDTH 11 0
BBX 11 10 0 0
BITMAP
39C0
7FE0
EE60
EE60
EFE0
EFE0
EE00
EE20
7FE0
39C0
ENDCHAR
STARTCHAR Racute
ENCODING 340
SWIDTH 602 0
DWIDTH 11 0
BBX 10 18 1 0
BITMAP
0700
0E00
1C00
0000
FE00
FF00
E380
E380
E380
E380
E700
FC00
FE00
EF00
E700
E780
E380
E1C0
ENDCHAR
STARTCHAR racute
ENCODING 341
SWIDTH 602 0
DWIDTH 11 0
BBX 9 14 2 0
BITMAP
0700
0E00
1C00
0000
E780
FF80
FF80
F180
E000
E000
E000
E000
E000
E000
ENDCHAR
STARTCHAR Rcommaaccent
ENCODING 342
SWIDTH 602 0
DWIDTH 11 0
BBX 10 23 1 -9
BITMAP
FE00
FF00
E380
E380
E380
E380
E700
FC00
FE00
EF00
E700
E780
E380
E1C0
0000
1C00
1C00
1C00
1C00
0C00
0C00
1C00
1800
ENDCHAR
STARTCHAR rcommaaccent
ENCODING 343
SWIDTH 602 0
DWIDTH 11 0
BBX 9 19 2 -9
BITMAP
E780
FF80
FF80
F180
E000
E000
E000
E000
E000
E000
0000
7000
7000
7000
7000
3000
3000
7000
6000
ENDCHAR
STARTCHAR Rcaron
ENCODING 344
SWIDTH 602 0
DWIDTH 11 0
BBX 10 18 1 0
BITMAP
6600
3C00
1800
0000
FE00
FF00
E380
E380
E380
E380
E700
FC00
FE00
EF00
E700
E780
E380
E1C0
ENDCHAR
STARTCHAR rcaron
ENCODING 345
SWIDTH 602 0
DWIDTH 11 0
BBX 9 14 2 0
BITMAP
3300
1E00
0C00
0000
E780
FF80
FF80
F180
E000
E000
E000
E000
E000
E000
ENDCHAR
STARTCHAR Sacute
ENCODING 346
SWIDTH 602 0
DWIDTH 11 0
BBX 10 18 1 0
BITMAP
0700
0E00
1C00
0000
3F80
7F80
E080
E000
F000
FC00
3F00
1F80
07C0
01C0
01C0
83C0
FF80
FE00
ENDCHAR
STARTCHAR sacute
ENCODING 347
SWIDTH 602 0
DWIDTH 11 0
BBX 9 14 1 0
BITMAP
0700
0E00
1C00
0000
3F00
7F00
E100
F800
FF00
3F80
0780
8380
FF00
7E00
ENDCHAR
STARTCHAR Scircumflex
ENCODING 348
SWIDTH 602 0
DWIDTH 11 0
BBX 10 18 1 0
BITMAP
0C00
1E00
3300
0000
3F80
7F80
E080
E000
F000
FC00
3F00
1F80
07C0
01C0
01C0
83C0
FF80
FE00
ENDCHAR
STARTCHAR scircumflex
ENCODING 349
SWIDTH 602 0
DWIDTH 11 0
BBX 9 14 1 0
BITMAP
1800
3C00
6600
0000
3F00
7F00
E100
F800
FF00
3F80
0780
8380
FF00
7E00
ENDCHAR
STARTCHAR Scedilla
ENCODING 350
SWIDTH 602 0
DWIDTH 11 0
BBX 10 18 1 -4
BITMAP
3F80
7F80
E080
E000
F000
FC00
3F00
1F80
07C0
01C0
01C0
83C0
FF80
FE00
0C00
1E00
0600
1C00
ENDCHAR
STARTCHAR scedilla
ENCODING 351
SWIDTH 602 0
DWIDTH 11 0
BBX 9 14 1 -4
BITMAP
3F00
7F00
E100
F800
FF00
3F80
0780
8380
FF00
7E00
1800
3C00
0C00
3800
ENDCHAR
STARTCHAR Scaron
ENCODING 352
SWIDTH 602 0
DWIDTH 11 0
BBX 10 18 1 0
BITMAP
3300
1E00
0C00
0000
3F80
7F80
E080
E000
F000
FC00
3F00
1F80
07C0
01C0
01C0
83C0
FF80
FE00
ENDCHAR
STARTCHAR scaron
ENCODING 353
SWIDTH 602 0
DWIDTH 11 0
BBX 9 14 1 0
BITMAP
6600
3C00
1800
0000
3F00
7F00
E100
F800
FF00
3F80
0780
8380
FF00
7E00
ENDCHAR
STARTCHAR Tcommaaccent
ENCODING 354
SWIDTH 602 0
DWIDTH 11 0
BBX 11 18 0 -4
BITMAP
FFE0
FFE0
0E00
0E00
0E00
0E00
0E00
0E00
0E00
0E00
0E00
0E00
0E00
0E00
0600
0F00
0300
0E00
ENDCHAR
STARTCHAR tcommaaccent
ENCODING 355
SWIDTH 602 0
DWIDTH 11 0
BBX 9 17 1 -4
BITMAP
3800
3800
3800
FF80
FF80
3800
3800
3800
3800
3800
3800
1F80
0F80
0C00
1E00
0600
1C00
ENDCHAR
STARTCHAR Tcaron
ENCODING 356
SWIDTH 602 0
DWIDTH 11 0
BBX 11 18 0 0
BITMAP
1980
0F00
0600
0000
FFE0
FFE0
0E00
0E00
0E00
0E00
0E00
0E00
0E00
0E00
0E00
0E00
0E00
0E00
ENDCHAR
STARTCHAR tcaron
ENCODING 357
SWIDTH 602 0
DWIDTH 11 0
BBX 9 17 1 0
BITMAP
6600
3C00
1800
0000
3800
3800
3800
FF80
FF80
3800
3800
3800
3800
3800
3800
1F80
0F80
ENDCHAR
STARTCHAR Tbar
ENCODING 358
SWIDTH 602 0
DWIDTH 11 0
BBX 11 14 0 0
BITMAP
FFE0
FFE0
0E00
0E00
0E00
0E00
7FC0
7FC0
0E00
0E00
0E00
0E00
0E00
0E00
ENDCHAR
STARTCHAR tbar
ENCODING 359
SWIDTH 602 0
DWIDTH 11 0
BBX 9 13 1 0
BITMAP
3800
3800
3800
FF80
FF80
3800
3800
FF80
FF80
3800
3800
1F80
0F80
ENDCHAR
STARTCHAR Utilde
ENCODING 360
SWIDTH 602 0
DWIDTH 11 0
BBX 9 18 1 0
BITMAP
1B00
3F00
3600
0000
E380
E380
E380
E380
E380
E380
E380
E380
E380
E380
E380
E380
7F00
3E00
ENDCHAR
STARTCHAR utilde
ENCODING 361
SWIDTH 602 0
DWIDTH 11 0
BBX 9 14 1 0
BITMAP
1B00
3F00
3600
0000
E380
E380
E380
E380
E380
E380
E780
FF80
FF80
7B80
ENDCHAR
STARTCHAR Umacron
ENCODING 362
SWIDTH 602 0
DWIDTH 11 0
BBX 9 17 1 0
BITMAP
3E00
3E00
0000
E380
E380
E380
E380
E380
E380
E380
E380
E380
E380
E380
E380
7F00
3E00
ENDCHAR
STARTCHAR umacron
ENCODING 363
SWIDTH 602 0
DWIDTH 11 0
BBX 9 13 1 0
BITMAP
3E00
3E00
0000
E380
E380
E380
E380
E380
E380
E780
FF80
FF80
7B80
ENDCHAR
STARTCHAR Ubreve
ENCODING 364
SWIDTH 602 0
DWIDTH 11 0
BBX 9 18 1 0
BITMAP
3300
3F00
1E00
0000
E380
E380
E380
E380
E380
E380
E380
E380
E380
E380
E380
E380
7F00
3E00
ENDCHAR
STARTCHAR ubreve
ENCODING 365
SWIDTH 602 0
DWIDTH 11 0
BBX 9 14 1 0
BITMAP
3300
3F00
1E00
0000
E380
E380
E380
E380
E380
E380
E780
FF80
FF80
7B80
ENDCHAR
STARTCHAR Uring
ENCODING 366
SWIDTH 602 0
DWIDTH 11 0
BBX 9 18 1 0
BITMAP
1C00
1400
1C00
0000
E380
E380
E380
E380
E380
E380
E380
E380
E380
E380
E380
E380
7F00
3E00
ENDCHAR
STARTCHAR uring
ENCODING 367
SWIDTH 602 0
DWIDTH 11 0
BBX 9 14 1 0
BITMAP
1C00
1400
1C00
0000
E380
E380
E380
E380
E380
E380
E780
FF80
FF80
7B80
ENDCHAR
STARTCHAR Uhungarumlaut
ENCODING 368
SWIDTH 602 0
DWIDTH 11 0
BBX 9 18 1 0
BITMAP
1B00
1600
2400
0000
E380
E380
E380
E380
E380
E380
E380
E380
E380
E380
E380
E380
7F00
3E00
ENDCHAR
STARTCHAR uhungarumlaut
ENCODING 369
SWIDTH 602 0
DWIDTH 11 0
BBX 9 14 1 0
BITMAP
1B00
1600
2400
0000
E380
E380
E380
E380
E380
E380
E780
FF80
FF80
7B80
ENDCHAR
STARTCHAR Uogonek
ENCODING 370
SWIDTH 602 0
DWIDTH 11 0
BBX 9 18 1 -4
BITMAP
E380
E380
E380
E380
E380
E380
E380
E380
E380
E380
E380
E380
7F00
3E00
0C00
1800
1800
1C00
ENDCHAR
STARTCHAR uogonek
ENCODING 371
SWIDTH 602 0
DWIDTH 11 0
BBX 9 14 1 -4
BITMAP
E380
E380
E380
E380
E380
E380
E780
FF80
FF80
7B80
0C00
1800
1800
1C00
ENDCHAR
STARTCHAR Wcircumflex
ENCODING 372
SWIDTH 602 0
DWIDTH 11 0
BBX 11 18 0 0
BITMAP
0C00
1E00
3300
0000
E060
EE60
EE60
EE60
6F40
7FC0
7FC0
7FC0
7FC0
7FC0
7BC0
7B80
3380
3380
ENDCHAR
STARTCHAR wcircumflex
ENCODING 373
SWIDTH 602 0
DWIDTH 11 0
BBX 11 14 0 0
BITMAP
0C00
1E00
3300
0000
E060
EE60
EE60
6F40
7FC0
7FC0
7BC0
7BC0
79C0
3180
ENDCHAR
STARTCHAR Ycircumflex
ENCODING 374
SWIDTH 602 0
DWIDTH 11 0
BBX 11 18 0 0
BITMAP
0C00
1E00
3300
0000
E060
70C0
70C0
3980
3980
1F00
1F00
0E00
0E00
0E00
0E00
0E00
0E00
0E00
ENDCHAR
STARTCHAR ycircumflex
ENCODING 375
SWIDTH 602 0
DWIDTH 11 0
BBX 11 18 0 -4
BITMAP
0C00
1E00
3300
0000
E060
70C0
70C0
3980
3980
3F80
1F00
1F00
0E00
0E00
0C00
0C00
7800
7000
ENDCHAR
STARTCHAR Ydieresis
ENCODING 376
SWIDTH 602 0
DWIDTH 11 0
BBX 11 17 0 0
BITMAP
1B00
1B00
0000
E060
70C0
70C0
3980
3980
1F00
1F00
0E00
0E00
0E00
0E00
0E00
0E00
0E00
ENDCHAR
STARTCHAR Zacute
ENCODING 377
SWIDTH 602 0
DWIDTH 11 0
BBX 10 18 1 0
BITMAP
0380
0700
0E00
0000
FFC0
FFC0
03C0
0380
0700
0F00
0E00
1C00
3C00
3800
7800
F000
FFC0
FFC0
ENDCHAR
STARTCHAR zacute
ENCODING 378
SWIDTH 602 0
DWIDTH 11 0
BBX 9 14 1 0
BITMAP
0700
0E00
1C00
0000
FF80
FF80
0780
0F00
1E00
3C00
7800
F000
FF80
FF80
ENDCHAR
STARTCHAR Zdotaccent
ENCODING 379
SWIDTH 602 0
DWIDTH 11 0
BBX 10 17 1 0
BITMAP
0C00
0C00
0000
FFC0
FFC0
03C0
0380
0700
0F00
0E00
1C00
3C00
3800
7800
F000
FFC0
FFC0
ENDCHAR
STARTCHAR zdotaccent
ENCODING 380
SWIDTH 602 0
DWIDTH 11 0
BBX 9 13 1 0
BITMAP
0C00
0C00
0000
FF80
FF80
0780
0F00
1E00
3C00
7800
F000
FF80
FF80
ENDCHAR
STARTCHAR Zcaron
ENCODING 381
SWIDTH 602 0
DWIDTH 11 0
BBX 10 18 1 0
BITMAP
3300
1E00
0C00
0000
FFC0
FFC0
03C0
0380
0700
0F00
0E00
1C00
3C00
3800
7800
F000
FFC0
FFC0
ENDCHAR
STARTCHAR zcaron
ENCODING 382
SWIDTH 602 0
DWIDTH 11 0
BBX 9 14 1 0
BITMAP
6600
3C00
1800
0000
FF80
FF80
0780
0F00
1E00
3C00
7800
F000
FF80
FF80
ENDCHAR
STARTCHAR uni0186
ENCODING 390
SWIDTH 602 0
DWIDTH 11 0
BBX 11 14 0 0
BITMAP
7E00
FF80
83C0
01C0
00E0
00E0
00E0
00E0
00E0
00E0
01C0
83C0
FF80
FE00
ENDCHAR
STARTCHAR uni0189
ENCODING 393
SWIDTH 602 0
DWIDTH 11 0
BBX 11 14 0 0
BITMAP
7F00
7FC0
71C0
71E0
70E0
70E0
FCE0
FCE0
70E0
70E0
71C0
71C0
7F80
7F00
ENDCHAR
STARTCHAR uni018E
ENCODING 398
SWIDTH 602 0
DWIDTH 11 0
BBX 9 14 2 0
BITMAP
FF80
FF80
0380
0380
0380
0380
7F80
7F80
0380
0380
0380
0380
FF80
FF80
ENDCHAR
STARTCHAR florin
ENCODING 402
SWIDTH 602 0
DWIDTH 11 0
BBX 8 18 2 -4
BITMAP
07
0F
1C
18
38
38
7C
7C
78
70
70
70
70
70
E0
E0
E0
E0
ENDCHAR
STARTCHAR uni0197
ENCODING 407
SWIDTH 602 0
DWIDTH 11 0
BBX 9 14 1 0
BITMAP
FF80
FF80
1C00
1C00
1C00
1C00
FF80
FF80
1C00
1C00
1C00
1C00
FF80
FF80
ENDCHAR
STARTCHAR uni019A
ENCODING 410
SWIDTH 602 0
DWIDTH 11 0
BBX 9 14 0 0
BITMAP
7F00
7F00
0700
0700
0700
0700
FF80
FF80
0700
0700
0700
0700
0700
0700
ENDCHAR
STARTCHAR uni019D
ENCODING 413
SWIDTH 602 0
DWIDTH 11 0
BBX 14 18 -4 -4
BITMAP
070C
078C
078C
07CC
07CC
07EC
06EC
06EC
067C
067C
073C
073C
071C
071C
0700
8700
FE00
FC00
ENDCHAR
STARTCHAR uni019F
ENCODING 415
SWIDTH 602 0
DWIDTH 11 0
BBX 11 14 0 0
BITMAP
1F00
3F80
71C0
60C0
E0E0
E0E0
FFE0
FFE0
E0E0
E0E0
60C0
71C0
3F80
1F00
ENDCHAR
STARTCHAR Ohorn
ENCODING 416
SWIDTH 602 0
DWIDTH 11 0
BBX 13 14 0 0
BITMAP
1F38
3FB8
71F8
60D8
E0F8
E0F0
E0E0
E0E0
E0E0
E0E0
60C0
71C0
3F80
1F00
ENDCHAR
STARTCHAR ohorn
ENCODING 417
SWIDTH 602 0
DWIDTH 11 0
BBX 13 10 0 0
BITMAP
1F38
7FF8
71F8
E0F8
E0F8
E0F0
E0E0
71C0
7FC0
1F00
ENDCHAR
STARTCHAR uni01A7
ENCODING 423
SWIDTH 602 0
DWIDTH 11 0
BBX 10 14 1 0
BITMAP
7F00
7F80
41C0
01C0
03C0
0FC0
3F00
7E00
F800
E000
E000
F040
7FC0
1FC0
ENDCHAR
STARTCHAR uni01A8
ENCODING 424
SWIDTH 602 0
DWIDTH 11 0
BBX 9 10 1 0
BITMAP
7E00
7F00
4380
0F80
7F80
FE00
F000
E080
7F80
3F00
ENDCHAR
STARTCHAR uni01AE
ENCODING 430
SWIDTH 602 0
DWIDTH 11 0
BBX 12 18 0 -4
BITMAP
FFE0
FFE0
0E00
0E00
0E00
0E00
0E00
0E00
0E00
0E00
0E00
0E00
0E00
0E00
0E00
0E10
07F0
03F0
ENDCHAR
STARTCHAR Uhorn
ENCODING 431
SWIDTH 602 0
DWIDTH 11 0
BBX 11 14 1 0
BITMAP
E3E0
E3E0
E3E0
E3E0
E3E0
E3C0
E380
E380
E380
E380
E380
E380
7F00
3E00
ENDCHAR
STARTCHAR uhorn
ENCODING 432
SWIDTH 602 0
DWIDTH 11 0
BBX 11 10 1 0
BITMAP
E3E0
E3E0
E3E0
E3E0
E3E0
E3C0
E780
FF80
FF80
7B80
ENDCHAR
STARTCHAR uni01B5
ENCODING 437
SWIDTH 602 0
DWIDTH 11 0
BBX 10 14 1 0
BITMAP
FFC0
FFC0
03C0
0380
0700
0F00
7FC0
7FC0
3C00
3800
7800
F000
FFC0
FFC0
ENDCHAR
STARTCHAR uni01B6
ENCODING 438
SWIDTH 602 0
DWIDTH 11 0
BBX 9 10 1 0
BITMAP
FF80
FF80
0780
0F00
FF80
FF80
7800
F000
FF80
FF80
ENDCHAR
STARTCHAR uni01BB
ENCODING 443
SWIDTH 602 0
DWIDTH 11 0
BBX 8 14 2 0
BITMAP
7C
FE
8F
07
07
07
FF
FF
38
30
60
E0
FF
FF
ENDCHAR
STARTCHAR uni01BC
ENCODING 444
SWIDTH 602 0
DWIDTH 11 0
BBX 7 14 3 0
BITMAP
FE
FE
C0
C0
C0
F0
FC
1C
0E
0E
0E
9E
FC
F8
ENDCHAR
STARTCHAR uni01C0
ENCODING 448
SWIDTH 602 0
DWIDTH 11 0
BBX 2 18 5 -4
BITMAP
C0
C0
C0
C0
C0
C0
C0
C0
C0
C0
C0
C0
C0
C0
C0
C0
C0
C0
ENDCHAR
STARTCHAR uni01C2
ENCODING 450
SWIDTH 602 0
DWIDTH 11 0
BBX 10 18 1 -4
BITMAP
0C00
0C00
0C00
0C00
0C00
0C00
FFC0
FFC0
0C00
0C00
FFC0
FFC0
0C00
0C00
0C00
0C00
0C00
0C00
ENDCHAR
STARTCHAR uni01C3
ENCODING 451
SWIDTH 602 0
DWIDTH 11 0
BBX 3 14 4 0
BITMAP
E0
E0
E0
E0
E0
E0
C0
C0
C0
C0
00
00
E0
E0
ENDCHAR
STARTCHAR uni01CD
ENCODING 461
SWIDTH 602 0
DWIDTH 11 0
BBX 11 18 0 0
BITMAP
1980
0F00
0600
0000
0E00
0F00
0F00
1F00
1F00
1B80
3380
3380
33C0
7FC0
7FC0
61C0
C0E0
C0E0
ENDCHAR
STARTCHAR uni01CE
ENCODING 462
SWIDTH 602 0
DWIDTH 11 0
BBX 10 14 1 0
BITMAP
3300
1E00
0C00
0000
3F00
7F80
4780
0380
3F80
FF80
E380
E380
FFC0
79C0
ENDCHAR
STARTCHAR uni01CF
ENCODING 463
SWIDTH 602 0
DWIDTH 11 0
BBX 9 18 1 0
BITMAP
3300
1E00
0C00
0000
FF80
FF80
1C00
1C00
1C00
1C00
1C00
1C00
1C00
1C00
1C00
1C00
FF80
FF80
ENDCHAR
STARTCHAR uni01D0
ENCODING 464
SWIDTH 602 0
DWIDTH 11 0
BBX 7 14 2 0
BITMAP
66
3C
18
00
FE
FE
0E
0E
0E
0E
0E
0E
0E
0E
ENDCHAR
STARTCHAR uni01D1
ENCODING 465
SWIDTH 602 0
DWIDTH 11 0
BBX 11 18 0 0
BITMAP
1980
0F00
0600
0000
1F00
3F80
71C0
60C0
E0E0
E0E0
E0E0
E0E0
E0E0
E0E0
60C0
71C0
3F80
1F00
ENDCHAR
STARTCHAR uni01D2
ENCODING 466
SWIDTH 602 0
DWIDTH 11 0
BBX 11 14 0 0
BITMAP
1980
0F00
0600
0000
1F00
7FC0
71C0
E0E0
E0E0
E0E0
E0E0
71C0
7FC0
1F00
ENDCHAR
STARTCHAR uni01D3
ENCODING 467
SWIDTH 602 0
DWIDTH 11 0
BBX 9 18 1 0
BITMAP
3300
1E00
0C00
0000
E380
E380
E380
E380
E380
E380
E380
E380
E380
E380
E380
E380
7F00
3E00
ENDCHAR
STARTCHAR uni01D4
ENCODING 468
SWIDTH 602 0
DWIDTH 11 0
BBX 9 14 1 0
BITMAP
3300
1E00
0C00
0000
E380
E380
E380
E380
E380
E380
E780
FF80
FF80
7B80
ENDCHAR
STARTCHAR uni01D5
ENCODING 469
SWIDTH 602 0
DWIDTH 11 0
BBX 9 20 1 0
BITMAP
3E00
3E00
0000
3600
3600
0000
E380
E380
E380
E380
E380
E380
E380
E380
E380
E380
E380
E380
7F00
3E00
ENDCHAR
STARTCHAR uni01D6
ENCODING 470
SWIDTH 602 0
DWIDTH 11 0
BBX 9 16 1 0
BITMAP
3E00
3E00
0000
3600
3600
0000
E380
E380
E380
E380
E380
E380
E780
FF80
FF80
7B80
ENDCHAR
STARTCHAR uni01D7
ENCODING 471
SWIDTH 602 0
DWIDTH 11 0
BBX 9 21 1 0
BITMAP
0700
0E00
1C00
0000
3600
3600
0000
E380
E380
E380
E380
E380
E380
E380
E380
E380
E380
E380
E380
7F00
3E00
ENDCHAR
STARTCHAR uni01D8
ENCODING 472
SWIDTH 602 0
DWIDTH 11 0
BBX 9 17 1 0
BITMAP
0700
0E00
1C00
0000
3600
3600
0000
E380
E380
E380
E380
E380
E380
E780
FF80
FF80
7B80
ENDCHAR
STARTCHAR uni01D9
ENCODING 473
SWIDTH 602 0
DWIDTH 11 0
BBX 9 21 1 0
BITMAP
3300
1E00
0C00
0000
3600
3600
0000
E380
E380
E380
E380
E380
E380
E380
E380
E380
E380
E380
E380
7F00
3E00
ENDCHAR
STARTCHAR uni01DA
ENCODING 474
SWIDTH 602 0
DWIDTH 11 0
BBX 9 17 1 0
BITMAP
3300
1E00
0C00
0000
3600
3600
0000
E380
E380
E380
E380
E380
E380
E780
FF80
FF80
7B80
ENDCHAR
STARTCHAR uni01DB
ENCODING 475
SWIDTH 602 0
DWIDTH 11 0
BBX 9 21 1 0
BITMAP
7000
3800
1C00
0000
3600
3600
0000
E380
E380
E380
E380
E380
E380
E380
E380
E380
E380
E380
E380
7F00
3E00
ENDCHAR
STARTCHAR uni01DC
ENCODING 476
SWIDTH 602 0
DWIDTH 11 0
BBX 9 17 1 0
BITMAP
7000
3800
1C00
0000
3600
3600
0000
E380
E380
E380
E380
E380
E380
E780
FF80
FF80
7B80
ENDCHAR
STARTCHAR uni01DD
ENCODING 477
SWIDTH 602 0
DWIDTH 11 0
BBX 10 10 1 0
BITMAP
7E00
FF80
8380
01C0
FFC0
FFC0
E1C0
6380
7F80
3E00
ENDCHAR
STARTCHAR uni01DE
ENCODING 478
SWIDTH 602 0
DWIDTH 11 0
BBX 11 20 0 0
BITMAP
1F00
1F00
0000
1B00
1B00
0000
0E00
0F00
0F00
1F00
1F00
1B80
3380
3380
33C0
7FC0
7FC0
61C0
C0E0
C0E0
ENDCHAR
STARTCHAR uni01DF
ENCODING 479
SWIDTH 602 0
DWIDTH 11 0
BBX 10 16 1 0
BITMAP
3E00
3E00
0000
3600
3600
0000
3F00
7F80
4780
0380
3F80
FF80
E380
E380
FFC0
79C0
ENDCHAR
STARTCHAR uni01E0
ENCODING 480
SWIDTH 602 0
DWIDTH 11 0
BBX 11 20 0 0
BITMAP
1F00
1F00
0000
0600
0600
0000
0E00
0F00
0F00
1F00
1F00
1B80
3380
3380
33C0
7FC0
7FC0
61C0
C0E0
C0E0
ENDCHAR
STARTCHAR uni01E1
ENCODING 481
SWIDTH 602 0
DWIDTH 11 0
BBX 10 16 1 0
BITMAP
1F00
1F00
0000
0C00
0C00
0000
3F00
7F80
4780
0380
3F80
FF80
E380
E380
FFC0
79C0
ENDCHAR
STARTCHAR uni01E2
ENCODING 482
SWIDTH 602 0
DWIDTH 11 0
BBX 12 17 0 0
BITMAP
07C0
07C0
0000
07F0
07F0
0780
0F80
0F80
1F80
1BF0
3BF0
3380
3F80
7F80
6380
E3F0
C3F0
ENDCHAR
STARTCHAR uni01E3
ENCODING 483
SWIDTH 602 0
DWIDTH 11 0
BBX 10 13 1 0
BITMAP
1F00
1F00
0000
7B80
7F80
4DC0
0DC0
7FC0
FFC0
EC00
EC40
FFC0
7380
ENDCHAR
STARTCHAR uni01E4
ENCODING 484
SWIDTH 602 0
DWIDTH 11 0
BBX 14 14 0 0
BITMAP
0FE0
3FE0
7820
7000
E000
E000
E000
E0E0
E0E0
E0E0
77FC
7FFC
3FE0
0FC0
ENDCHAR
STARTCHAR uni01E5
ENCODING 485
SWIDTH 602 0
DWIDTH 11 0
BBX 10 14 1 -4
BITMAP
3CC0
7FC0
F3C0
E1C0
E1C0
E1C0
F3C0
FFC0
7FC0
FFC0
FFC0
4380
7F80
3E00
ENDCHAR
STARTCHAR Gcaron
ENCODING 486
SWIDTH 602 0
DWIDTH 11 0
BBX 11 18 0 0
BITMAP
1980
0F00
0600
0000
0FE0
3FE0
7820
7000
E000
E000
E000
E0E0
E0E0
E0E0
70E0
78E0
3FE0
0FC0
ENDCHAR
STARTCHAR gcaron
ENCODING 487
SWIDTH 602 0
DWIDTH 11 0
BBX 10 18 1 -4
BITMAP
3300
1E00
0C00
0000
3CC0
7FC0
F3C0
E1C0
E1C0
E1C0
F3C0
FFC0
7FC0
3DC0
01C0
4380
7F80
3E00
ENDCHAR
STARTCHAR uni01E8
ENCODING 488
SWIDTH 602 0
DWIDTH 11 0
BBX 10 18 1 0
BITMAP
6600
3C00
1800
0000
E1C0
E380
E300
E600
EE00
EC00
FC00
FC00
FE00
EF00
E700
E780
E380
E3C0
ENDCHAR
STARTCHAR uni01E9
ENCODING 489
SWIDTH 602 0
DWIDTH 11 0
BBX 10 18 1 0
BITMAP
CC00
7800
3000
0000
E000
E000
E000
E000
E380
E700
E600
EC00
FC00
EE00
EF00
E700
E380
E3C0
ENDCHAR
STARTCHAR uni01EA
ENCODING 490
SWIDTH 602 0
DWIDTH 11 0
BBX 11 18 0 -4
BITMAP
1F00
3F80
71C0
60C0
E0E0
E0E0
E0E0
E0E0
E0E0
E0E0
60C0
71C0
3F80
1F00
0600
0C00
0C00
0E00
ENDCHAR
STARTCHAR uni01EB
ENCODING 491
SWIDTH 602 0
DWIDTH 11 0
BBX 11 14 0 -4
BITMAP
1F00
7FC0
71C0
E0E0
E0E0
E0E0
E0E0
71C0
7FC0
1F00
0600
0C00
0C00
0E00
ENDCHAR
STARTCHAR uni01EC
ENCODING 492
SWIDTH 602 0
DWIDTH 11 0
BBX 11 21 0 -4
BITMAP
1F00
1F00
0000
1F00
3F80
71C0
60C0
E0E0
E0E0
E0E0
E0E0
E0E0
E0E0
60C0
71C0
3F80
1F00
0600
0C00
0C00
0E00
ENDCHAR
STARTCHAR uni01ED
ENCODING 493
SWIDTH 602 0
DWIDTH 11 0
BBX 11 17 0 -4
BITMAP
1F00
1F00
0000
1F00
7FC0
71C0
E0E0
E0E0
E0E0
E0E0
71C0
7FC0
1F00
0600
0C00
0C00
0E00
ENDCHAR
STARTCHAR uni01F0
ENCODING 496
SWIDTH 602 0
DWIDTH 11 0
BBX 8 18 1 -4
BITMAP
33
1E
0C
00
7F
7F
07
07
07
07
07
07
07
07
07
87
FE
FC
ENDCHAR
STARTCHAR uni01F4
ENCODING 500
SWIDTH 602 0
DWIDTH 11 0
BBX 11 18 0 0
BITMAP
0380
0700
0E00
0000
0FE0
3FE0
7820
7000
E000
E000
E000
E0E0
E0E0
E0E0
70E0
78E0
3FE0
0FC0
ENDCHAR
STARTCHAR uni01F5
ENCODING 501
SWIDTH 602 0
DWIDTH 11 0
BBX 10 18 1 -4
BITMAP
0700
0E00
1C00
0000
3CC0
7FC0
F3C0
E1C0
E1C0
E1C0
F3C0
FFC0
7FC0
3DC0
01C0
4380
7F80
3E00
ENDCHAR
STARTCHAR uni01F8
ENCODING 504
SWIDTH 602 0
DWIDTH 11 0
BBX 9 18 1 0
BITMAP
7000
3800
1C00
0000
E180
F180
F180
F980
F980
FD80
DD80
DD80
CF80
CF80
C780
C780
C380
C380
ENDCHAR
STARTCHAR uni01F9
ENCODING 505
SWIDTH 602 0
DWIDTH 11 0
BBX 9 14 1 0
BITMAP
7000
3800
1C00
0000
EF00
FF80
FF80
F380
E380
E380
E380
E380
E380
E380
ENDCHAR
STARTCHAR Aringacute
ENCODING 506
SWIDTH 602 0
DWIDTH 11 0
BBX 11 22 0 0
BITMAP
0380
0700
0E00
0000
0E00
0A00
0E00
0000
0E00
0F00
0F00
1F00
1F00
1B80
3380
3380
33C0
7FC0
7FC0
61C0
C0E0
C0E0
ENDCHAR
STARTCHAR aringacute
ENCODING 507
SWIDTH 602 0
DWIDTH 11 0
BBX 10 18 1 0
BITMAP
0700
0E00
1C00
0000
1C00
1400
1C00
0000
3F00
7F80
4780
0380
3F80
FF80
E380
E380
FFC0
79C0
ENDCHAR
STARTCHAR AEacute
ENCODING 508
SWIDTH 602 0
DWIDTH 11 0
BBX 12 18 0 0
BITMAP
01C0
0380
0700
0000
07F0
07F0
0780
0F80
0F80
1F80
1BF0
3BF0
3380
3F80
7F80
6380
E3F0
C3F0
ENDCHAR
STARTCHAR aeacute
ENCODING 509
SWIDTH 602 0
DWIDTH 11 0
BBX 10 14 1 0
BITMAP
0700
0E00
1C00
0000
7B80
7F80
4DC0
0DC0
7FC0
FFC0
EC00
EC40
FFC0
7380
ENDCHAR
STARTCHAR Oslashacute
ENCODING 510
SWIDTH 602 0
DWIDTH 11 0
BBX 11 18 0 0
BITMAP
0380
0700
0E00
0000
1F60
3FC0
71C0
61C0
E3E0
E7E0
E6E0
ECE0
FCE0
F8E0
70C0
71C0
7F80
DF00
ENDCHAR
STARTCHAR oslashacute
ENCODING 511
SWIDTH 602 0
DWIDTH 11 0
BBX 11 14 0 0
BITMAP
0380
0700
0E00
0000
1FE0
7FC0
71C0
E3E0
E6E0
ECE0
F8E0
71C0
7FC0
FF00
ENDCHAR
STARTCHAR uni0200
ENCODING 512
SWIDTH 602 0
DWIDTH 11 0
BBX 11 18 0 0
BITMAP
3600
1A00
0900
0000
0E00
0F00
0F00
1F00
1F00
1B80
3380
3380
33C0
7FC0
7FC0
61C0
C0E0
C0E0
ENDCHAR
STARTCHAR uni0201
ENCODING 513
SWIDTH 602 0
DWIDTH 11 0
BBX 10 14 1 0
BITMAP
6C00
3400
1200
0000
3F00
7F80
4780
0380
3F80
FF80
E380
E380
FFC0
79C0
ENDCHAR
STARTCHAR uni0202
ENCODING 514
SWIDTH 602 0
DWIDTH 11 0
BBX 11 18 0 0
BITMAP
0F00
1F80
1980
0000
0E00
0F00
0F00
1F00
1F00
1B80
3380
3380
33C0
7FC0
7FC0
61C0
C0E0
C0E0
ENDCHAR
STARTCHAR uni0203
ENCODING 515
SWIDTH 602 0
DWIDTH 11 0
BBX 10 14 1 0
BITMAP
1E00
3F00
3300
0000
3F00
7F80
4780
0380
3F80
FF80
E380
E380
FFC0
79C0
ENDCHAR
STARTCHAR uni0204
ENCODING 516
SWIDTH 602 0
DWIDTH 11 0
BBX 9 18 2 0
BITMAP
D800
6800
2400
0000
FF80
FF80
E000
E000
E000
E000
FF00
FF00
E000
E000
E000
E000
FF80
FF80
ENDCHAR
STARTCHAR uni0205
ENCODING 517
SWIDTH 602 0
DWIDTH 11 0
BBX 10 14 1 0
BITMAP
6C00
3400
1200
0000
1F00
7F80
7180
E1C0
FFC0
FFC0
E000
7040
7FC0
1F80
ENDCHAR
STARTCHAR uni0206
ENCODING 518
SWIDTH 602 0
DWIDTH 11 0
BBX 9 18 2 0
BITMAP
3C00
7E00
6600
0000
FF80
FF80
E000
E000
E000
E000
FF00
FF00
E000
E000
E000
E000
FF80
FF80
ENDCHAR
STARTCHAR uni0207
ENCODING 519
SWIDTH 602 0
DWIDTH 11 0
BBX 10 14 1 0
BITMAP
1E00
3F00
3300
0000
1F00
7F80
7180
E1C0
FFC0
FFC0
E000
7040
7FC0
1F80
ENDCHAR
STARTCHAR uni0208
ENCODING 520
SWIDTH 602 0
DWIDTH 11 0
BBX 9 18 1 0
BITMAP
6C00
3400
1200
0000
FF80
FF80
1C00
1C00
1C00
1C00
1C00
1C00
1C00
1C00
1C00
1C00
FF80
FF80
ENDCHAR
STARTCHAR uni0209
ENCODING 521
SWIDTH 602 0
DWIDTH 11 0
BBX 7 14 2 0
BITMAP
D8
68
24
00
FE
FE
0E
0E
0E
0E
0E
0E
0E
0E
ENDCHAR
STARTCHAR uni020A
ENCODING 522
SWIDTH 602 0
DWIDTH 11 0
BBX 9 18 1 0
BITMAP
1E00
3F00
3300
0000
FF80
FF80
1C00
1C00
1C00
1C00
1C00
1C00
1C00
1C00
1C00
1C00
FF80
FF80
ENDCHAR
STARTCHAR uni020B
ENCODING 523
SWIDTH 602 0
DWIDTH 11 0
BBX 7 14 2 0
BITMAP
3C
7E
66
00
FE
FE
0E
0E
0E
0E
0E
0E
0E
0E
ENDCHAR
STARTCHAR uni020C
ENCODING 524
SWIDTH 602 0
DWIDTH 11 0
BBX 11 18 0 0
BITMAP
3600
1A00
0900
0000
1F00
3F80
71C0
60C0
E0E0
E0E0
E0E0
E0E0
E0E0
E0E0
60C0
71C0
3F80
1F00
ENDCHAR
STARTCHAR uni020D
ENCODING 525
SWIDTH 602 0
DWIDTH 11 0
BBX 11 14 0 0
BITMAP
3600
1A00
0900
0000
1F00
7FC0
71C0
E0E0
E0E0
E0E0
E0E0
71C0
7FC0
1F00
ENDCHAR
STARTCHAR uni020E
ENCODING 526
SWIDTH 602 0
DWIDTH 11 0
BBX 11 18 0 0
BITMAP
0F00
1F80
1980
0000
1F00
3F80
71C0
60C0
E0E0
E0E0
E0E0
E0E0
E0E0
E0E0
60C0
71C0
3F80
1F00
ENDCHAR
STARTCHAR uni020F
ENCODING 527
SWIDTH 602 0
DWIDTH 11 0
BBX 11 14 0 0
BITMAP
0F00
1F80
1980
0000
1F00
7FC0
71C0
E0E0
E0E0
E0E0
E0E0
71C0
7FC0
1F00
ENDCHAR
STARTCHAR uni0210
ENCODING 528
SWIDTH 602 0
DWIDTH 11 0
BBX 10 18 1 0
BITMAP
6C00
3400
1200
0000
FE00
FF00
E380
E380
E380
E380
E700
FC00
FE00
EF00
E700
E780
E380
E1C0
ENDCHAR
STARTCHAR uni0211
ENCODING 529
SWIDTH 602 0
DWIDTH 11 0
BBX 9 14 2 0
BITMAP
6C00
3400
1200
0000
E780
FF80
FF80
F180
E000
E000
E000
E000
E000
E000
ENDCHAR
STARTCHAR uni0212
ENCODING 530
SWIDTH 602 0
DWIDTH 11 0
BBX 10 18 1 0
BITMAP
3C00
7E00
6600
0000
FE00
FF00
E380
E380
E380
E380
E700
FC00
FE00
EF00
E700
E780
E380
E1C0
ENDCHAR
STARTCHAR uni0213
ENCODING 531
SWIDTH 602 0
DWIDTH 11 0
BBX 9 14 2 0
BITMAP
1E00
3F00
3300
0000
E780
FF80
FF80
F180
E000
E000
E000
E000
E000
E000
ENDCHAR
STARTCHAR uni0214
ENCODING 532
SWIDTH 602 0
DWIDTH 11 0
BBX 9 18 1 0
BITMAP
6C00
3400
1200
0000
E380
E380
E380
E380
E380
E380
E380
E380
E380
E380
E380
E380
7F00
3E00
ENDCHAR
STARTCHAR uni0215
ENCODING 533
SWIDTH 602 0
DWIDTH 11 0
BBX 9 14 1 0
BITMAP
6C00
3400
1200
0000
E380
E380
E380
E380
E380
E380
E780
FF80
FF80
7B80
ENDCHAR
STARTCHAR uni0216
ENCODING 534
SWIDTH 602 0
DWIDTH 11 0
BBX 9 18 1 0
BITMAP
1E00
3F00
3300
0000
E380
E380
E380
E380
E380
E380
E380
E380
E380
E380
E380
E380
7F00
3E00
ENDCHAR
STARTCHAR uni0217
ENCODING 535
SWIDTH 602 0
DWIDTH 11 0
BBX 9 14 1 0
BITMAP
1E00
3F00
3300
0000
E380
E380
E380
E380
E380
E380
E780
FF80
FF80
7B80
ENDCHAR
STARTCHAR Scommaaccent
ENCODING 536
SWIDTH 602 0
DWIDTH 11 0
BBX 10 23 1 -9
BITMAP
3F80
7F80
E080
E000
F000
FC00
3F00
1F80
07C0
01C0
01C0
83C0
FF80
FE00
0000
0E00
0E00
0E00
0E00
0600
0600
0E00
0C00
ENDCHAR
STARTCHAR scommaaccent
ENCODING 537
SWIDTH 602 0
DWIDTH 11 0
BBX 9 19 1 -9
BITMAP
3F00
7F00
E100
F800
FF00
3F80
0780
8380
FF00
7E00
0000
1C00
1C00
1C00
1C00
0C00
0C00
1C00
1800
ENDCHAR
STARTCHAR Tcommaaccent
ENCODING 538
SWIDTH 602 0
DWIDTH 11 0
BBX 11 23 0 -9
BITMAP
FFE0
FFE0
0E00
0E00
0E00
0E00
0E00
0E00
0E00
0E00
0E00
0E00
0E00
0E00
0000
0E00
0E00
0E00
0E00
0600
0600
0E00
0C00
ENDCHAR
STARTCHAR tcommaaccent
ENCODING 539
SWIDTH 602 0
DWIDTH 11 0
BBX 9 22 1 -9
BITMAP
3800
3800
3800
FF80
FF80
3800
3800
3800
3800
3800
3800
1F80
0F80
0000
0E00
0E00
0E00
0E00
0600
0600
0E00
0C00
ENDCHAR
STARTCHAR uni021E
ENCODING 542
SWIDTH 602 0
DWIDTH 11 0
BBX 10 18 1 0
BITMAP
3300
1E00
0C00
0000
E1C0
E1C0
E1C0
E1C0
E1C0
E1C0
FFC0
FFC0
E1C0
E1C0
E1C0
E1C0
E1C0
E1C0
ENDCHAR
STARTCHAR uni021F
ENCODING 543
SWIDTH 602 0
DWIDTH 11 0
BBX 9 18 1 0
BITMAP
CC00
7800
3000
0000
E000
E000
E000
E000
EF00
FF80
FF80
F380
E380
E380
E380
E380
E380
E380
ENDCHAR
STARTCHAR uni0226
ENCODING 550
SWIDTH 602 0
DWIDTH 11 0
BBX 11 17 0 0
BITMAP
0600
0600
0000
0E00
0F00
0F00
1F00
1F00
1B80
3380
3380
33C0
7FC0
7FC0
61C0
C0E0
C0E0
ENDCHAR
STARTCHAR uni0227
ENCODING 551
SWIDTH 602 0
DWIDTH 11 0
BBX 10 13 1 0
BITMAP
0C00
0C00
0000
3F00
7F80
4780
0380
3F80
FF80
E380
E380
FFC0
79C0
ENDCHAR
STARTCHAR uni0228
ENCODING 552
SWIDTH 602 0
DWIDTH 11 0
BBX 9 18 2 -4
BITMAP
FF80
FF80
E000
E000
E000
E000
FF00
FF00
E000
E000
E000
E000
FF80
FF80
1800
3C00
0C00
3800
ENDCHAR
STARTCHAR uni0229
ENCODING 553
SWIDTH 602 0
DWIDTH 11 0
BBX 10 14 1 -4
BITMAP
1F00
7F80
7180
E1C0
FFC0
FFC0
E000
7040
7FC0
1F80
0C00
1E00
0600
1C00
ENDCHAR
STARTCHAR uni022A
ENCODING 554
SWIDTH 602 0
DWIDTH 11 0
BBX 11 20 0 0
BITMAP
1F00
1F00
0000
1B00
1B00
0000
1F00
3F80
71C0
60C0
E0E0
E0E0
E0E0
E0E0
E0E0
E0E0
60C0
71C0
3F80
1F00
ENDCHAR
STARTCHAR uni022B
ENCODING 555
SWIDTH 602 0
DWIDTH 11 0
BBX 11 16 0 0
BITMAP
1F00
1F00
0000
1B00
1B00
0000
1F00
7FC0
71C0
E0E0
E0E0
E0E0
E0E0
71C0
7FC0
1F00
ENDCHAR
STARTCHAR uni022C
ENCODING 556
SWIDTH 602 0
DWIDTH 11 0
BBX 11 21 0 0
BITMAP
1F00
1F00
0000
1B00
3F00
3600
0000
1F00
3F80
71C0
60C0
E0E0
E0E0
E0E0
E0E0
E0E0
E0E0
60C0
71C0
3F80
1F00
ENDCHAR
STARTCHAR uni022D
ENCODING 557
SWIDTH 602 0
DWIDTH 11 0
BBX 11 17 0 0
BITMAP
1F00
1F00
0000
0D80
1F80
1B00
0000
1F00
7FC0
71C0
E0E0
E0E0
E0E0
E0E0
71C0
7FC0
1F00
ENDCHAR
STARTCHAR uni022E
ENCODING 558
SWIDTH 602 0
DWIDTH 11 0
BBX 11 17 0 0
BITMAP
0600
0600
0000
1F00
3F80
71C0
60C0
E0E0
E0E0
E0E0
E0E0
E0E0
E0E0
60C0
71C0
3F80
1F00
ENDCHAR
STARTCHAR uni022F
ENCODING 559
SWIDTH 602 0
DWIDTH 11 0
BBX 11 13 0 0
BITMAP
0600
0600
0000
1F00
7FC0
71C0
E0E0
E0E0
E0E0
E0E0
71C0
7FC0
1F00
ENDCHAR
STARTCHAR uni0230
ENCODING 560
SWIDTH 602 0
DWIDTH 11 0
BBX 11 20 0 0
BITMAP
1F00
1F00
0000
0600
0600
0000
1F00
3F80
71C0
60C0
E0E0
E0E0
E0E0
E0E0
E0E0
E0E0
60C0
71C0
3F80
1F00
ENDCHAR
STARTCHAR uni0231
ENCODING 561
SWIDTH 602 0
DWIDTH 11 0
BBX 11 16 0 0
BITMAP
1F00
1F00
0000
0600
0600
0000
1F00
7FC0
71C0
E0E0
E0E0
E0E0
E0E0
71C0
7FC0
1F00
ENDCHAR
STARTCHAR uni0232
ENCODING 562
SWIDTH 602 0
DWIDTH 11 0
BBX 11 17 0 0
BITMAP
1F00
1F00
0000
E060
70C0
70C0
3980
3980
1F00
1F00
0E00
0E00
0E00
0E00
0E00
0E00
0E00
ENDCHAR
STARTCHAR uni0233
ENCODING 563
SWIDTH 602 0
DWIDTH 11 0
BBX 11 17 0 -4
BITMAP
1F00
1F00
0000
E060
70C0
70C0
3980
3980
3F80
1F00
1F00
0E00
0E00
0C00
0C00
7800
7000
ENDCHAR
STARTCHAR uni0250
ENCODING 592
SWIDTH 602 0
DWIDTH 11 0
BBX 10 10 1 0
BITMAP
E780
FFC0
71C0
71C0
7FC0
7F00
7000
7880
7F80
3F00
ENDCHAR
STARTCHAR uni0254
ENCODING 596
SWIDTH 602 0
DWIDTH 11 0
BBX 10 10 1 0
BITMAP
FE00
FF80
8380
01C0
01C0
01C0
01C0
0780
FF00
FE00
ENDCHAR
STARTCHAR uni0258
ENCODING 600
SWIDTH 602 0
DWIDTH 11 0
BBX 10 10 1 0
BITMAP
3E00
7F80
6380
E1C0
FFC0
FFC0
01C0
8380
FF80
7E00
ENDCHAR
STARTCHAR uni0259
ENCODING 601
SWIDTH 602 0
DWIDTH 11 0
BBX 10 10 1 0
BITMAP
7E00
FF80
8380
01C0
FFC0
FFC0
E1C0
6380
7F80
3E00
ENDCHAR
STARTCHAR uni025F
ENCODING 607
SWIDTH 602 0
DWIDTH 11 0
BBX 10 14 2 -4
BITMAP
0700
0700
0700
0700
0700
0700
0700
0700
7FC0
7FC0
0700
8700
FF00
FC00
ENDCHAR
STARTCHAR uni0265
ENCODING 613
SWIDTH 602 0
DWIDTH 11 0
BBX 9 14 1 -4
BITMAP
E380
E380
E380
E380
E380
E380
E780
FF80
FF80
7B80
0380
0380
0380
0380
ENDCHAR
STARTCHAR uni0275
ENCODING 629
SWIDTH 602 0
DWIDTH 11 0
BBX 11 10 0 0
BITMAP
1F00
7FC0
71C0
E0E0
FFE0
FFE0
E0E0
71C0
7FC0
1F00
ENDCHAR
STARTCHAR uni0279
ENCODING 633
SWIDTH 602 0
DWIDTH 11 0
BBX 9 10 2 0
BITMAP
0380
0380
0380
0380
0380
0380
C780
FF80
FF80
F380
ENDCHAR
STARTCHAR uni0287
ENCODING 647
SWIDTH 602 0
DWIDTH 11 0
BBX 9 13 1 0
BITMAP
F800
FC00
0E00
0E00
0E00
0E00
0E00
0E00
FF80
FF80
0E00
0E00
0E00
ENDCHAR
STARTCHAR uni0288
ENCODING 648
SWIDTH 602 0
DWIDTH 11 0
BBX 10 17 1 -4
BITMAP
3800
3800
3800
FF80
FF80
3800
3800
3800
3800
3800
3800
3800
3800
3800
3840
1FC0
0FC0
ENDCHAR
STARTCHAR uni0289
ENCODING 649
SWIDTH 602 0
DWIDTH 11 0
BBX 9 10 1 0
BITMAP
E380
E380
E380
E380
FF80
FF80
E780
FF80
FF80
7B80
ENDCHAR
STARTCHAR uni028C
ENCODING 652
SWIDTH 602 0
DWIDTH 11 0
BBX 11 10 0 0
BITMAP
0E00
1F00
1F00
1F00
3380
3380
73C0
61C0
61E0
C0E0
ENDCHAR
STARTCHAR uni028D
ENCODING 653
SWIDTH 602 0
DWIDTH 11 0
BBX 11 10 0 0
BITMAP
3180
73C0
7BC0
7BC0
7FC0
7FC0
5EC0
CEE0
CEE0
C0E0
ENDCHAR
STARTCHAR uni028E
ENCODING 654
SWIDTH 602 0
DWIDTH 11 0
BBX 11 14 0 0
BITMAP
01C0
03C0
0600
0600
0E00
0E00
1F00
1F00
3F80
3380
3380
61C0
61C0
C0E0
ENDCHAR
STARTCHAR uni029E
ENCODING 670
SWIDTH 602 0
DWIDTH 11 0
BBX 10 14 1 -4
BITMAP
F1C0
71C0
39C0
3DC0
1DC0
0FC0
0DC0
19C0
39C0
71C0
01C0
01C0
01C0
01C0
ENDCHAR
STARTCHAR uni02BB
ENCODING 699
SWIDTH 602 0
DWIDTH 11 0
BBX 3 6 4 8
BITMAP
60
E0
C0
E0
E0
E0
ENDCHAR
STARTCHAR afii57929
ENCODING 700
SWIDTH 602 0
DWIDTH 11 0
BBX 3 6 4 8
BITMAP
E0
E0
E0
60
E0
C0
ENDCHAR
STARTCHAR afii64937
ENCODING 701
SWIDTH 602 0
DWIDTH 11 0
BBX 3 6 4 8
BITMAP
E0
E0
E0
C0
E0
60
ENDCHAR
STARTCHAR circumflex
ENCODING 710
SWIDTH 602 0
DWIDTH 11 0
BBX 6 3 3 11
BITMAP
30
78
CC
ENDCHAR
STARTCHAR caron
ENCODING 711
SWIDTH 602 0
DWIDTH 11 0
BBX 6 3 3 11
BITMAP
CC
78
30
ENDCHAR
STARTCHAR uni02C8
ENCODING 712
SWIDTH 602 0
DWIDTH 11 0
BBX 3 6 4 8
BITMAP
E0
E0
E0
60
60
60
ENDCHAR
STARTCHAR macron
ENCODING 713
SWIDTH 602 0
DWIDTH 11 0
BBX 5 2 3 12
BITMAP
F8
F8
ENDCHAR
STARTCHAR uni02CA
ENCODING 714
SWIDTH 602 0
DWIDTH 11 0
BBX 5 3 3 11
BITMAP
38
70
E0
ENDCHAR
STARTCHAR uni02CB
ENCODING 715
SWIDTH 602 0
DWIDTH 11 0
BBX 5 3 3 11
BITMAP
E0
70
38
ENDCHAR
STARTCHAR uni02CD
ENCODING 717
SWIDTH 602 0
DWIDTH 11 0
BBX 5 2 3 -3
BITMAP
F8
F8
ENDCHAR
STARTCHAR uni02CE
ENCODING 718
SWIDTH 602 0
DWIDTH 11 0
BBX 5 3 3 -4
BITMAP
E0
70
38
ENDCHAR
STARTCHAR uni02CF
ENCODING 719
SWIDTH 602 0
DWIDTH 11 0
BBX 5 3 3 -4
BITMAP
38
70
E0
ENDCHAR
STARTCHAR breve
ENCODING 728
SWIDTH 602 0
DWIDTH 11 0
BBX 6 3 3 11
BITMAP
CC
FC
78
ENDCHAR
STARTCHAR dotaccent
ENCODING 729
SWIDTH 602 0
DWIDTH 11 0
BBX 2 2 5 12
BITMAP
C0
C0
ENDCHAR
STARTCHAR ring
ENCODING 730
SWIDTH 602 0
DWIDTH 11 0
BBX 3 3 4 11
BITMAP
E0
A0
E0
ENDCHAR
STARTCHAR ogonek
ENCODING 731
SWIDTH 602 0
DWIDTH 11 0
BBX 3 4 4 -4
BITMAP
60
C0
C0
E0
ENDCHAR
STARTCHAR tilde
ENCODING 732
SWIDTH 602 0
DWIDTH 11 0
BBX 6 3 3 11
BITMAP
6C
FC
D8
ENDCHAR
STARTCHAR hungarumlaut
ENCODING 733
SWIDTH 602 0
DWIDTH 11 0
BBX 6 3 4 11
BITMAP
6C
58
90
ENDCHAR
STARTCHAR uni02EE
ENCODING 750
SWIDTH 602 0
DWIDTH 11 0
BBX 8 5 2 9
BITMAP
E7
E7
E7
63
C6
ENDCHAR
STARTCHAR uni037E
ENCODING 894
SWIDTH 602 0
DWIDTH 11 0
BBX 3 14 4 -4
BITMAP
E0
E0
E0
00
00
00
00
E0
E0
E0
60
60
E0
C0
ENDCHAR
STARTCHAR tonos
ENCODING 900
SWIDTH 602 0
DWIDTH 11 0
BBX 5 3 3 11
BITMAP
38
70
E0
ENDCHAR
STARTCHAR dieresistonos
ENCODING 901
SWIDTH 602 0
DWIDTH 11 0
BBX 6 6 3 12
BITMAP
1C
38
70
00
D8
D8
ENDCHAR
STARTCHAR anoteleia
ENCODING 903
SWIDTH 602 0
DWIDTH 11 0
BBX 3 3 4 3
BITMAP
E0
E0
E0
ENDCHAR
STARTCHAR mu
ENCODING 956
SWIDTH 602 0
DWIDTH 11 0
BBX 9 14 1 -4
BITMAP
E380
E380
E380
E380
E380
E380
E780
FF80
FF80
FB80
E000
E000
E000
E000
ENDCHAR
STARTCHAR uni1E00
ENCODING 7680
SWIDTH 602 0
DWIDTH 11 0
BBX 11 18 0 -4
BITMAP
0E00
0F00
0F00
1F00
1F00
1B80
3380
3380
33C0
7FC0
7FC0
61C0
C0E0
C0E0
0000
0E00
0A00
0E00
ENDCHAR
STARTCHAR uni1E01
ENCODING 7681
SWIDTH 602 0
DWIDTH 11 0
BBX 10 14 1 -4
BITMAP
3F00
7F80
4780
0380
3F80
FF80
E380
E380
FFC0
79C0
0000
1C00
1400
1C00
ENDCHAR
STARTCHAR uni1E02
ENCODING 7682
SWIDTH 602 0
DWIDTH 11 0
BBX 10 17 1 0
BITMAP
0C00
0C00
0000
FF00
FF80
E380
E380
E380
E700
FE00
FF80
E3C0
E1C0
E1C0
E3C0
FF80
FF00
ENDCHAR
STARTCHAR uni1E03
ENCODING 7683
SWIDTH 602 0
DWIDTH 11 0
BBX 10 17 1 0
BITMAP
3000
3000
0000
E000
E000
E000
E000
EF00
EF80
FFC0
F3C0
E1C0
E1C0
E1C0
E380
FF80
FF00
ENDCHAR
STARTCHAR uni1E04
ENCODING 7684
SWIDTH 602 0
DWIDTH 11 0
BBX 10 17 1 -3
BITMAP
FF00
FF80
E380
E380
E380
E700
FE00
FF80
E3C0
E1C0
E1C0
E3C0
FF80
FF00
0000
0C00
0C00
ENDCHAR
STARTCHAR uni1E05
ENCODING 7685
SWIDTH 602 0
DWIDTH 11 0
BBX 10 17 1 -3
BITMAP
E000
E000
E000
E000
EF00
EF80
FFC0
F3C0
E1C0
E1C0
E1C0
E380
FF80
FF00
0000
0C00
0C00
ENDCHAR
STARTCHAR uni1E06
ENCODING 7686
SWIDTH 602 0
DWIDTH 11 0
BBX 10 17 1 -3
BITMAP
FF00
FF80
E380
E380
E380
E700
FE00
FF80
E3C0
E1C0
E1C0
E3C0
FF80
FF00
0000
3E00
3E00
ENDCHAR
STARTCHAR uni1E07
ENCODING 7687
SWIDTH 602 0
DWIDTH 11 0
BBX 10 17 1 -3
BITMAP
E000
E000
E000
E000
EF00
EF80
FFC0
F3C0
E1C0
E1C0
E1C0
E380
FF80
FF00
0000
3E00
3E00
ENDCHAR
STARTCHAR uni1E08
ENCODING 7688
SWIDTH 602 0
DWIDTH 11 0
BBX 11 22 0 -4
BITMAP
0380
0700
0E00
0000
0FE0
3FE0
7820
7000
E000
E000
E000
E000
E000
E000
7000
7820
3FE0
0FC0
0400
0F00
0300
0E00
ENDCHAR
STARTCHAR uni1E09
ENCODING 7689
SWIDTH 602 0
DWIDTH 11 0
BBX 10 18 1 -4
BITMAP
0700
0E00
1C00
0000
1FC0
7FC0
7040
E000
E000
E000
E000
7800
3FC0
1FC0
0800
1E00
0600
1C00
ENDCHAR
STARTCHAR uni1E0A
ENCODING 7690
SWIDTH 602 0
DWIDTH 11 0
BBX 10 17 1 0
BITMAP
0C00
0C00
0000
FE00
FF80
E380
E3C0
E1C0
E1C0
E1C0
E1C0
E1C0
E1C0
E380
E380
FF00
FE00
ENDCHAR
STARTCHAR uni1E0B
ENCODING 7691
SWIDTH 602 0
DWIDTH 11 0
BBX 10 17 1 0
BITMAP
0300
0300
0000
01C0
01C0
01C0
01C0
3DC0
7FC0
71C0
E1C0
E1C0
E1C0
F3C0
FFC0
7FC0
3DC0
ENDCHAR
STARTCHAR uni1E0C
ENCODING 7692
SWIDTH 602 0
DWIDTH 11 0
BBX 10 17 1 -3
BITMAP
FE00
FF80
E380
E3C0
E1C0
E1C0
E1C0
E1C0
E1C0
E1C0
E380
E380
FF00
FE00
0000
1800
1800
ENDCHAR
STARTCHAR uni1E0D
ENCODING 7693
SWIDTH 602 0
DWIDTH 11 0
BBX 10 17 1 -3
BITMAP
01C0
01C0
01C0
01C0
3DC0
7FC0
71C0
E1C0
E1C0
E1C0
F3C0
FFC0
7FC0
3DC0
0000
0C00
0C00
ENDCHAR
STARTCHAR uni1E0E
ENCODING 7694
SWIDTH 602 0
DWIDTH 11 0
BBX 10 17 1 -3
BITMAP
FE00
FF80
E380
E3C0
E1C0
E1C0
E1C0
E1C0
E1C0
E1C0
E380
E380
FF00
FE00
0000
3E00
3E00
ENDCHAR
STARTCHAR uni1E0F
ENCODING 7695
SWIDTH 602 0
DWIDTH 11 0
BBX 10 17 1 -3
BITMAP
01C0
01C0
01C0
01C0
3DC0
7FC0
71C0
E1C0
E1C0
E1C0
F3C0
FFC0
7FC0
3DC0
0000
1F00
1F00
ENDCHAR
STARTCHAR uni1E10
ENCODING 7696
SWIDTH 602 0
DWIDTH 11 0
BBX 10 18 1 -4
BITMAP
FE00
FF80
E380
E3C0
E1C0
E1C0
E1C0
E1C0
E1C0
E1C0
E380
E380
FF00
FE00
1800
3C00
0C00
3800
ENDCHAR
STARTCHAR uni1E11
ENCODING 7697
SWIDTH 602 0
DWIDTH 11 0
BBX 10 18 1 -4
BITMAP
01C0
01C0
01C0
01C0
3DC0
7FC0
71C0
E1C0
E1C0
E1C0
F3C0
FFC0
7FC0
3DC0
0C00
1E00
0600
1C00
ENDCHAR
STARTCHAR uni1E12
ENCODING 7698
SWIDTH 602 0
DWIDTH 11 0
BBX 10 18 1 -4
BITMAP
FE00
FF80
E380
E3C0
E1C0
E1C0
E1C0
E1C0
E1C0
E1C0
E380
E380
FF00
FE00
0000
1800
3C00
6600
ENDCHAR
STARTCHAR uni1E13
ENCODING 7699
SWIDTH 602 0
DWIDTH 11 0
BBX 10 18 1 -4
BITMAP
01C0
01C0
01C0
01C0
3DC0
7FC0
71C0
E1C0
E1C0
E1C0
F3C0
FFC0
7FC0
3DC0
0000
0C00
1E00
3300
ENDCHAR
STARTCHAR uni1E14
ENCODING 7700
SWIDTH 602 0
DWIDTH 11 0
BBX 9 21 2 0
BITMAP
7000
3800
1C00
0000
3E00
3E00
0000
FF80
FF80
E000
E000
E000
E000
FF00
FF00
E000
E000
E000
E000
FF80
FF80
ENDCHAR
STARTCHAR uni1E15
ENCODING 7701
SWIDTH 602 0
DWIDTH 11 0
BBX 10 17 1 0
BITMAP
3800
1C00
0E00
0000
1F00
1F00
0000
1F00
7F80
7180
E1C0
FFC0
FFC0
E000
7040
7FC0
1F80
ENDCHAR
STARTCHAR uni1E16
ENCODING 7702
SWIDTH 602 0
DWIDTH 11 0
BBX 9 21 2 0
BITMAP
0700
0E00
1C00
0000
3E00
3E00
0000
FF80
FF80
E000
E000
E000
E000
FF00
FF00
E000
E000
E000
E000
FF80
FF80
ENDCHAR
STARTCHAR uni1E17
ENCODING 7703
SWIDTH 602 0
DWIDTH 11 0
BBX 10 17 1 0
BITMAP
0380
0700
0E00
0000
1F00
1F00
0000
1F00
7F80
7180
E1C0
FFC0
FFC0
E000
7040
7FC0
1F80
ENDCHAR
STARTCHAR uni1E18
ENCODING 7704
SWIDTH 602 0
DWIDTH 11 0
BBX 9 18 2 -4
BITMAP
FF80
FF80
E000
E000
E000
E000
FF00
FF00
E000
E000
E000
E000
FF80
FF80
0000
1800
3C00
6600
ENDCHAR
STARTCHAR uni1E19
ENCODING 7705
SWIDTH 602 0
DWIDTH 11 0
BBX 10 14 1 -4
BITMAP
1F00
7F80
7180
E1C0
FFC0
FFC0
E000
7040
7FC0
1F80
0000
0C00
1E00
3300
ENDCHAR
STARTCHAR uni1E1A
ENCODING 7706
SWIDTH 602 0
DWIDTH 11 0
BBX 9 18 2 -4
BITMAP
FF80
FF80
E000
E000
E000
E000
FF00
FF00
E000
E000
E000
E000
FF80
FF80
0000
3600
7E00
6C00
ENDCHAR
STARTCHAR uni1E1B
ENCODING 7707
SWIDTH 602 0
DWIDTH 11 0
BBX 10 14 1 -4
BITMAP
1F00
7F80
7180
E1C0
FFC0
FFC0
E000
7040
7FC0
1F80
0000
1B00
3F00
3600
ENDCHAR
STARTCHAR uni1E1C
ENCODING 7708
SWIDTH 602 0
DWIDTH 11 0
BBX 9 22 2 -4
BITMAP
6600
7E00
3C00
0000
FF80
FF80
E000
E000
E000
E000
FF00
FF00
E000
E000
E000
E000
FF80
FF80
1800
3C00
0C00
3800
ENDCHAR
STARTCHAR uni1E1D
ENCODING 7709
SWIDTH 602 0
DWIDTH 11 0
BBX 10 18 1 -4
BITMAP
3300
3F00
1E00
0000
1F00
7F80
7180
E1C0
FFC0
FFC0
E000
7040
7FC0
1F80
0C00
1E00
0600
1C00
ENDCHAR
STARTCHAR uni1E1E
ENCODING 7710
SWIDTH 602 0
DWIDTH 11 0
BBX 10 17 1 0
BITMAP
1800
1800
0000
FFC0
FFC0
E000
E000
E000
E000
FF80
FF80
E000
E000
E000
E000
E000
E000
ENDCHAR
STARTCHAR uni1E1F
ENCODING 7711
SWIDTH 602 0
DWIDTH 11 0
BBX 10 17 2 0
BITMAP
0C00
0C00
0000
0FC0
3FC0
3840
3800
FF80
FF80
3800
3800
3800
3800
3800
3800
3800
3800
ENDCHAR
STARTCHAR uni1E20
ENCODING 7712
SWIDTH 602 0
DWIDTH 11 0
BBX 11 17 0 0
BITMAP
1F00
1F00
0000
0FE0
3FE0
7820
7000
E000
E000
E000
E0E0
E0E0
E0E0
70E0
78E0
3FE0
0FC0
ENDCHAR
STARTCHAR uni1E21
ENCODING 7713
SWIDTH 602 0
DWIDTH 11 0
BBX 10 17 1 -4
BITMAP
1F00
1F00
0000
3CC0
7FC0
F3C0
E1C0
E1C0
E1C0
F3C0
FFC0
7FC0
3DC0
01C0
4380
7F80
3E00
ENDCHAR
STARTCHAR uni1E22
ENCODING 7714
SWIDTH 602 0
DWIDTH 11 0
BBX 10 17 1 0
BITMAP
0C00
0C00
0000
E1C0
E1C0
E1C0
E1C0
E1C0
E1C0
FFC0
FFC0
E1C0
E1C0
E1C0
E1C0
E1C0
E1C0
ENDCHAR
STARTCHAR uni1E23
ENCODING 7715
SWIDTH 602 0
DWIDTH 11 0
BBX 9 17 1 0
BITMAP
3000
3000
0000
E000
E000
E000
E000
EF00
FF80
FF80
F380
E380
E380
E380
E380
E380
E380
ENDCHAR
STARTCHAR uni1E24
ENCODING 7716
SWIDTH 602 0
DWIDTH 11 0
BBX 10 17 1 -3
BITMAP
E1C0
E1C0
E1C0
E1C0
E1C0
E1C0
FFC0
FFC0
E1C0
E1C0
E1C0
E1C0
E1C0
E1C0
0000
0C00
0C00
ENDCHAR
STARTCHAR uni1E25
ENCODING 7717
SWIDTH 602 0
DWIDTH 11 0
BBX 9 17 1 -3
BITMAP
E000
E000
E000
E000
EF00
FF80
FF80
F380
E380
E380
E380
E380
E380
E380
0000
0C00
0C00
ENDCHAR
STARTCHAR uni1E26
ENCODING 7718
SWIDTH 602 0
DWIDTH 11 0
BBX 10 17 1 0
BITMAP
1B00
1B00
0000
E1C0
E1C0
E1C0
E1C0
E1C0
E1C0
FFC0
FFC0
E1C0
E1C0
E1C0
E1C0
E1C0
E1C0
ENDCHAR
STARTCHAR uni1E27
ENCODING 7719
SWIDTH 602 0
DWIDTH 11 0
BBX 9 17 1 0
BITMAP
D800
D800
0000
E000
E000
E000
E000
EF00
FF80
FF80
F380
E380
E380
E380
E380
E380
E380
ENDCHAR
STARTCHAR uni1E28
ENCODING 7720
SWIDTH 602 0
DWIDTH 11 0
BBX 10 18 1 -4
BITMAP
E1C0
E1C0
E1C0
E1C0
E1C0
E1C0
FFC0
FFC0
E1C0
E1C0
E1C0
E1C0
E1C0
E1C0
0C00
1E00
0600
1C00
ENDCHAR
STARTCHAR uni1E29
ENCODING 7721
SWIDTH 602 0
DWIDTH 11 0
BBX 9 18 1 -4
BITMAP
E000
E000
E000
E000
EF00
FF80
FF80
F380
E380
E380
E380
E380
E380
E380
0C00
1E00
0600
1C00
ENDCHAR
STARTCHAR uni1E2A
ENCODING 7722
SWIDTH 602 0
DWIDTH 11 0
BBX 10 18 1 -4
BITMAP
E1C0
E1C0
E1C0
E1C0
E1C0
E1C0
FFC0
FFC0
E1C0
E1C0
E1C0
E1C0
E1C0
E1C0
0000
3300
3F00
1E00
ENDCHAR
STARTCHAR uni1E2B
ENCODING 7723
SWIDTH 602 0
DWIDTH 11 0
BBX 9 18 1 -4
BITMAP
E000
E000
E000
E000
EF00
FF80
FF80
F380
E380
E380
E380
E380
E380
E380
0000
3300
3F00
1E00
ENDCHAR
STARTCHAR uni1E2C
ENCODING 7724
SWIDTH 602 0
DWIDTH 11 0
BBX 9 18 1 -4
BITMAP
FF80
FF80
1C00
1C00
1C00
1C00
1C00
1C00
1C00
1C00
1C00
1C00
FF80
FF80
0000
3600
7E00
6C00
ENDCHAR
STARTCHAR uni1E2D
ENCODING 7725
SWIDTH 602 0
DWIDTH 11 0
BBX 8 18 2 -4
BITMAP
0E
0E
0E
00
FE
FE
0E
0E
0E
0E
0E
0E
0E
0E
00
1B
3F
36
ENDCHAR
STARTCHAR uni1E2E
ENCODING 7726
SWIDTH 602 0
DWIDTH 11 0
BBX 9 21 1 0
BITMAP
0700
0E00
1C00
0000
3600
3600
0000
FF80
FF80
1C00
1C00
1C00
1C00
1C00
1C00
1C00
1C00
1C00
1C00
FF80
FF80
ENDCHAR
STARTCHAR uni1E2F
ENCODING 7727
SWIDTH 602 0
DWIDTH 11 0
BBX 7 17 2 0
BITMAP
0E
1C
38
00
36
36
00
FE
FE
0E
0E
0E
0E
0E
0E
0E
0E
ENDCHAR
STARTCHAR uni1E30
ENCODING 7728
SWIDTH 602 0
DWIDTH 11 0
BBX 10 18 1 0
BITMAP
0700
0E00
1C00
0000
E1C0
E380
E300
E600
EE00
EC00
FC00
FC00
FE00
EF00
E700
E780
E380
E3C0
ENDCHAR
STARTCHAR uni1E31
ENCODING 7729
SWIDTH 602 0
DWIDTH 11 0
BBX 10 18 1 0
BITMAP
1C00
3800
7000
0000
E000
E000
E000
E000
E380
E700
E600
EC00
FC00
EE00
EF00
E700
E380
E3C0
ENDCHAR
STARTCHAR uni1E32
ENCODING 7730
SWIDTH 602 0
DWIDTH 11 0
BBX 10 17 1 -3
BITMAP
E1C0
E380
E300
E600
EE00
EC00
FC00
FC00
FE00
EF00
E700
E780
E380
E3C0
0000
0C00
0C00
ENDCHAR
STARTCHAR uni1E33
ENCODING 7731
SWIDTH 602 0
DWIDTH 11 0
BBX 10 17 1 -3
BITMAP
E000
E000
E000
E000
E380
E700
E600
EC00
FC00
EE00
EF00
E700
E380
E3C0
0000
0C00
0C00
ENDCHAR
STARTCHAR uni1E34
ENCODING 7732
SWIDTH 602 0
DWIDTH 11 0
BBX 10 17 1 -3
BITMAP
E1C0
E380
E300
E600
EE00
EC00
FC00
FC00
FE00
EF00
E700
E780
E380
E3C0
0000
3E00
3E00
ENDCHAR
STARTCHAR uni1E35
ENCODING 7733
SWIDTH 602 0
DWIDTH 11 0
BBX 10 17 1 -3
BITMAP
E000
E000
E000
E000
E380
E700
E600
EC00
FC00
EE00
EF00
E700
E380
E3C0
0000
3E00
3E00
ENDCHAR
STARTCHAR uni1E36
ENCODING 7734
SWIDTH 602 0
DWIDTH 11 0
BBX 9 17 2 -3
BITMAP
E000
E000
E000
E000
E000
E000
E000
E000
E000
E000
E000
E000
FF80
FF80
0000
1800
1800
ENDCHAR
STARTCHAR uni1E37
ENCODING 7735
SWIDTH 602 0
DWIDTH 11 0
BBX 7 17 1 -3
BITMAP
FE
FE
0E
0E
0E
0E
0E
0E
0E
0E
0E
0E
0E
0E
00
0C
0C
ENDCHAR
STARTCHAR uni1E38
ENCODING 7736
SWIDTH 602 0
DWIDTH 11 0
BBX 9 20 2 -3
BITMAP
F800
F800
0000
E000
E000
E000
E000
E000
E000
E000
E000
E000
E000
E000
E000
FF80
FF80
0000
1800
1800
ENDCHAR
STARTCHAR uni1E39
ENCODING 7737
SWIDTH 602 0
DWIDTH 11 0
BBX 7 20 1 -3
BITMAP
3E
3E
00
FE
FE
0E
0E
0E
0E
0E
0E
0E
0E
0E
0E
0E
0E
00
0C
0C
ENDCHAR
STARTCHAR uni1E3A
ENCODING 7738
SWIDTH 602 0
DWIDTH 11 0
BBX 9 17 2 -3
BITMAP
E000
E000
E000
E000
E000
E000
E000
E000
E000
E000
E000
E000
FF80
FF80
0000
3E00
3E00
ENDCHAR
STARTCHAR uni1E3B
ENCODING 7739
SWIDTH 602 0
DWIDTH 11 0
BBX 7 17 1 -3
BITMAP
FE
FE
0E
0E
0E
0E
0E
0E
0E
0E
0E
0E
0E
0E
00
3E
3E
ENDCHAR
STARTCHAR uni1E3C
ENCODING 7740
SWIDTH 602 0
DWIDTH 11 0
BBX 9 18 2 -4
BITMAP
E000
E000
E000
E000
E000
E000
E000
E000
E000
E000
E000
E000
FF80
FF80
0000
1800
3C00
6600
ENDCHAR
STARTCHAR uni1E3D
ENCODING 7741
SWIDTH 602 0
DWIDTH 11 0
BBX 8 18 1 -4
BITMAP
FE
FE
0E
0E
0E
0E
0E
0E
0E
0E
0E
0E
0E
0E
00
0C
1E
33
ENDCHAR
STARTCHAR uni1E3E
ENCODING 7742
SWIDTH 602 0
DWIDTH 11 0
BBX 10 18 1 0
BITMAP
0700
0E00
1C00
0000
E3C0
F3C0
F3C0
F3C0
F7C0
F7C0
F7C0
DFC0
DFC0
DDC0
DDC0
DDC0
DDC0
C1C0
ENDCHAR
STARTCHAR uni1E3F
ENCODING 7743
SWIDTH 602 0
DWIDTH 11 0
BBX 11 14 0 0
BITMAP
0380
0700
0E00
0000
ECE0
FFE0
FFE0
EEE0
EEE0
EEE0
EEE0
EEE0
EEE0
EEE0
ENDCHAR
STARTCHAR uni1E40
ENCODING 7744
SWIDTH 602 0
DWIDTH 11 0
BBX 10 17 1 0
BITMAP
0C00
0C00
0000
E3C0
F3C0
F3C0
F3C0
F7C0
F7C0
F7C0
DFC0
DFC0
DDC0
DDC0
DDC0
DDC0
C1C0
ENDCHAR
STARTCHAR uni1E41
ENCODING 7745
SWIDTH 602 0
DWIDTH 11 0
BBX 11 13 0 0
BITMAP
0C00
0C00
0000
ECE0
FFE0
FFE0
EEE0
EEE0
EEE0
EEE0
EEE0
EEE0
EEE0
ENDCHAR
STARTCHAR uni1E42
ENCODING 7746
SWIDTH 602 0
DWIDTH 11 0
BBX 10 17 1 -3
BITMAP
E3C0
F3C0
F3C0
F3C0
F7C0
F7C0
F7C0
DFC0
DFC0
DDC0
DDC0
DDC0
DDC0
C1C0
0000
0C00
0C00
ENDCHAR
STARTCHAR uni1E43
ENCODING 7747
SWIDTH 602 0
DWIDTH 11 0
BBX 11 13 0 -3
BITMAP
ECE0
FFE0
FFE0
EEE0
EEE0
EEE0
EEE0
EEE0
EEE0
EEE0
0000
0600
0600
ENDCHAR
STARTCHAR uni1E44
ENCODING 7748
SWIDTH 602 0
DWIDTH 11 0
BBX 9 17 1 0
BITMAP
1800
1800
0000
E180
F180
F180
F980
F980
FD80
DD80
DD80
CF80
CF80
C780
C780
C380
C380
ENDCHAR
STARTCHAR uni1E45
ENCODING 7749
SWIDTH 602 0
DWIDTH 11 0
BBX 9 13 1 0
BITMAP
1800
1800
0000
EF00
FF80
FF80
F380
E380
E380
E380
E380
E380
E380
ENDCHAR
STARTCHAR uni1E46
ENCODING 7750
SWIDTH 602 0
DWIDTH 11 0
BBX 9 17 1 -3
BITMAP
E180
F180
F180
F980
F980
FD80
DD80
DD80
CF80
CF80
C780
C780
C380
C380
0000
0C00
0C00
ENDCHAR
STARTCHAR uni1E47
ENCODING 7751
SWIDTH 602 0
DWIDTH 11 0
BBX 9 13 1 -3
BITMAP
EF00
FF80
FF80
F380
E380
E380
E380
E380
E380
E380
0000
0C00
0C00
ENDCHAR
STARTCHAR uni1E48
ENCODING 7752
SWIDTH 602 0
DWIDTH 11 0
BBX 9 17 1 -3
BITMAP
E180
F180
F180
F980
F980
FD80
DD80
DD80
CF80
CF80
C780
C780
C380
C380
0000
3E00
3E00
ENDCHAR
STARTCHAR uni1E49
ENCODING 7753
SWIDTH 602 0
DWIDTH 11 0
BBX 9 13 1 -3
BITMAP
EF00
FF80
FF80
F380
E380
E380
E380
E380
E380
E380
0000
3E00
3E00
ENDCHAR
STARTCHAR uni1E4A
ENCODING 7754
SWIDTH 602 0
DWIDTH 11 0
BBX 9 18 1 -4
BITMAP
E180
F180
F180
F980
F980
FD80
DD80
DD80
CF80
CF80
C780
C780
C380
C380
0000
0C00
1E00
3300
ENDCHAR
STARTCHAR uni1E4B
ENCODING 7755
SWIDTH 602 0
DWIDTH 11 0
BBX 9 14 1 -4
BITMAP
EF00
FF80
FF80
F380
E380
E380
E380
E380
E380
E380
0000
0C00
1E00
3300
ENDCHAR
STARTCHAR uni1E4C
ENCODING 7756
SWIDTH 602 0
DWIDTH 11 0
BBX 11 22 0 0
BITMAP
0700
0E00
1C00
0000
1B00
3F00
3600
0000
1F00
3F80
71C0
60C0
E0E0
E0E0
E0E0
E0E0
E0E0
E0E0
60C0
71C0
3F80
1F00
ENDCHAR
STARTCHAR uni1E4D
ENCODING 7757
SWIDTH 602 0
DWIDTH 11 0
BBX 11 18 0 0
BITMAP
0380
0700
0E00
0000
0D80
1F80
1B00
0000
1F00
7FC0
71C0
E0E0
E0E0
E0E0
E0E0
71C0
7FC0
1F00
ENDCHAR
STARTCHAR uni1E4E
ENCODING 7758
SWIDTH 602 0
DWIDTH 11 0
BBX 11 21 0 0
BITMAP
1B00
1B00
0000
1B00
3F00
3600
0000
1F00
3F80
71C0
60C0
E0E0
E0E0
E0E0
E0E0
E0E0
E0E0
60C0
71C0
3F80
1F00
ENDCHAR
STARTCHAR uni1E4F
ENCODING 7759
SWIDTH 602 0
DWIDTH 11 0
BBX 11 17 0 0
BITMAP
1B00
1B00
0000
0D80
1F80
1B00
0000
1F00
7FC0
71C0
E0E0
E0E0
E0E0
E0E0
71C0
7FC0
1F00
ENDCHAR
STARTCHAR uni1E50
ENCODING 7760
SWIDTH 602 0
DWIDTH 11 0
BBX 11 21 0 0
BITMAP
3800
1C00
0E00
0000
1F00
1F00
0000
1F00
3F80
71C0
60C0
E0E0
E0E0
E0E0
E0E0
E0E0
E0E0
60C0
71C0
3F80
1F00
ENDCHAR
STARTCHAR uni1E51
ENCODING 7761
SWIDTH 602 0
DWIDTH 11 0
BBX 11 17 0 0
BITMAP
3800
1C00
0E00
0000
1F00
1F00
0000
1F00
7FC0
71C0
E0E0
E0E0
E0E0
E0E0
71C0
7FC0
1F00
ENDCHAR
STARTCHAR uni1E52
ENCODING 7762
SWIDTH 602 0
DWIDTH 11 0
BBX 11 21 0 0
BITMAP
0380
0700
0E00
0000
1F00
1F00
0000
1F00
3F80
71C0
60C0
E0E0
E0E0
E0E0
E0E0
E0E0
E0E0
60C0
71C0
3F80
1F00
ENDCHAR
STARTCHAR uni1E53
ENCODING 7763
SWIDTH 602 0
DWIDTH 11 0
BBX 11 17 0 0
BITMAP
0380
0700
0E00
0000
1F00
1F00
0000
1F00
7FC0
71C0
E0E0
E0E0
E0E0
E0E0
71C0
7FC0
1F00
ENDCHAR
STARTCHAR uni1E54
ENCODING 7764
SWIDTH 602 0
DWIDTH 11 0
BBX 10 18 1 0
BITMAP
0700
0E00
1C00
0000
FF00
FF80
E1C0
E1C0
E1C0
E1C0
E3C0
FF80
FF00
E000
E000
E000
E000
E000
ENDCHAR
STARTCHAR uni1E55
ENCODING 7765
SWIDTH 602 0
DWIDTH 11 0
BBX 10 18 1 -4
BITMAP
0700
0E00
1C00
0000
EF00
FF80
FFC0
F3C0
E1C0
E1C0
E1C0
E380
FF80
EF00
E000
E000
E000
E000
ENDCHAR
STARTCHAR uni1E56
ENCODING 7766
SWIDTH 602 0
DWIDTH 11 0
BBX 10 17 1 0
BITMAP
0C00
0C00
0000
FF00
FF80
E1C0
E1C0
E1C0
E1C0
E3C0
FF80
FF00
E000
E000
E000
E000
E000
ENDCHAR
STARTCHAR uni1E57
ENCODING 7767
SWIDTH 602 0
DWIDTH 11 0
BBX 10 17 1 -4
BITMAP
0C00
0C00
0000
EF00
FF80
FFC0
F3C0
E1C0
E1C0
E1C0
E380
FF80
EF00
E000
E000
E000
E000
ENDCHAR
STARTCHAR uni1E58
ENCODING 7768
SWIDTH 602 0
DWIDTH 11 0
BBX 10 17 1 0
BITMAP
1800
1800
0000
FE00
FF00
E380
E380
E380
E380
E700
FC00
FE00
EF00
E700
E780
E380
E1C0
ENDCHAR
STARTCHAR uni1E59
ENCODING 7769
SWIDTH 602 0
DWIDTH 11 0
BBX 9 13 2 0
BITMAP
0C00
0C00
0000
E780
FF80
FF80
F180
E000
E000
E000
E000
E000
E000
ENDCHAR
STARTCHAR uni1E5A
ENCODING 7770
SWIDTH 602 0
DWIDTH 11 0
BBX 10 17 1 -3
BITMAP
FE00
FF00
E380
E380
E380
E380
E700
FC00
FE00
EF00
E700
E780
E380
E1C0
0000
0C00
0C00
ENDCHAR
STARTCHAR uni1E5B
ENCODING 7771
SWIDTH 602 0
DWIDTH 11 0
BBX 9 13 2 -3
BITMAP
E780
FF80
FF80
F180
E000
E000
E000
E000
E000
E000
0000
3000
3000
ENDCHAR
STARTCHAR uni1E5C
ENCODING 7772
SWIDTH 602 0
DWIDTH 11 0
BBX 10 20 1 -3
BITMAP
3E00
3E00
0000
FE00
FF00
E380
E380
E380
E380
E700
FC00
FE00
EF00
E700
E780
E380
E1C0
0000
0C00
0C00
ENDCHAR
STARTCHAR uni1E5D
ENCODING 7773
SWIDTH 602 0
DWIDTH 11 0
BBX 9 16 2 -3
BITMAP
3E00
3E00
0000
E780
FF80
FF80
F180
E000
E000
E000
E000
E000
E000
0000
3000
3000
ENDCHAR
STARTCHAR uni1E5E
ENCODING 7774
SWIDTH 602 0
DWIDTH 11 0
BBX 10 17 1 -3
BITMAP
FE00
FF00
E380
E380
E380
E380
E700
FC00
FE00
EF00
E700
E780
E380
E1C0
0000
3E00
3E00
ENDCHAR
STARTCHAR uni1E5F
ENCODING 7775
SWIDTH 602 0
DWIDTH 11 0
BBX 9 13 2 -3
BITMAP
E780
FF80
FF80
F180
E000
E000
E000
E000
E000
E000
0000
F800
F800
ENDCHAR
STARTCHAR uni1E60
ENCODING 7776
SWIDTH 602 0
DWIDTH 11 0
BBX 10 17 1 0
BITMAP
0C00
0C00
0000
3F80
7F80
E080
E000
F000
FC00
3F00
1F80
07C0
01C0
01C0
83C0
FF80
FE00
ENDCHAR
STARTCHAR uni1E61
ENCODING 7777
SWIDTH 602 0
DWIDTH 11 0
BBX 9 13 1 0
BITMAP
1800
1800
0000
3F00
7F00
E100
F800
FF00
3F80
0780
8380
FF00
7E00
ENDCHAR
STARTCHAR uni1E62
ENCODING 7778
SWIDTH 602 0
DWIDTH 11 0
BBX 10 17 1 -3
BITMAP
3F80
7F80
E080
E000
F000
FC00
3F00
1F80
07C0
01C0
01C0
83C0
FF80
FE00
0000
0C00
0C00
ENDCHAR
STARTCHAR uni1E63
ENCODING 7779
SWIDTH 602 0
DWIDTH 11 0
BBX 9 13 1 -3
BITMAP
3F00
7F00
E100
F800
FF00
3F80
0780
8380
FF00
7E00
0000
1800
1800
ENDCHAR
STARTCHAR uni1E64
ENCODING 7780
SWIDTH 602 0
DWIDTH 11 0
BBX 10 21 1 0
BITMAP
0C00
0C00
0000
0700
0E00
1C00
0000
3F80
7F80
E080
E000
F000
FC00
3F00
1F80
07C0
01C0
01C0
83C0
FF80
FE00
ENDCHAR
STARTCHAR uni1E65
ENCODING 7781
SWIDTH 602 0
DWIDTH 11 0
BBX 9 17 1 0
BITMAP
0C00
0C00
0000
0700
0E00
1C00
0000
3F00
7F00
E100
F800
FF00
3F80
0780
8380
FF00
7E00
ENDCHAR
STARTCHAR uni1E66
ENCODING 7782
SWIDTH 602 0
DWIDTH 11 0
BBX 10 21 1 0
BITMAP
0C00
0C00
0000
3300
1E00
0C00
0000
3F80
7F80
E080
E000
F000
FC00
3F00
1F80
07C0
01C0
01C0
83C0
FF80
FE00
ENDCHAR
STARTCHAR uni1E67
ENCODING 7783
SWIDTH 602 0
DWIDTH 11 0
BBX 9 17 1 0
BITMAP
1800
1800
0000
6600
3C00
1800
0000
3F00
7F00
E100
F800
FF00
3F80
0780
8380
FF00
7E00
ENDCHAR
STARTCHAR uni1E68
ENCODING 7784
SWIDTH 602 0
DWIDTH 11 0
BBX 10 20 1 -3
BITMAP
1800
1800
0000
3F80
7F80
E080
E000
F000
FC00
3F00
1F80
07C0
01C0
01C0
83C0
FF80
FE00
0000
0C00
0C00
ENDCHAR
STARTCHAR uni1E69
ENCODING 7785
SWIDTH 602 0
DWIDTH 11 0
BBX 9 16 1 -3
BITMAP
1800
1800
0000
3F00
7F00
E100
F800
FF00
3F80
0780
8380
FF00
7E00
0000
1800
1800
ENDCHAR
STARTCHAR uni1E6A
ENCODING 7786
SWIDTH 602 0
DWIDTH 11 0
BBX 11 17 0 0
BITMAP
0600
0600
0000
FFE0
FFE0
0E00
0E00
0E00
0E00
0E00
0E00
0E00
0E00
0E00
0E00
0E00
0E00
ENDCHAR
STARTCHAR uni1E6B
ENCODING 7787
SWIDTH 602 0
DWIDTH 11 0
BBX 9 16 1 0
BITMAP
1800
1800
0000
3800
3800
3800
FF80
FF80
3800
3800
3800
3800
3800
3800
1F80
0F80
ENDCHAR
STARTCHAR uni1E6C
ENCODING 7788
SWIDTH 602 0
DWIDTH 11 0
BBX 11 17 0 -3
BITMAP
FFE0
FFE0
0E00
0E00
0E00
0E00
0E00
0E00
0E00
0E00
0E00
0E00
0E00
0E00
0000
0600
0600
ENDCHAR
STARTCHAR uni1E6D
ENCODING 7789
SWIDTH 602 0
DWIDTH 11 0
BBX 9 16 1 -3
BITMAP
3800
3800
3800
FF80
FF80
3800
3800
3800
3800
3800
3800
1F80
0F80
0000
0C00
0C00
ENDCHAR
STARTCHAR uni1E6E
ENCODING 7790
SWIDTH 602 0
DWIDTH 11 0
BBX 11 17 0 -3
BITMAP
FFE0
FFE0
0E00
0E00
0E00
0E00
0E00
0E00
0E00
0E00
0E00
0E00
0E00
0E00
0000
1F00
1F00
ENDCHAR
STARTCHAR uni1E6F
ENCODING 7791
SWIDTH 602 0
DWIDTH 11 0
BBX 9 16 1 -3
BITMAP
3800
3800
3800
FF80
FF80
3800
3800
3800
3800
3800
3800
1F80
0F80
0000
1F00
1F00
ENDCHAR
STARTCHAR uni1E70
ENCODING 7792
SWIDTH 602 0
DWIDTH 11 0
BBX 11 18 0 -4
BITMAP
FFE0
FFE0
0E00
0E00
0E00
0E00
0E00
0E00
0E00
0E00
0E00
0E00
0E00
0E00
0000
0600
0F00
1980
ENDCHAR
STARTCHAR uni1E71
ENCODING 7793
SWIDTH 602 0
DWIDTH 11 0
BBX 9 17 1 -4
BITMAP
3800
3800
3800
FF80
FF80
3800
3800
3800
3800
3800
3800
1F80
0F80
0000
0C00
1E00
3300
ENDCHAR
STARTCHAR uni1E72
ENCODING 7794
SWIDTH 602 0
DWIDTH 11 0
BBX 9 17 1 -3
BITMAP
E380
E380
E380
E380
E380
E380
E380
E380
E380
E380
E380
E380
7F00
3E00
0000
3600
3600
ENDCHAR
STARTCHAR uni1E73
ENCODING 7795
SWIDTH 602 0
DWIDTH 11 0
BBX 9 13 1 -3
BITMAP
E380
E380
E380
E380
E380
E380
E780
FF80
FF80
7B80
0000
3600
3600
ENDCHAR
STARTCHAR uni1E74
ENCODING 7796
SWIDTH 602 0
DWIDTH 11 0
BBX 9 18 1 -4
BITMAP
E380
E380
E380
E380
E380
E380
E380
E380
E380
E380
E380
E380
7F00
3E00
0000
3600
7E00
6C00
ENDCHAR
STARTCHAR uni1E75
ENCODING 7797
SWIDTH 602 0
DWIDTH 11 0
BBX 9 14 1 -4
BITMAP
E380
E380
E380
E380
E380
E380
E780
FF80
FF80
7B80
0000
3600
7E00
6C00
ENDCHAR
STARTCHAR uni1E76
ENCODING 7798
SWIDTH 602 0
DWIDTH 11 0
BBX 9 18 1 -4
BITMAP
E380
E380
E380
E380
E380
E380
E380
E380
E380
E380
E380
E380
7F00
3E00
0000
0C00
1E00
3300
ENDCHAR
STARTCHAR uni1E77
ENCODING 7799
SWIDTH 602 0
DWIDTH 11 0
BBX 9 14 1 -4
BITMAP
E380
E380
E380
E380
E380
E380
E780
FF80
FF80
7B80
0000
0C00
1E00
3300
ENDCHAR
STARTCHAR uni1E78
ENCODING 7800
SWIDTH 602 0
DWIDTH 11 0
BBX 9 22 1 0
BITMAP
0700
0E00
1C00
0000
1B00
3F00
3600
0000
E380
E380
E380
E380
E380
E380
E380
E380
E380
E380
E380
E380
7F00
3E00
ENDCHAR
STARTCHAR uni1E79
ENCODING 7801
SWIDTH 602 0
DWIDTH 11 0
BBX 9 18 1 0
BITMAP
0700
0E00
1C00
0000
1B00
3F00
3600
0000
E380
E380
E380
E380
E380
E380
E780
FF80
FF80
7B80
ENDCHAR
STARTCHAR uni1E7A
ENCODING 7802
SWIDTH 602 0
DWIDTH 11 0
BBX 9 20 1 0
BITMAP
3600
3600
0000
3E00
3E00
0000
E380
E380
E380
E380
E380
E380
E380
E380
E380
E380
E380
E380
7F00
3E00
ENDCHAR
STARTCHAR uni1E7B
ENCODING 7803
SWIDTH 602 0
DWIDTH 11 0
BBX 9 16 1 0
BITMAP
3600
3600
0000
3E00
3E00
0000
E380
E380
E380
E380
E380
E380
E780
FF80
FF80
7B80
ENDCHAR
STARTCHAR uni1E7C
ENCODING 7804
SWIDTH 602 0
DWIDTH 11 0
BBX 11 18 0 0
BITMAP
0D80
1F80
1B00
0000
E060
E0E0
70C0
70C0
70C0
7980
3980
3980
3B00
1F00
1F00
1F00
1E00
0E00
ENDCHAR
STARTCHAR uni1E7D
ENCODING 7805
SWIDTH 602 0
DWIDTH 11 0
BBX 11 14 0 0
BITMAP
1B00
3F00
3600
0000
E060
F0C0
70C0
79C0
3980
3980
1F00
1F00
1F00
0E00
ENDCHAR
STARTCHAR uni1E7E
ENCODING 7806
SWIDTH 602 0
DWIDTH 11 0
BBX 11 17 0 -3
BITMAP
E060
E0E0
70C0
70C0
70C0
7980
3980
3980
3B00
1F00
1F00
1F00
1E00
0E00
0000
0C00
0C00
ENDCHAR
STARTCHAR uni1E7F
ENCODING 7807
SWIDTH 602 0
DWIDTH 11 0
BBX 11 13 0 -3
BITMAP
E060
F0C0
70C0
79C0
3980
3980
1F00
1F00
1F00
0E00
0000
0600
0600
ENDCHAR
STARTCHAR Wgrave
ENCODING 7808
SWIDTH 602 0
DWIDTH 11 0
BBX 11 18 0 0
BITMAP
3800
1C00
0E00
0000
E060
EE60
EE60
EE60
6F40
7FC0
7FC0
7FC0
7FC0
7FC0
7BC0
7B80
3380
3380
ENDCHAR
STARTCHAR wgrave
ENCODING 7809
SWIDTH 602 0
DWIDTH 11 0
BBX 11 14 0 0
BITMAP
3800
1C00
0E00
0000
E060
EE60
EE60
6F40
7FC0
7FC0
7BC0
7BC0
79C0
3180
ENDCHAR
STARTCHAR Wacute
ENCODING 7810
SWIDTH 602 0
DWIDTH 11 0
BBX 11 18 0 0
BITMAP
0700
0E00
1C00
0000
E060
EE60
EE60
EE60
6F40
7FC0
7FC0
7FC0
7FC0
7FC0
7BC0
7B80
3380
3380
ENDCHAR
STARTCHAR wacute
ENCODING 7811
SWIDTH 602 0
DWIDTH 11 0
BBX 11 14 0 0
BITMAP
0700
0E00
1C00
0000
E060
EE60
EE60
6F40
7FC0
7FC0
7BC0
7BC0
79C0
3180
ENDCHAR
STARTCHAR Wdieresis
ENCODING 7812
SWIDTH 602 0
DWIDTH 11 0
BBX 11 17 0 0
BITMAP
1B00
1B00
0000
E060
EE60
EE60
EE60
6F40
7FC0
7FC0
7FC0
7FC0
7FC0
7BC0
7B80
3380
3380
ENDCHAR
STARTCHAR wdieresis
ENCODING 7813
SWIDTH 602 0
DWIDTH 11 0
BBX 11 13 0 0
BITMAP
1B00
1B00
0000
E060
EE60
EE60
6F40
7FC0
7FC0
7BC0
7BC0
79C0
3180
ENDCHAR
STARTCHAR uni1E86
ENCODING 7814
SWIDTH 602 0
DWIDTH 11 0
BBX 11 17 0 0
BITMAP
0C00
0C00
0000
E060
EE60
EE60
EE60
6F40
7FC0
7FC0
7FC0
7FC0
7FC0
7BC0
7B80
3380
3380
ENDCHAR
STARTCHAR uni1E87
ENCODING 7815
SWIDTH 602 0
DWIDTH 11 0
BBX 11 13 0 0
BITMAP
0C00
0C00
0000
E060
EE60
EE60
6F40
7FC0
7FC0
7BC0
7BC0
79C0
3180
ENDCHAR
STARTCHAR uni1E88
ENCODING 7816
SWIDTH 602 0
DWIDTH 11 0
BBX 11 17 0 -3
BITMAP
E060
EE60
EE60
EE60
6F40
7FC0
7FC0
7FC0
7FC0
7FC0
7BC0
7B80
3380
3380
0000
0C00
0C00
ENDCHAR
STARTCHAR uni1E89
ENCODING 7817
SWIDTH 602 0
DWIDTH 11 0
BBX 11 13 0 -3
BITMAP
E060
EE60
EE60
6F40
7FC0
7FC0
7BC0
7BC0
79C0
3180
0000
0C00
0C00
ENDCHAR
STARTCHAR uni1E8A
ENCODING 7818
SWIDTH 602 0
DWIDTH 11 0
BBX 11 17 0 0
BITMAP
0C00
0C00
0000
F0E0
70C0
7980
3B80
3F00
1F00
0E00
0F00
1F00
1F80
3380
73C0
61C0
E1E0
ENDCHAR
STARTCHAR uni1E8B
ENCODING 7819
SWIDTH 602 0
DWIDTH 11 0
BBX 10 13 1 0
BITMAP
0C00
0C00
0000
F1C0
7B80
3B00
3E00
1E00
1E00
3F00
3780
6380
E3C0
ENDCHAR
STARTCHAR uni1E8C
ENCODING 7820
SWIDTH 602 0
DWIDTH 11 0
BBX 11 17 0 0
BITMAP
1B00
1B00
0000
F0E0
70C0
7980
3B80
3F00
1F00
0E00
0F00
1F00
1F80
3380
73C0
61C0
E1E0
ENDCHAR
STARTCHAR uni1E8D
ENCODING 7821
SWIDTH 602 0
DWIDTH 11 0
BBX 10 13 1 0
BITMAP
3600
3600
0000
F1C0
7B80
3B00
3E00
1E00
1E00
3F00
3780
6380
E3C0
ENDCHAR
STARTCHAR uni1E8E
ENCODING 7822
SWIDTH 602 0
DWIDTH 11 0
BBX 11 17 0 0
BITMAP
0C00
0C00
0000
E060
70C0
70C0
3980
3980
1F00
1F00
0E00
0E00
0E00
0E00
0E00
0E00
0E00
ENDCHAR
STARTCHAR uni1E8F
ENCODING 7823
SWIDTH 602 0
DWIDTH 11 0
BBX 11 17 0 -4
BITMAP
0C00
0C00
0000
E060
70C0
70C0
3980
3980
3F80
1F00
1F00
0E00
0E00
0C00
0C00
7800
7000
ENDCHAR
STARTCHAR uni1E90
ENCODING 7824
SWIDTH 602 0
DWIDTH 11 0
BBX 10 18 1 0
BITMAP
0C00
1E00
3300
0000
FFC0
FFC0
03C0
0380
0700
0F00
0E00
1C00
3C00
3800
7800
F000
FFC0
FFC0
ENDCHAR
STARTCHAR uni1E91
ENCODING 7825
SWIDTH 602 0
DWIDTH 11 0
BBX 9 14 1 0
BITMAP
0C00
1E00
3300
0000
FF80
FF80
0780
0F00
1E00
3C00
7800
F000
FF80
FF80
ENDCHAR
STARTCHAR uni1E92
ENCODING 7826
SWIDTH 602 0
DWIDTH 11 0
BBX 10 17 1 -3
BITMAP
FFC0
FFC0
03C0
0380
0700
0F00
0E00
1C00
3C00
3800
7800
F000
FFC0
FFC0
0000
0C00
0C00
ENDCHAR
STARTCHAR uni1E93
ENCODING 7827
SWIDTH 602 0
DWIDTH 11 0
BBX 9 13 1 -3
BITMAP
FF80
FF80
0780
0F00
1E00
3C00
7800
F000
FF80
FF80
0000
1800
1800
ENDCHAR
STARTCHAR uni1E94
ENCODING 7828
SWIDTH 602 0
DWIDTH 11 0
BBX 10 17 1 -3
BITMAP
FFC0
FFC0
03C0
0380
0700
0F00
0E00
1C00
3C00
3800
7800
F000
FFC0
FFC0
0000
3E00
3E00
ENDCHAR
STARTCHAR uni1E95
ENCODING 7829
SWIDTH 602 0
DWIDTH 11 0
BBX 9 13 1 -3
BITMAP
FF80
FF80
0780
0F00
1E00
3C00
7800
F000
FF80
FF80
0000
3E00
3E00
ENDCHAR
STARTCHAR uni1E96
ENCODING 7830
SWIDTH 602 0
DWIDTH 11 0
BBX 9 17 1 -3
BITMAP
E000
E000
E000
E000
EF00
FF80
FF80
F380
E380
E380
E380
E380
E380
E380
0000
3E00
3E00
ENDCHAR
STARTCHAR uni1E97
ENCODING 7831
SWIDTH 602 0
DWIDTH 11 0
BBX 9 16 1 0
BITMAP
3600
3600
0000
3800
3800
3800
FF80
FF80
3800
3800
3800
3800
3800
3800
1F80
0F80
ENDCHAR
STARTCHAR uni1E98
ENCODING 7832
SWIDTH 602 0
DWIDTH 11 0
BBX 11 14 0 0
BITMAP
0E00
0A00
0E00
0000
E060
EE60
EE60
6F40
7FC0
7FC0
7BC0
7BC0
79C0
3180
ENDCHAR
STARTCHAR uni1E99
ENCODING 7833
SWIDTH 602 0
DWIDTH 11 0
BBX 11 18 0 -4
BITMAP
0E00
0A00
0E00
0000
E060
70C0
70C0
3980
3980
3F80
1F00
1F00
0E00
0E00
0C00
0C00
7800
7000
ENDCHAR
STARTCHAR uni1EA0
ENCODING 7840
SWIDTH 602 0
DWIDTH 11 0
BBX 11 17 0 -3
BITMAP
0E00
0F00
0F00
1F00
1F00
1B80
3380
3380
33C0
7FC0
7FC0
61C0
C0E0
C0E0
0000
0600
0600
ENDCHAR
STARTCHAR uni1EA1
ENCODING 7841
SWIDTH 602 0
DWIDTH 11 0
BBX 10 13 1 -3
BITMAP
3F00
7F80
4780
0380
3F80
FF80
E380
E380
FFC0
79C0
0000
0C00
0C00
ENDCHAR
STARTCHAR uni1EA4
ENCODING 7844
SWIDTH 602 0
DWIDTH 11 0
BBX 11 22 0 0
BITMAP
0700
0E00
1C00
0000
0C00
1E00
3300
0000
0E00
0F00
0F00
1F00
1F00
1B80
3380
3380
33C0
7FC0
7FC0
61C0
C0E0
C0E0
ENDCHAR
STARTCHAR uni1EA5
ENCODING 7845
SWIDTH 602 0
DWIDTH 11 0
BBX 10 18 1 0
BITMAP
0700
0E00
1C00
0000
0C00
1E00
3300
0000
3F00
7F80
4780
0380
3F80
FF80
E380
E380
FFC0
79C0
ENDCHAR
STARTCHAR uni1EA6
ENCODING 7846
SWIDTH 602 0
DWIDTH 11 0
BBX 11 22 0 0
BITMAP
3800
1C00
0E00
0000
0C00
1E00
3300
0000
0E00
0F00
0F00
1F00
1F00
1B80
3380
3380
33C0
7FC0
7FC0
61C0
C0E0
C0E0
ENDCHAR
STARTCHAR uni1EA7
ENCODING 7847
SWIDTH 602 0
DWIDTH 11 0
BBX 10 18 1 0
BITMAP
3800
1C00
0E00
0000
0C00
1E00
3300
0000
3F00
7F80
4780
0380
3F80
FF80
E380
E380
FFC0
79C0
ENDCHAR
STARTCHAR uni1EAA
ENCODING 7850
SWIDTH 602 0
DWIDTH 11 0
BBX 11 22 0 0
BITMAP
0D80
1F80
1B00
0000
0C00
1E00
3300
0000
0E00
0F00
0F00
1F00
1F00
1B80
3380
3380
33C0
7FC0
7FC0
61C0
C0E0
C0E0
ENDCHAR
STARTCHAR uni1EAB
ENCODING 7851
SWIDTH 602 0
DWIDTH 11 0
BBX 10 18 1 0
BITMAP
1B00
3F00
3600
0000
0C00
1E00
3300
0000
3F00
7F80
4780
0380
3F80
FF80
E380
E380
FFC0
79C0
ENDCHAR
STARTCHAR uni1EAC
ENCODING 7852
SWIDTH 602 0
DWIDTH 11 0
BBX 11 21 0 -3
BITMAP
0600
0F00
1980
0000
0E00
0F00
0F00
1F00
1F00
1B80
3380
3380
33C0
7FC0
7FC0
61C0
C0E0
C0E0
0000
0600
0600
ENDCHAR
STARTCHAR uni1EAD
ENCODING 7853
SWIDTH 602 0
DWIDTH 11 0
BBX 10 17 1 -3
BITMAP
0C00
1E00
3300
0000
3F00
7F80
4780
0380
3F80
FF80
E380
E380
FFC0
79C0
0000
0C00
0C00
ENDCHAR
STARTCHAR uni1EAE
ENCODING 7854
SWIDTH 602 0
DWIDTH 11 0
BBX 11 22 0 0
BITMAP
0380
0700
0E00
0000
1980
1F80
0F00
0000
0E00
0F00
0F00
1F00
1F00
1B80
3380
3380
33C0
7FC0
7FC0
61C0
C0E0
C0E0
ENDCHAR
STARTCHAR uni1EAF
ENCODING 7855
SWIDTH 602 0
DWIDTH 11 0
BBX 10 18 1 0
BITMAP
0700
0E00
1C00
0000
3300
3F00
1E00
0000
3F00
7F80
4780
0380
3F80
FF80
E380
E380
FFC0
79C0
ENDCHAR
STARTCHAR uni1EB0
ENCODING 7856
SWIDTH 602 0
DWIDTH 11 0
BBX 11 22 0 0
BITMAP
1C00
0E00
0700
0000
1980
1F80
0F00
0000
0E00
0F00
0F00
1F00
1F00
1B80
3380
3380
33C0
7FC0
7FC0
61C0
C0E0
C0E0
ENDCHAR
STARTCHAR uni1EB1
ENCODING 7857
SWIDTH 602 0
DWIDTH 11 0
BBX 10 18 1 0
BITMAP
3800
1C00
0E00
0000
3300
3F00
1E00
0000
3F00
7F80
4780
0380
3F80
FF80
E380
E380
FFC0
79C0
ENDCHAR
STARTCHAR uni1EB4
ENCODING 7860
SWIDTH 602 0
DWIDTH 11 0
BBX 11 22 0 0
BITMAP
0D80
1F80
1B00
0000
1980
1F80
0F00
0000
0E00
0F00
0F00
1F00
1F00
1B80
3380
3380
33C0
7FC0
7FC0
61C0
C0E0
C0E0
ENDCHAR
STARTCHAR uni1EB5
ENCODING 7861
SWIDTH 602 0
DWIDTH 11 0
BBX 10 18 1 0
BITMAP
1B00
3F00
3600
0000
3300
3F00
1E00
0000
3F00
7F80
4780
0380
3F80
FF80
E380
E380
FFC0
79C0
ENDCHAR
STARTCHAR uni1EB6
ENCODING 7862
SWIDTH 602 0
DWIDTH 11 0
BBX 11 21 0 -3
BITMAP
1980
1F80
0F00
0000
0E00
0F00
0F00
1F00
1F00
1B80
3380
3380
33C0
7FC0
7FC0
61C0
C0E0
C0E0
0000
0600
0600
ENDCHAR
STARTCHAR uni1EB7
ENCODING 7863
SWIDTH 602 0
DWIDTH 11 0
BBX 10 17 1 -3
BITMAP
3300
3F00
1E00
0000
3F00
7F80
4780
0380
3F80
FF80
E380
E380
FFC0
79C0
0000
0C00
0C00
ENDCHAR
STARTCHAR uni1EB8
ENCODING 7864
SWIDTH 602 0
DWIDTH 11 0
BBX 9 17 2 -3
BITMAP
FF80
FF80
E000
E000
E000
E000
FF00
FF00
E000
E000
E000
E000
FF80
FF80
0000
1800
1800
ENDCHAR
STARTCHAR uni1EB9
ENCODING 7865
SWIDTH 602 0
DWIDTH 11 0
BBX 10 13 1 -3
BITMAP
1F00
7F80
7180
E1C0
FFC0
FFC0
E000
7040
7FC0
1F80
0000
0C00
0C00
ENDCHAR
STARTCHAR uni1EBC
ENCODING 7868
SWIDTH 602 0
DWIDTH 11 0
BBX 9 18 2 0
BITMAP
3600
7E00
6C00
0000
FF80
FF80
E000
E000
E000
E000
FF00
FF00
E000
E000
E000
E000
FF80
FF80
ENDCHAR
STARTCHAR uni1EBD
ENCODING 7869
SWIDTH 602 0
DWIDTH 11 0
BBX 10 14 1 0
BITMAP
1B00
3F00
3600
0000
1F00
7F80
7180
E1C0
FFC0
FFC0
E000
7040
7FC0
1F80
ENDCHAR
STARTCHAR uni1EBE
ENCODING 7870
SWIDTH 602 0
DWIDTH 11 0
BBX 9 22 2 0
BITMAP
0700
0E00
1C00
0000
0C00
1E00
3300
0000
FF80
FF80
E000
E000
E000
E000
FF00
FF00
E000
E000
E000
E000
FF80
FF80
ENDCHAR
STARTCHAR uni1EBF
ENCODING 7871
SWIDTH 602 0
DWIDTH 11 0
BBX 10 18 1 0
BITMAP
0700
0E00
1C00
0000
0C00
1E00
3300
0000
1F00
7F80
7180
E1C0
FFC0
FFC0
E000
7040
7FC0
1F80
ENDCHAR
STARTCHAR uni1EC0
ENCODING 7872
SWIDTH 602 0
DWIDTH 11 0
BBX 9 22 2 0
BITMAP
3800
1C00
0E00
0000
0C00
1E00
3300
0000
FF80
FF80
E000
E000
E000
E000
FF00
FF00
E000
E000
E000
E000
FF80
FF80
ENDCHAR
STARTCHAR uni1EC1
ENCODING 7873
SWIDTH 602 0
DWIDTH 11 0
BBX 10 18 1 0
BITMAP
3800
1C00
0E00
0000
0C00
1E00
3300
0000
1F00
7F80
7180
E1C0
FFC0
FFC0
E000
7040
7FC0
1F80
ENDCHAR
STARTCHAR uni1EC4
ENCODING 7876
SWIDTH 602 0
DWIDTH 11 0
BBX 9 22 2 0
BITMAP
1B00
3F00
3600
0000
0C00
1E00
3300
0000
FF80
FF80
E000
E000
E000
E000
FF00
FF00
E000
E000
E000
E000
FF80
FF80
ENDCHAR
STARTCHAR uni1EC5
ENCODING 7877
SWIDTH 602 0
DWIDTH 11 0
BBX 10 18 1 0
BITMAP
1B00
3F00
3600
0000
0C00
1E00
3300
0000
1F00
7F80
7180
E1C0
FFC0
FFC0
E000
7040
7FC0
1F80
ENDCHAR
STARTCHAR uni1EC6
ENCODING 7878
SWIDTH 602 0
DWIDTH 11 0
BBX 9 21 2 -3
BITMAP
1800
3C00
6600
0000
FF80
FF80
E000
E000
E000
E000
FF00
FF00
E000
E000
E000
E000
FF80
FF80
0000
1800
1800
ENDCHAR
STARTCHAR uni1EC7
ENCODING 7879
SWIDTH 602 0
DWIDTH 11 0
BBX 10 17 1 -3
BITMAP
0C00
1E00
3300
0000
1F00
7F80
7180
E1C0
FFC0
FFC0
E000
7040
7FC0
1F80
0000
0C00
0C00
ENDCHAR
STARTCHAR uni1ECA
ENCODING 7882
SWIDTH 602 0
DWIDTH 11 0
BBX 9 17 1 -3
BITMAP
FF80
FF80
1C00
1C00
1C00
1C00
1C00
1C00
1C00
1C00
1C00
1C00
FF80
FF80
0000
0C00
0C00
ENDCHAR
STARTCHAR uni1ECB
ENCODING 7883
SWIDTH 602 0
DWIDTH 11 0
BBX 7 17 2 -3
BITMAP
0E
0E
0E
00
FE
FE
0E
0E
0E
0E
0E
0E
0E
0E
00
0C
0C
ENDCHAR
STARTCHAR uni1ECC
ENCODING 7884
SWIDTH 602 0
DWIDTH 11 0
BBX 11 17 0 -3
BITMAP
1F00
3F80
71C0
60C0
E0E0
E0E0
E0E0
E0E0
E0E0
E0E0
60C0
71C0
3F80
1F00
0000
0600
0600
ENDCHAR
STARTCHAR uni1ECD
ENCODING 7885
SWIDTH 602 0
DWIDTH 11 0
BBX 11 13 0 -3
BITMAP
1F00
7FC0
71C0
E0E0
E0E0
E0E0
E0E0
71C0
7FC0
1F00
0000
0600
0600
ENDCHAR
STARTCHAR uni1ED0
ENCODING 7888
SWIDTH 602 0
DWIDTH 11 0
BBX 11 22 0 0
BITMAP
0700
0E00
1C00
0000
0C00
1E00
3300
0000
1F00
3F80
71C0
60C0
E0E0
E0E0
E0E0
E0E0
E0E0
E0E0
60C0
71C0
3F80
1F00
ENDCHAR
STARTCHAR uni1ED1
ENCODING 7889
SWIDTH 602 0
DWIDTH 11 0
BBX 11 18 0 0
BITMAP
0700
0E00
1C00
0000
0C00
1E00
3300
0000
1F00
7FC0
71C0
E0E0
E0E0
E0E0
E0E0
71C0
7FC0
1F00
ENDCHAR
STARTCHAR uni1ED2
ENCODING 7890
SWIDTH 602 0
DWIDTH 11 0
BBX 11 22 0 0
BITMAP
3800
1C00
0E00
0000
0C00
1E00
3300
0000
1F00
3F80
71C0
60C0
E0E0
E0E0
E0E0
E0E0
E0E0
E0E0
60C0
71C0
3F80
1F00
ENDCHAR
STARTCHAR uni1ED3
ENCODING 7891
SWIDTH 602 0
DWIDTH 11 0
BBX 11 18 0 0
BITMAP
3800
1C00
0E00
0000
0C00
1E00
3300
0000
1F00
7FC0
71C0
E0E0
E0E0
E0E0
E0E0
71C0
7FC0
1F00
ENDCHAR
STARTCHAR uni1ED6
ENCODING 7894
SWIDTH 602 0
DWIDTH 11 0
BBX 11 22 0 0
BITMAP
0D80
1F80
1B00
0000
0C00
1E00
3300
0000
1F00
3F80
71C0
60C0
E0E0
E0E0
E0E0
E0E0
E0E0
E0E0
60C0
71C0
3F80
1F00
ENDCHAR
STARTCHAR uni1ED7
ENCODING 7895
SWIDTH 602 0
DWIDTH 11 0
BBX 11 18 0 0
BITMAP
0D80
1F80
1B00
0000
0C00
1E00
3300
0000
1F00
7FC0
71C0
E0E0
E0E0
E0E0
E0E0
71C0
7FC0
1F00
ENDCHAR
STARTCHAR uni1ED8
ENCODING 7896
SWIDTH 602 0
DWIDTH 11 0
BBX 11 21 0 -3
BITMAP
0600
0F00
1980
0000
1F00
3F80
71C0
60C0
E0E0
E0E0
E0E0
E0E0
E0E0
E0E0
60C0
71C0
3F80
1F00
0000
0600
0600
ENDCHAR
STARTCHAR uni1ED9
ENCODING 7897
SWIDTH 602 0
DWIDTH 11 0
BBX 11 17 0 -3
BITMAP
0600
0F00
1980
0000
1F00
7FC0
71C0
E0E0
E0E0
E0E0
E0E0
71C0
7FC0
1F00
0000
0600
0600
ENDCHAR
STARTCHAR uni1EDA
ENCODING 7898
SWIDTH 602 0
DWIDTH 11 0
BBX 13 18 0 0
BITMAP
01C0
0380
0700
0000
1F38
3FB8
71F8
60D8
E0F8
E0F0
E0E0
E0E0
E0E0
E0E0
60C0
71C0
3F80
1F00
ENDCHAR
STARTCHAR uni1EDB
ENCODING 7899
SWIDTH 602 0
DWIDTH 11 0
BBX 13 14 0 0
BITMAP
01C0
0380
0700
0000
1F38
7FF8
71F8
E0F8
E0F8
E0F0
E0E0
71C0
7FC0
1F00
ENDCHAR
STARTCHAR uni1EDC
ENCODING 7900
SWIDTH 602 0
DWIDTH 11 0
BBX 13 18 0 0
BITMAP
0E00
0700
0380
0000
1F38
3FB8
71F8
60D8
E0F8
E0F0
E0E0
E0E0
E0E0
E0E0
60C0
71C0
3F80
1F00
ENDCHAR
STARTCHAR uni1EDD
ENCODING 7901
SWIDTH 602 0
DWIDTH 11 0
BBX 13 14 0 0
BITMAP
0E00
0700
0380
0000
1F38
7FF8
71F8
E0F8
E0F8
E0F0
E0E0
71C0
7FC0
1F00
ENDCHAR
STARTCHAR uni1EE0
ENCODING 7904
SWIDTH 602 0
DWIDTH 11 0
BBX 13 18 0 0
BITMAP
0360
07E0
06C0
0000
1F38
3FB8
71F8
60D8
E0F8
E0F0
E0E0
E0E0
E0E0
E0E0
60C0
71C0
3F80
1F00
ENDCHAR
STARTCHAR uni1EE1
ENCODING 7905
SWIDTH 602 0
DWIDTH 11 0
BBX 13 14 0 0
BITMAP
06C0
0FC0
0D80
0000
1F38
7FF8
71F8
E0F8
E0F8
E0F0
E0E0
71C0
7FC0
1F00
ENDCHAR
STARTCHAR uni1EE2
ENCODING 7906
SWIDTH 602 0
DWIDTH 11 0
BBX 13 17 0 -3
BITMAP
1F38
3FB8
71F8
60D8
E0F8
E0F0
E0E0
E0E0
E0E0
E0E0
60C0
71C0
3F80
1F00
0000
0600
0600
ENDCHAR
STARTCHAR uni1EE3
ENCODING 7907
SWIDTH 602 0
DWIDTH 11 0
BBX 13 13 0 -3
BITMAP
1F38
7FF8
71F8
E0F8
E0F8
E0F0
E0E0
71C0
7FC0
1F00
0000
0600
0600
ENDCHAR
STARTCHAR uni1EE4
ENCODING 7908
SWIDTH 602 0
DWIDTH 11 0
BBX 9 17 1 -3
BITMAP
E380
E380
E380
E380
E380
E380
E380
E380
E380
E380
E380
E380
7F00
3E00
0000
0C00
0C00
ENDCHAR
STARTCHAR uni1EE5
ENCODING 7909
SWIDTH 602 0
DWIDTH 11 0
BBX 9 13 1 -3
BITMAP
E380
E380
E380
E380
E380
E380
E780
FF80
FF80
7B80
0000
0C00
0C00
ENDCHAR
STARTCHAR uni1EE8
ENCODING 7912
SWIDTH 602 0
DWIDTH 11 0
BBX 11 18 1 0
BITMAP
0380
0700
0E00
0000
E3E0
E3E0
E3E0
E3E0
E3E0
E3C0
E380
E380
E380
E380
E380
E380
7F00
3E00
ENDCHAR
STARTCHAR uni1EE9
ENCODING 7913
SWIDTH 602 0
DWIDTH 11 0
BBX 11 14 1 0
BITMAP
0380
0700
0E00
0000
E3E0
E3E0
E3E0
E3E0
E3E0
E3C0
E780
FF80
FF80
7B80
ENDCHAR
STARTCHAR uni1EEA
ENCODING 7914
SWIDTH 602 0
DWIDTH 11 0
BBX 11 18 1 0
BITMAP
1C00
0E00
0700
0000
E3E0
E3E0
E3E0
E3E0
E3E0
E3C0
E380
E380
E380
E380
E380
E380
7F00
3E00
ENDCHAR
STARTCHAR uni1EEB
ENCODING 7915
SWIDTH 602 0
DWIDTH 11 0
BBX 11 14 1 0
BITMAP
1C00
0E00
0700
0000
E3E0
E3E0
E3E0
E3E0
E3E0
E3C0
E780
FF80
FF80
7B80
ENDCHAR
STARTCHAR uni1EEE
ENCODING 7918
SWIDTH 602 0
DWIDTH 11 0
BBX 11 18 1 0
BITMAP
0D80
1F80
1B00
0000
E3E0
E3E0
E3E0
E3E0
E3E0
E3C0
E380
E380
E380
E380
E380
E380
7F00
3E00
ENDCHAR
STARTCHAR uni1EEF
ENCODING 7919
SWIDTH 602 0
DWIDTH 11 0
BBX 11 14 1 0
BITMAP
0D80
1F80
1B00
0000
E3E0
E3E0
E3E0
E3E0
E3E0
E3C0
E780
FF80
FF80
7B80
ENDCHAR
STARTCHAR uni1EF0
ENCODING 7920
SWIDTH 602 0
DWIDTH 11 0
BBX 11 17 1 -3
BITMAP
E3E0
E3E0
E3E0
E3E0
E3E0
E3C0
E380
E380
E380
E380
E380
E380
7F00
3E00
0000
0C00
0C00
ENDCHAR
STARTCHAR uni1EF1
ENCODING 7921
SWIDTH 602 0
DWIDTH 11 0
BBX 11 13 1 -3
BITMAP
E3E0
E3E0
E3E0
E3E0
E3E0
E3C0
E780
FF80
FF80
7B80
0000
0C00
0C00
ENDCHAR
STARTCHAR Ygrave
ENCODING 7922
SWIDTH 602 0
DWIDTH 11 0
BBX 11 18 0 0
BITMAP
3800
1C00
0E00
0000
E060
70C0
70C0
3980
3980
1F00
1F00
0E00
0E00
0E00
0E00
0E00
0E00
0E00
ENDCHAR
STARTCHAR ygrave
ENCODING 7923
SWIDTH 602 0
DWIDTH 11 0
BBX 11 18 0 -4
BITMAP
3800
1C00
0E00
0000
E060
70C0
70C0
3980
3980
3F80
1F00
1F00
0E00
0E00
0C00
0C00
7800
7000
ENDCHAR
STARTCHAR uni1EF4
ENCODING 7924
SWIDTH 602 0
DWIDTH 11 0
BBX 11 17 0 -3
BITMAP
E060
70C0
70C0
3980
3980
1F00
1F00
0E00
0E00
0E00
0E00
0E00
0E00
0E00
0000
0600
0600
ENDCHAR
STARTCHAR uni1EF5
ENCODING 7925
SWIDTH 602 0
DWIDTH 11 0
BBX 11 17 0 -7
BITMAP
E060
70C0
70C0
3980
3980
3F80
1F00
1F00
0E00
0E00
0C00
0C00
7800
7000
0000
1800
1800
ENDCHAR
STARTCHAR uni1EF8
ENCODING 7928
SWIDTH 602 0
DWIDTH 11 0
BBX 11 18 0 0
BITMAP
0D80
1F80
1B00
0000
E060
70C0
70C0
3980
3980
1F00
1F00
0E00
0E00
0E00
0E00
0E00
0E00
0E00
ENDCHAR
STARTCHAR uni1EF9
ENCODING 7929
SWIDTH 602 0
DWIDTH 11 0
BBX 11 18 0 -4
BITMAP
0D80
1F80
1B00
0000
E060
70C0
70C0
3980
3980
3F80
1F00
1F00
0E00
0E00
0C00
0C00
7800
7000
ENDCHAR
STARTCHAR uni2000
ENCODING 8192
SWIDTH 602 0
DWIDTH 11 0
BBX 1 1 0 0
BITMAP
00
ENDCHAR
STARTCHAR uni2001
ENCODING 8193
SWIDTH 602 0
DWIDTH 11 0
BBX 1 1 0 0
BITMAP
00
ENDCHAR
STARTCHAR uni2002
ENCODING 8194
SWIDTH 602 0
DWIDTH 11 0
BBX 1 1 0 0
BITMAP
00
ENDCHAR
STARTCHAR uni2003
ENCODING 8195
SWIDTH 602 0
DWIDTH 11 0
BBX 1 1 0 0
BITMAP
00
ENDCHAR
STARTCHAR uni2004
ENCODING 8196
SWIDTH 602 0
DWIDTH 11 0
BBX 1 1 0 0
BITMAP
00
ENDCHAR
STARTCHAR uni2005
ENCODING 8197
SWIDTH 602 0
DWIDTH 11 0
BBX 1 1 0 0
BITMAP
00
ENDCHAR
STARTCHAR uni2006
ENCODING 8198
SWIDTH 602 0
DWIDTH 11 0
BBX 1 1 0 0
BITMAP
00
ENDCHAR
STARTCHAR uni2007
ENCODING 8199
SWIDTH 602 0
DWIDTH 11 0
BBX 1 1 0 0
BITMAP
00
ENDCHAR
STARTCHAR uni2008
ENCODING 8200
SWIDTH 602 0
DWIDTH 11 0
BBX 1 1 0 0
BITMAP
00
ENDCHAR
STARTCHAR uni2009
ENCODING 8201
SWIDTH 602 0
DWIDTH 11 0
BBX 1 1 0 0
BITMAP
00
ENDCHAR
STARTCHAR uni200A
ENCODING 8202
SWIDTH 602 0
DWIDTH 11 0
BBX 1 1 0 0
BITMAP
00
ENDCHAR
STARTCHAR uni2010
ENCODING 8208
SWIDTH 602 0
DWIDTH 11 0
BBX 8 2 2 5
BITMAP
FF
FF
ENDCHAR
STARTCHAR uni2011
ENCODING 8209
SWIDTH 602 0
DWIDTH 11 0
BBX 8 2 2 5
BITMAP
FF
FF
ENDCHAR
STARTCHAR figuredash
ENCODING 8210
SWIDTH 602 0
DWIDTH 11 0
BBX 9 2 1 5
BITMAP
FF80
FF80
ENDCHAR
STARTCHAR endash
ENCODING 8211
SWIDTH 602 0
DWIDTH 11 0
BBX 9 2 1 5
BITMAP
FF80
FF80
ENDCHAR
STARTCHAR emdash
ENCODING 8212
SWIDTH 602 0
DWIDTH 11 0
BBX 10 2 1 5
BITMAP
FFC0
FFC0
ENDCHAR
STARTCHAR afii00208
ENCODING 8213
SWIDTH 602 0
DWIDTH 11 0
BBX 10 2 1 5
BITMAP
FFC0
FFC0
ENDCHAR
STARTCHAR quoteleft
ENCODING 8216
SWIDTH 602 0
DWIDTH 11 0
BBX 3 6 4 8
BITMAP
60
E0
C0
E0
E0
E0
ENDCHAR
STARTCHAR quoteright
ENCODING 8217
SWIDTH 602 0
DWIDTH 11 0
BBX 3 6 4 8
BITMAP
E0
E0
E0
60
E0
C0
ENDCHAR
STARTCHAR quotesinglbase
ENCODING 8218
SWIDTH 602 0
DWIDTH 11 0
BBX 3 8 4 -4
BITMAP
E0
E0
E0
E0
60
60
E0
C0
ENDCHAR
STARTCHAR quotereversed
ENCODING 8219
SWIDTH 602 0
DWIDTH 11 0
BBX 3 6 4 8
BITMAP
E0
E0
E0
C0
E0
60
ENDCHAR
STARTCHAR quotedblleft
ENCODING 8220
SWIDTH 602 0
DWIDTH 11 0
BBX 8 5 2 9
BITMAP
63
C6
E7
E7
E7
ENDCHAR
STARTCHAR quotedblright
ENCODING 8221
SWIDTH 602 0
DWIDTH 11 0
BBX 8 5 2 9
BITMAP
E7
E7
E7
63
C6
ENDCHAR
STARTCHAR quotedblbase
ENCODING 8222
SWIDTH 602 0
DWIDTH 11 0
BBX 8 7 2 -4
BITMAP
E7
E7
E7
63
63
63
C6
ENDCHAR
STARTCHAR uni201F
ENCODING 8223
SWIDTH 602 0
DWIDTH 11 0
BBX 8 5 2 9
BITMAP
E7
E7
E7
C6
63
ENDCHAR
STARTCHAR dagger
ENCODING 8224
SWIDTH 602 0
DWIDTH 11 0
BBX 9 18 1 -4
BITMAP
1C00
1C00
1C00
1C00
1C00
FF80
FF80
1C00
1C00
1C00
1C00
1C00
1C00
1C00
1C00
1C00
1C00
1C00
ENDCHAR
STARTCHAR daggerdbl
ENCODING 8225
SWIDTH 602 0
DWIDTH 11 0
BBX 9 18 1 -4
BITMAP
1C00
1C00
1C00
1C00
1C00
FF80
FF80
1C00
1C00
1C00
1C00
FF80
FF80
1C00
1C00
1C00
1C00
1C00
ENDCHAR
STARTCHAR bullet
ENCODING 8226
SWIDTH 602 0
DWIDTH 11 0
BBX 7 7 2 1
BITMAP
FE
FE
FE
FE
FE
FE
FE
ENDCHAR
STARTCHAR ellipsis
ENCODING 8230
SWIDTH 602 0
DWIDTH 11 0
BBX 10 2 1 0
BITMAP
CCC0
CCC0
ENDCHAR
STARTCHAR perthousand
ENCODING 8240
SWIDTH 602 0
DWIDTH 11 0
BBX 11 14 0 0
BITMAP
6200
F400
F400
F800
F800
6800
1000
1000
2CC0
3FE0
7FE0
5FE0
5FE0
8CC0
ENDCHAR
STARTCHAR guilsinglleft
ENCODING 8249
SWIDTH 602 0
DWIDTH 11 0
BBX 6 8 3 1
BITMAP
08
1C
38
70
F0
38
1C
08
ENDCHAR
STARTCHAR guilsinglright
ENCODING 8250
SWIDTH 602 0
DWIDTH 11 0
BBX 6 8 3 1
BITMAP
40
E0
70
3C
38
70
E0
40
ENDCHAR
STARTCHAR uni203D
ENCODING 8253
SWIDTH 602 0
DWIDTH 11 0
BBX 10 14 1 0
BITMAP
7F00
FF80
CFC0
CFC0
0FC0
0F80
0F00
1C00
3C00
3C00
0000
0000
3E00
3E00
ENDCHAR
STARTCHAR fraction
ENCODING 8260
SWIDTH 602 0
DWIDTH 11 0
BBX 11 14 0 0
BITMAP
0060
00C0
01C0
0180
0300
0700
0600
0C00
1C00
1800
3000
7000
6000
C000
ENDCHAR
STARTCHAR oneinferior
ENCODING 8321
SWIDTH 602 0
DWIDTH 11 0
BBX 3 7 -2 -4
BITMAP
C0
40
40
40
40
40
E0
ENDCHAR
STARTCHAR twoinferior
ENCODING 8322
SWIDTH 602 0
DWIDTH 11 0
BBX 4 7 -2 -4
BITMAP
E0
10
10
20
60
C0
F0
ENDCHAR
STARTCHAR threeinferior
ENCODING 8323
SWIDTH 602 0
DWIDTH 11 0
BBX 3 7 -2 -4
BITMAP
E0
20
20
C0
20
20
C0
ENDCHAR
STARTCHAR uni20A5
ENCODING 8357
SWIDTH 602 0
DWIDTH 11 0
BBX 11 18 0 -4
BITMAP
00E0
00C0
01C0
0180
EDE0
FFE0
FFE0
EEE0
EEE0
EEE0
EEE0
FEE0
FEE0
FEE0
3000
6000
6000
C000
ENDCHAR
STARTCHAR uni20A6
ENCODING 8358
SWIDTH 602 0
DWIDTH 11 0
BBX 10 14 1 0
BITMAP
E180
F180
F180
F980
FFC0
FFC0
DD80
DD80
FFC0
FFC0
C780
C780
C380
C380
ENDCHAR
STARTCHAR uni20A9
ENCODING 8361
SWIDTH 602 0
DWIDTH 11 0
BBX 11 14 0 0
BITMAP
E060
EE60
EE60
EE60
7FE0
7FE0
7FC0
7FC0
7FE0
7FE0
7BC0
7B80
3380
3380
ENDCHAR
STARTCHAR Euro
ENCODING 8364
SWIDTH 602 0
DWIDTH 11 0
BBX 14 14 -3 0
BITMAP
01FC
07FC
0F04
0E00
FFC0
FFC0
1C00
1C00
FFC0
FFC0
0E00
0F04
07FC
01F8
ENDCHAR
STARTCHAR uni20AD
ENCODING 8365
SWIDTH 602 0
DWIDTH 11 0
BBX 10 14 1 0
BITMAP
E1C0
E380
E300
E600
EE00
EC00
FFC0
FFC0
FE00
EF00
E700
E780
E380
E3C0
ENDCHAR
STARTCHAR trademark
ENCODING 8482
SWIDTH 602 0
DWIDTH 11 0
BBX 11 8 0 6
BITMAP
FE60
FE60
36E0
37E0
37E0
37E0
3660
3660
ENDCHAR
STARTCHAR uni212A
ENCODING 8490
SWIDTH 602 0
DWIDTH 11 0
BBX 10 14 1 0
BITMAP
E1C0
E380
E300
E600
EE00
EC00
FC00
FC00
FE00
EF00
E700
E780
E380
E3C0
ENDCHAR
STARTCHAR uni212B
ENCODING 8491
SWIDTH 602 0
DWIDTH 11 0
BBX 11 18 0 0
BITMAP
0E00
0A00
0E00
0000
0E00
0F00
0F00
1F00
1F00
1B80
3380
3380
33C0
7FC0
7FC0
61C0
C0E0
C0E0
ENDCHAR
STARTCHAR uni2132
ENCODING 8498
SWIDTH 602 0
DWIDTH 11 0
BBX 10 14 1 0
BITMAP
01C0
01C0
01C0
01C0
01C0
01C0
7FC0
7FC0
01C0
01C0
01C0
01C0
FFC0
FFC0
ENDCHAR
STARTCHAR universal
ENCODING 8704
SWIDTH 602 0
DWIDTH 11 0
BBX 11 14 0 0
BITMAP
C0E0
C0E0
61C0
7FC0
7FC0
33C0
3380
3380
1B80
1F00
1F00
0F00
0F00
0E00
ENDCHAR
STARTCHAR existential
ENCODING 8707
SWIDTH 602 0
DWIDTH 11 0
BBX 9 14 2 0
BITMAP
FF80
FF80
0380
0380
0380
0380
7F80
7F80
0380
0380
0380
0380
FF80
FF80
ENDCHAR
STARTCHAR uni2204
ENCODING 8708
SWIDTH 602 0
DWIDTH 11 0
BBX 11 18 1 -2
BITMAP
00E0
00C0
7FC0
7FC0
01C0
03C0
03C0
07C0
3FC0
3FC0
0DC0
19C0
19C0
31C0
7FC0
7FC0
6000
C000
ENDCHAR
STARTCHAR minus
ENCODING 8722
SWIDTH 602 0
DWIDTH 11 0
BBX 10 2 1 3
BITMAP
FFC0
FFC0
ENDCHAR
STARTCHAR fraction
ENCODING 8725
SWIDTH 602 0
DWIDTH 11 0
BBX 11 14 0 0
BITMAP
0060
00C0
01C0
0180
0300
0700
0600
0C00
1C00
1800
3000
7000
6000
C000
ENDCHAR
STARTCHAR periodcentered
ENCODING 8729
SWIDTH 602 0
DWIDTH 11 0
BBX 3 3 4 3
BITMAP
E0
E0
E0
ENDCHAR
STARTCHAR uni2236
ENCODING 8758
SWIDTH 602 0
DWIDTH 11 0
BBX 3 10 4 0
BITMAP
E0
E0
E0
00
00
00
00
E0
E0
E0
ENDCHAR
STARTCHAR uni2259
ENCODING 8793
SWIDTH 602 0
DWIDTH 11 0
BBX 10 10 1 2
BITMAP
0C00
1E00
3300
0000
FFC0
FFC0
0000
0000
FFC0
FFC0
ENDCHAR
STARTCHAR uni225A
ENCODING 8794
SWIDTH 602 0
DWIDTH 11 0
BBX 10 10 1 2
BITMAP
3300
1E00
0C00
0000
FFC0
FFC0
0000
0000
FFC0
FFC0
ENDCHAR
STARTCHAR notequal
ENCODING 8800
SWIDTH 602 0
DWIDTH 11 0
BBX 11 18 1 -4
BITMAP
00E0
00C0
01C0
0180
0180
0300
FFC0
FFC0
0600
0C00
FFC0
FFC0
1800
3000
3000
6000
6000
C000
ENDCHAR
STARTCHAR equivalence
ENCODING 8801
SWIDTH 602 0
DWIDTH 11 0
BBX 10 8 0 1
BITMAP
FFC0
FFC0
0000
FFC0
FFC0
0000
FFC0
FFC0
ENDCHAR
STARTCHAR uni2262
ENCODING 8802
SWIDTH 602 0
DWIDTH 11 0
BBX 11 18 0 -4
BITMAP
00E0
00C0
01C0
0180
0180
FFC0
FFC0
0600
FFC0
FFC0
0C00
FFC0
FFC0
3000
3000
6000
6000
C000
ENDCHAR
STARTCHAR lessequal
ENCODING 8804
SWIDTH 602 0
DWIDTH 11 0
BBX 10 13 1 -3
BITMAP
0040
01C0
0780
1F00
FC00
7C00
1F00
07C0
01C0
0040
0000
FFC0
FFC0
ENDCHAR
STARTCHAR greaterequal
ENCODING 8805
SWIDTH 602 0
DWIDTH 11 0
BBX 10 13 1 -3
BITMAP
8000
E000
F800
3E00
0F80
0FC0
3E00
7800
E000
8000
0000
FFC0
FFC0
ENDCHAR
STARTCHAR uni226E
ENCODING 8814
SWIDTH 602 0
DWIDTH 11 0
BBX 11 18 1 -4
BITMAP
00E0
00C0
01C0
0180
01C0
03C0
0780
1F00
FE00
7C00
1F00
1FC0
19C0
3040
3000
6000
6000
C000
ENDCHAR
STARTCHAR uni226F
ENCODING 8815
SWIDTH 602 0
DWIDTH 11 0
BBX 11 18 1 -4
BITMAP
00E0
00C0
01C0
0180
8180
E300
FB00
3E00
0F80
0FC0
3E00
7800
F800
B000
3000
6000
6000
C000
ENDCHAR
STARTCHAR uni2270
ENCODING 8816
SWIDTH 602 0
DWIDTH 11 0
BBX 11 18 1 -5
BITMAP
00E0
00C0
01C0
01C0
01C0
0780
1F00
FE00
7E00
1F00
0FC0
19C0
1840
3000
FFC0
FFC0
6000
C000
ENDCHAR
STARTCHAR uni2271
ENCODING 8817
SWIDTH 602 0
DWIDTH 11 0
BBX 11 18 1 -5
BITMAP
00E0
00C0
01C0
8180
E180
FB00
3F00
0F80
0FC0
3E00
7C00
F800
9800
3000
FFC0
FFC0
6000
C000
ENDCHAR
STARTCHAR SF100000
ENCODING 9472
SWIDTH 602 0
DWIDTH 11 0
BBX 11 2 0 6
BITMAP
FFE0
FFE0
ENDCHAR
STARTCHAR uni2501
ENCODING 9473
SWIDTH 602 0
DWIDTH 11 0
BBX 11 6 0 4
BITMAP
FFE0
FFE0
FFE0
FFE0
FFE0
FFE0
ENDCHAR
STARTCHAR SF110000
ENCODING 9474
SWIDTH 602 0
DWIDTH 11 0
BBX 2 22 4 -4
BITMAP
C0
C0
C0
C0
C0
C0
C0
C0
C0
C0
C0
C0
C0
C0
C0
C0
C0
C0
C0
C0
C0
C0
ENDCHAR
STARTCHAR uni2503
ENCODING 9475
SWIDTH 602 0
DWIDTH 11 0
BBX 6 22 2 -4
BITMAP
FC
FC
FC
FC
FC
FC
FC
FC
FC
FC
FC
FC
FC
FC
FC
FC
FC
FC
FC
FC
FC
FC
ENDCHAR
STARTCHAR SF010000
ENCODING 9484
SWIDTH 602 0
DWIDTH 11 0
BBX 7 12 4 -4
BITMAP
FE
FE
C0
C0
C0
C0
C0
C0
C0
C0
C0
C0
ENDCHAR
STARTCHAR uni250D
ENCODING 9485
SWIDTH 602 0
DWIDTH 11 0
BBX 9 14 2 -4
BITMAP
FF80
FF80
FF80
FF80
FF80
FF80
3000
3000
3000
3000
3000
3000
3000
3000
ENDCHAR
STARTCHAR uni250E
ENCODING 9486
SWIDTH 602 0
DWIDTH 11 0
BBX 9 14 2 -4
BITMAP
FC00
FC00
FF80
FF80
FC00
FC00
FC00
FC00
FC00
FC00
FC00
FC00
FC00
FC00
ENDCHAR
STARTCHAR uni250F
ENCODING 9487
SWIDTH 602 0
DWIDTH 11 0
BBX 9 14 2 -4
BITMAP
FF80
FF80
FF80
FF80
FF80
FF80
FC00
FC00
FC00
FC00
FC00
FC00
FC00
FC00
ENDCHAR
STARTCHAR SF030000
ENCODING 9488
SWIDTH 602 0
DWIDTH 11 0
BBX 6 12 0 -4
BITMAP
FC
FC
0C
0C
0C
0C
0C
0C
0C
0C
0C
0C
ENDCHAR
STARTCHAR uni2511
ENCODING 9489
SWIDTH 602 0
DWIDTH 11 0
BBX 8 14 0 -4
BITMAP
FF
FF
FF
FF
FF
FF
0C
0C
0C
0C
0C
0C
0C
0C
ENDCHAR
STARTCHAR uni2512
ENCODING 9490
SWIDTH 602 0
DWIDTH 11 0
BBX 8 14 0 -4
BITMAP
3F
3F
FF
FF
3F
3F
3F
3F
3F
3F
3F
3F
3F
3F
ENDCHAR
STARTCHAR uni2513
ENCODING 9491
SWIDTH 602 0
DWIDTH 11 0
BBX 8 14 0 -4
BITMAP
FF
FF
FF
FF
FF
FF
3F
3F
3F
3F
3F
3F
3F
3F
ENDCHAR
STARTCHAR SF020000
ENCODING 9492
SWIDTH 602 0
DWIDTH 11 0
BBX 7 12 4 6
BITMAP
C0
C0
C0
C0
C0
C0
C0
C0
C0
C0
FE
FE
ENDCHAR
STARTCHAR uni2515
ENCODING 9493
SWIDTH 602 0
DWIDTH 11 0
BBX 9 14 2 4
BITMAP
3000
3000
3000
3000
3000
3000
3000
3000
FF80
FF80
FF80
FF80
FF80
FF80
ENDCHAR
STARTCHAR uni2516
ENCODING 9494
SWIDTH 602 0
DWIDTH 11 0
BBX 9 14 2 4
BITMAP
FC00
FC00
FC00
FC00
FC00
FC00
FC00
FC00
FC00
FC00
FF80
FF80
FC00
FC00
ENDCHAR
STARTCHAR uni2517
ENCODING 9495
SWIDTH 602 0
DWIDTH 11 0
BBX 9 14 2 4
BITMAP
FC00
FC00
FC00
FC00
FC00
FC00
FC00
FC00
FF80
FF80
FF80
FF80
FF80
FF80
ENDCHAR
STARTCHAR SF040000
ENCODING 9496
SWIDTH 602 0
DWIDTH 11 0
BBX 6 12 0 6
BITMAP
0C
0C
0C
0C
0C
0C
0C
0C
0C
0C
FC
FC
ENDCHAR
STARTCHAR uni2519
ENCODING 9497
SWIDTH 602 0
DWIDTH 11 0
BBX 8 14 0 4
BITMAP
0C
0C
0C
0C
0C
0C
0C
0C
FF
FF
FF
FF
FF
FF
ENDCHAR
STARTCHAR uni251A
ENCODING 9498
SWIDTH 602 0
DWIDTH 11 0
BBX 8 14 0 4
BITMAP
3F
3F
3F
3F
3F
3F
3F
3F
3F
3F
FF
FF
3F
3F
ENDCHAR
STARTCHAR uni251B
ENCODING 9499
SWIDTH 602 0
DWIDTH 11 0
BBX 8 14 0 4
BITMAP
3F
3F
3F
3F
3F
3F
3F
3F
FF
FF
FF
FF
FF
FF
ENDCHAR
STARTCHAR SF080000
ENCODING 9500
SWIDTH 602 0
DWIDTH 11 0
BBX 7 22 4 -4
BITMAP
C0
C0
C0
C0
C0
C0
C0
C0
C0
C0
FE
FE
C0
C0
C0
C0
C0
C0
C0
C0
C0
C0
ENDCHAR
STARTCHAR uni251D
ENCODING 9501
SWIDTH 602 0
DWIDTH 11 0
BBX 9 22 2 -4
BITMAP
3000
3000
3000
3000
3000
3000
3000
3000
FF80
FF80
FF80
FF80
FF80
FF80
3000
3000
3000
3000
3000
3000
3000
3000
ENDCHAR
STARTCHAR uni251E
ENCODING 9502
SWIDTH 602 0
DWIDTH 11 0
BBX 9 22 2 -4
BITMAP
FC00
FC00
FC00
FC00
FC00
FC00
FC00
FC00
FC00
FC00
FF80
FF80
FC00
FC00
3000
3000
3000
3000
3000
3000
3000
3000
ENDCHAR
STARTCHAR uni251F
ENCODING 9503
SWIDTH 602 0
DWIDTH 11 0
BBX 9 22 2 -4
BITMAP
3000
3000
3000
3000
3000
3000
3000
3000
FC00
FC00
FF80
FF80
FC00
FC00
FC00
FC00
FC00
FC00
FC00
FC00
FC00
FC00
ENDCHAR
STARTCHAR uni2520
ENCODING 9504
SWIDTH 602 0
DWIDTH 11 0
BBX 9 22 2 -4
BITMAP
FC00
FC00
FC00
FC00
FC00
FC00
FC00
FC00
FC00
FC00
FF80
FF80
FC00
FC00
FC00
FC00
FC00
FC00
FC00
FC00
FC00
FC00
ENDCHAR
STARTCHAR uni2521
ENCODING 9505
SWIDTH 602 0
DWIDTH 11 0
BBX 9 22 2 -4
BITMAP
FC00
FC00
FC00
FC00
FC00
FC00
FC00
FC00
FF80
FF80
FF80
FF80
FF80
FF80
3000
3000
3000
3000
3000
3000
3000
3000
ENDCHAR
STARTCHAR uni2522
ENCODING 9506
SWIDTH 602 0
DWIDTH 11 0
BBX 9 22 2 -4
BITMAP
3000
3000
3000
3000
3000
3000
3000
3000
FF80
FF80
FF80
FF80
FF80
FF80
FC00
FC00
FC00
FC00
FC00
FC00
FC00
FC00
ENDCHAR
STARTCHAR uni2523
ENCODING 9507
SWIDTH 602 0
DWIDTH 11 0
BBX 9 22 2 -4
BITMAP
FC00
FC00
FC00
FC00
FC00
FC00
FC00
FC00
FF80
FF80
FF80
FF80
FF80
FF80
FC00
FC00
FC00
FC00
FC00
FC00
FC00
FC00
ENDCHAR
STARTCHAR SF090000
ENCODING 9508
SWIDTH 602 0
DWIDTH 11 0
BBX 6 22 0 -4
BITMAP
0C
0C
0C
0C
0C
0C
0C
0C
0C
0C
FC
FC
0C
0C
0C
0C
0C
0C
0C
0C
0C
0C
ENDCHAR
STARTCHAR uni2525
ENCODING 9509
SWIDTH 602 0
DWIDTH 11 0
BBX 8 22 0 -4
BITMAP
0C
0C
0C
0C
0C
0C
0C
0C
FF
FF
FF
FF
FF
FF
0C
0C
0C
0C
0C
0C
0C
0C
ENDCHAR
STARTCHAR uni2526
ENCODING 9510
SWIDTH 602 0
DWIDTH 11 0
BBX 8 22 0 -4
BITMAP
3F
3F
3F
3F
3F
3F
3F
3F
3F
3F
FF
FF
3F
3F
0C
0C
0C
0C
0C
0C
0C
0C
ENDCHAR
STARTCHAR uni2527
ENCODING 9511
SWIDTH 602 0
DWIDTH 11 0
BBX 8 22 0 -4
BITMAP
0C
0C
0C
0C
0C
0C
0C
0C
3F
3F
FF
FF
3F
3F
3F
3F
3F
3F
3F
3F
3F
3F
ENDCHAR
STARTCHAR uni2528
ENCODING 9512
SWIDTH 602 0
DWIDTH 11 0
BBX 8 22 0 -4
BITMAP
3F
3F
3F
3F
3F
3F
3F
3F
3F
3F
FF
FF
3F
3F
3F
3F
3F
3F
3F
3F
3F
3F
ENDCHAR
STARTCHAR uni2529
ENCODING 9513
SWIDTH 602 0
DWIDTH 11 0
BBX 8 22 0 -4
BITMAP
3F
3F
3F
3F
3F
3F
3F
3F
FF
FF
FF
FF
FF
FF
0C
0C
0C
0C
0C
0C
0C
0C
ENDCHAR
STARTCHAR uni252A
ENCODING 9514
SWIDTH 602 0
DWIDTH 11 0
BBX 8 22 0 -4
BITMAP
0C
0C
0C
0C
0C
0C
0C
0C
FF
FF
FF
FF
FF
FF
3F
3F
3F
3F
3F
3F
3F
3F
ENDCHAR
STARTCHAR uni252B
ENCODING 9515
SWIDTH 602 0
DWIDTH 11 0
BBX 8 22 0 -4
BITMAP
3F
3F
3F
3F
3F
3F
3F
3F
FF
FF
FF
FF
FF
FF
3F
3F
3F
3F
3F
3F
3F
3F
ENDCHAR
STARTCHAR SF060000
ENCODING 9516
SWIDTH 602 0
DWIDTH 11 0
BBX 11 12 0 -4
BITMAP
FFE0
FFE0
0C00
0C00
0C00
0C00
0C00
0C00
0C00
0C00
0C00
0C00
ENDCHAR
STARTCHAR uni252D
ENCODING 9517
SWIDTH 602 0
DWIDTH 11 0
BBX 11 14 0 -4
BITMAP
FF00
FF00
FFE0
FFE0
FF00
FF00
0C00
0C00
0C00
0C00
0C00
0C00
0C00
0C00
ENDCHAR
STARTCHAR uni252E
ENCODING 9518
SWIDTH 602 0
DWIDTH 11 0
BBX 11 14 0 -4
BITMAP
3FE0
3FE0
FFE0
FFE0
3FE0
3FE0
0C00
0C00
0C00
0C00
0C00
0C00
0C00
0C00
ENDCHAR
STARTCHAR uni252F
ENCODING 9519
SWIDTH 602 0
DWIDTH 11 0
BBX 11 14 0 -4
BITMAP
FFE0
FFE0
FFE0
FFE0
FFE0
FFE0
0C00
0C00
0C00
0C00
0C00
0C00
0C00
0C00
ENDCHAR
STARTCHAR uni2530
ENCODING 9520
SWIDTH 602 0
DWIDTH 11 0
BBX 11 14 0 -4
BITMAP
3F00
3F00
FFE0
FFE0
3F00
3F00
3F00
3F00
3F00
3F00
3F00
3F00
3F00
3F00
ENDCHAR
STARTCHAR uni2531
ENCODING 9521
SWIDTH 602 0
DWIDTH 11 0
BBX 11 14 0 -4
BITMAP
FF00
FF00
FFE0
FFE0
FF00
FF00
3F00
3F00
3F00
3F00
3F00
3F00
3F00
3F00
ENDCHAR
STARTCHAR uni2532
ENCODING 9522
SWIDTH 602 0
DWIDTH 11 0
BBX 11 14 0 -4
BITMAP
3FE0
3FE0
FFE0
FFE0
3FE0
3FE0
3F00
3F00
3F00
3F00
3F00
3F00
3F00
3F00
ENDCHAR
STARTCHAR uni2533
ENCODING 9523
SWIDTH 602 0
DWIDTH 11 0
BBX 11 14 0 -4
BITMAP
FFE0
FFE0
FFE0
FFE0
FFE0
FFE0
3F00
3F00
3F00
3F00
3F00
3F00
3F00
3F00
ENDCHAR
STARTCHAR SF070000
ENCODING 9524
SWIDTH 602 0
DWIDTH 11 0
BBX 11 12 0 6
BITMAP
0C00
0C00
0C00
0C00
0C00
0C00
0C00
0C00
0C00
0C00
FFE0
FFE0
ENDCHAR
STARTCHAR uni2535
ENCODING 9525
SWIDTH 602 0
DWIDTH 11 0
BBX 11 14 0 4
BITMAP
0C00
0C00
0C00
0C00
0C00
0C00
0C00
0C00
FF00
FF00
FFE0
FFE0
FF00
FF00
ENDCHAR
STARTCHAR uni2536
ENCODING 9526
SWIDTH 602 0
DWIDTH 11 0
BBX 11 14 0 4
BITMAP
0C00
0C00
0C00
0C00
0C00
0C00
0C00
0C00
3FE0
3FE0
FFE0
FFE0
3FE0
3FE0
ENDCHAR
STARTCHAR uni2537
ENCODING 9527
SWIDTH 602 0
DWIDTH 11 0
BBX 11 14 0 4
BITMAP
0C00
0C00
0C00
0C00
0C00
0C00
0C00
0C00
FFE0
FFE0
FFE0
FFE0
FFE0
FFE0
ENDCHAR
STARTCHAR uni2538
ENCODING 9528
SWIDTH 602 0
DWIDTH 11 0
BBX 11 14 0 4
BITMAP
3F00
3F00
3F00
3F00
3F00
3F00
3F00
3F00
3F00
3F00
FFE0
FFE0
3F00
3F00
ENDCHAR
STARTCHAR uni2539
ENCODING 9529
SWIDTH 602 0
DWIDTH 11 0
BBX 11 14 0 4
BITMAP
3F00
3F00
3F00
3F00
3F00
3F00
3F00
3F00
FF00
FF00
FFE0
FFE0
FF00
FF00
ENDCHAR
STARTCHAR uni253A
ENCODING 9530
SWIDTH 602 0
DWIDTH 11 0
BBX 11 14 0 4
BITMAP
3F00
3F00
3F00
3F00
3F00
3F00
3F00
3F00
3FE0
3FE0
FFE0
FFE0
3FE0
3FE0
ENDCHAR
STARTCHAR uni253B
ENCODING 9531
SWIDTH 602 0
DWIDTH 11 0
BBX 11 14 0 4
BITMAP
3F00
3F00
3F00
3F00
3F00
3F00
3F00
3F00
FFE0
FFE0
FFE0
FFE0
FFE0
FFE0
ENDCHAR
STARTCHAR SF050000
ENCODING 9532
SWIDTH 602 0
DWIDTH 11 0
BBX 11 22 0 -4
BITMAP
0C00
0C00
0C00
0C00
0C00
0C00
0C00
0C00
0C00
0C00
FFE0
FFE0
0C00
0C00
0C00
0C00
0C00
0C00
0C00
0C00
0C00
0C00
ENDCHAR
STARTCHAR uni253D
ENCODING 9533
SWIDTH 602 0
DWIDTH 11 0
BBX 11 22 0 -4
BITMAP
0C00
0C00
0C00
0C00
0C00
0C00
0C00
0C00
FF00
FF00
FFE0
FFE0
FF00
FF00
0C00
0C00
0C00
0C00
0C00
0C00
0C00
0C00
ENDCHAR
STARTCHAR uni253E
ENCODING 9534
SWIDTH 602 0
DWIDTH 11 0
BBX 11 22 0 -4
BITMAP
0C00
0C00
0C00
0C00
0C00
0C00
0C00
0C00
3FE0
3FE0
FFE0
FFE0
3FE0
3FE0
0C00
0C00
0C00
0C00
0C00
0C00
0C00
0C00
ENDCHAR
STARTCHAR uni253F
ENCODING 9535
SWIDTH 602 0
DWIDTH 11 0
BBX 11 22 0 -4
BITMAP
0C00
0C00
0C00
0C00
0C00
0C00
0C00
0C00
FFE0
FFE0
FFE0
FFE0
FFE0
FFE0
0C00
0C00
0C00
0C00
0C00
0C00
0C00
0C00
ENDCHAR
STARTCHAR uni2540
ENCODING 9536
SWIDTH 602 0
DWIDTH 11 0
BBX 11 22 0 -4
BITMAP
3F00
3F00
3F00
3F00
3F00
3F00
3F00
3F00
3F00
3F00
FFE0
FFE0
3F00
3F00
0C00
0C00
0C00
0C00
0C00
0C00
0C00
0C00
ENDCHAR
STARTCHAR uni2541
ENCODING 9537
SWIDTH 602 0
DWIDTH 11 0
BBX 11 22 0 -4
BITMAP
0C00
0C00
0C00
0C00
0C00
0C00
0C00
0C00
3F00
3F00
FFE0
FFE0
3F00
3F00
3F00
3F00
3F00
3F00
3F00
3F00
3F00
3F00
ENDCHAR
STARTCHAR uni2542
ENCODING 9538
SWIDTH 602 0
DWIDTH 11 0
BBX 11 22 0 -4
BITMAP
3F00
3F00
3F00
3F00
3F00
3F00
3F00
3F00
3F00
3F00
FFE0
FFE0
3F00
3F00
3F00
3F00
3F00
3F00
3F00
3F00
3F00
3F00
ENDCHAR
STARTCHAR uni2543
ENCODING 9539
SWIDTH 602 0
DWIDTH 11 0
BBX 11 22 0 -4
BITMAP
3F00
3F00
3F00
3F00
3F00
3F00
3F00
3F00
FF00
FF00
FFE0
FFE0
FF00
FF00
0C00
0C00
0C00
0C00
0C00
0C00
0C00
0C00
ENDCHAR
STARTCHAR uni2544
ENCODING 9540
SWIDTH 602 0
DWIDTH 11 0
BBX 11 22 0 -4
BITMAP
3F00
3F00
3F00
3F00
3F00
3F00
3F00
3F00
3FE0
3FE0
FFE0
FFE0
3FE0
3FE0
0C00
0C00
0C00
0C00
0C00
0C00
0C00
0C00
ENDCHAR
STARTCHAR uni2545
ENCODING 9541
SWIDTH 602 0
DWIDTH 11 0
BBX 11 22 0 -4
BITMAP
0C00
0C00
0C00
0C00
0C00
0C00
0C00
0C00
FF00
FF00
FFE0
FFE0
FF00
FF00
3F00
3F00
3F00
3F00
3F00
3F00
3F00
3F00
ENDCHAR
STARTCHAR uni2546
ENCODING 9542
SWIDTH 602 0
DWIDTH 11 0
BBX 11 22 0 -4
BITMAP
0C00
0C00
0C00
0C00
0C00
0C00
0C00
0C00
3FE0
3FE0
FFE0
FFE0
3FE0
3FE0
3F00
3F00
3F00
3F00
3F00
3F00
3F00
3F00
ENDCHAR
STARTCHAR uni2547
ENCODING 9543
SWIDTH 602 0
DWIDTH 11 0
BBX 11 22 0 -4
BITMAP
3F00
3F00
3F00
3F00
3F00
3F00
3F00
3F00
FFE0
FFE0
FFE0
FFE0
FFE0
FFE0
0C00
0C00
0C00
0C00
0C00
0C00
0C00
0C00
ENDCHAR
STARTCHAR uni2548
ENCODING 9544
SWIDTH 602 0
DWIDTH 11 0
BBX 11 22 0 -4
BITMAP
0C00
0C00
0C00
0C00
0C00
0C00
0C00
0C00
FFE0
FFE0
FFE0
FFE0
FFE0
FFE0
3F00
3F00
3F00
3F00
3F00
3F00
3F00
3F00
ENDCHAR
STARTCHAR uni2549
ENCODING 9545
SWIDTH 602 0
DWIDTH 11 0
BBX 11 22 0 -4
BITMAP
3F00
3F00
3F00
3F00
3F00
3F00
3F00
3F00
FF00
FF00
FFE0
FFE0
FF00
FF00
3F00
3F00
3F00
3F00
3F00
3F00
3F00
3F00
ENDCHAR
STARTCHAR uni254A
ENCODING 9546
SWIDTH 602 0
DWIDTH 11 0
BBX 11 22 0 -4
BITMAP
3F00
3F00
3F00
3F00
3F00
3F00
3F00
3F00
3FE0
3FE0
FFE0
FFE0
3FE0
3FE0
3F00
3F00
3F00
3F00
3F00
3F00
3F00
3F00
ENDCHAR
STARTCHAR uni254B
ENCODING 9547
SWIDTH 602 0
DWIDTH 11 0
BBX 11 22 0 -4
BITMAP
3F00
3F00
3F00
3F00
3F00
3F00
3F00
3F00
FFE0
FFE0
FFE0
FFE0
FFE0
FFE0
3F00
3F00
3F00
3F00
3F00
3F00
3F00
3F00
ENDCHAR
STARTCHAR uni254C
ENCODING 9548
SWIDTH 602 0
DWIDTH 11 0
BBX 11 22 0 -4
BITMAP
0000
0000
0000
0000
0000
0000
0000
0000
0000
0000
F3E0
F3E0
0000
0000
0000
0000
0000
0000
0000
0000
0000
0000
ENDCHAR
STARTCHAR uni254D
ENCODING 9549
SWIDTH 602 0
DWIDTH 11 0
BBX 11 22 0 -4
BITMAP
0000
0000
0000
0000
0000
0000
0000
0000
F3E0
F3E0
F3E0
F3E0
F3E0
F3E0
0000
0000
0000
0000
0000
0000
0000
0000
ENDCHAR
STARTCHAR uni254E
ENCODING 9550
SWIDTH 602 0
DWIDTH 11 0
BBX 11 22 0 -4
BITMAP
0C00
0C00
0C00
0C00
0C00
0C00
0C00
0C00
0C00
0C00
0000
0000
0C00
0C00
0C00
0C00
0C00
0C00
0C00
0C00
0C00
0C00
ENDCHAR
STARTCHAR uni254F
ENCODING 9551
SWIDTH 602 0
DWIDTH 11 0
BBX 11 22 0 -4
BITMAP
3F00
3F00
3F00
3F00
3F00
3F00
3F00
3F00
3F00
3F00
0000
0000
3F00
3F00
3F00
3F00
3F00
3F00
3F00
3F00
3F00
3F00
ENDCHAR
STARTCHAR SF430000
ENCODING 9552
SWIDTH 602 0
DWIDTH 11 0
BBX 11 6 0 4
BITMAP
FFE0
FFE0
0000
0000
FFE0
FFE0
ENDCHAR
STARTCHAR SF240000
ENCODING 9553
SWIDTH 602 0
DWIDTH 11 0
BBX 6 22 2 -4
BITMAP
CC
CC
CC
CC
CC
CC
CC
CC
CC
CC
CC
CC
CC
CC
CC
CC
CC
CC
CC
CC
CC
CC
ENDCHAR
STARTCHAR SF390000
ENCODING 9556
SWIDTH 602 0
DWIDTH 11 0
BBX 9 14 2 -4
BITMAP
FF80
FF80
C000
C000
CF80
CF80
CC00
CC00
CC00
CC00
CC00
CC00
CC00
CC00
ENDCHAR
STARTCHAR SF250000
ENCODING 9559
SWIDTH 602 0
DWIDTH 11 0
BBX 8 14 0 -4
BITMAP
FF
FF
03
03
F3
F3
33
33
33
33
33
33
33
33
ENDCHAR
STARTCHAR SF380000
ENCODING 9562
SWIDTH 602 0
DWIDTH 11 0
BBX 9 14 2 4
BITMAP
CC00
CC00
CC00
CC00
CC00
CC00
CC00
CC00
CF80
CF80
C000
C000
FF80
FF80
ENDCHAR
STARTCHAR SF260000
ENCODING 9565
SWIDTH 602 0
DWIDTH 11 0
BBX 8 14 0 4
BITMAP
33
33
33
33
33
33
33
33
F3
F3
03
03
FF
FF
ENDCHAR
STARTCHAR SF420000
ENCODING 9568
SWIDTH 602 0
DWIDTH 11 0
BBX 9 22 2 -4
BITMAP
CC00
CC00
CC00
CC00
CC00
CC00
CC00
CC00
CF80
CF80
C000
C000
CF80
CF80
CC00
CC00
CC00
CC00
CC00
CC00
CC00
CC00
ENDCHAR
STARTCHAR SF230000
ENCODING 9571
SWIDTH 602 0
DWIDTH 11 0
BBX 8 22 0 -4
BITMAP
33
33
33
33
33
33
33
33
F3
F3
03
03
F3
F3
33
33
33
33
33
33
33
33
ENDCHAR
STARTCHAR SF410000
ENCODING 9574
SWIDTH 602 0
DWIDTH 11 0
BBX 11 14 0 -4
BITMAP
FFE0
FFE0
0000
0000
F3E0
F3E0
3300
3300
3300
3300
3300
3300
3300
3300
ENDCHAR
STARTCHAR SF400000
ENCODING 9577
SWIDTH 602 0
DWIDTH 11 0
BBX 11 14 0 4
BITMAP
3300
3300
3300
3300
3300
3300
3300
3300
F3E0
F3E0
0000
0000
FFE0
FFE0
ENDCHAR
STARTCHAR SF540000
ENCODING 9578
SWIDTH 602 0
DWIDTH 11 0
BBX 11 22 0 -4
BITMAP
0C00
0C00
0C00
0C00
0C00
0C00
0C00
0C00
FFE0
FFE0
0C00
0C00
FFE0
FFE0
0C00
0C00
0C00
0C00
0C00
0C00
0C00
0C00
ENDCHAR
STARTCHAR SF530000
ENCODING 9579
SWIDTH 602 0
DWIDTH 11 0
BBX 11 22 0 -4
BITMAP
3300
3300
3300
3300
3300
3300
3300
3300
3300
3300
FFE0
FFE0
3300
3300
3300
3300
3300
3300
3300
3300
3300
3300
ENDCHAR
STARTCHAR SF440000
ENCODING 9580
SWIDTH 602 0
DWIDTH 11 0
BBX 11 22 0 -4
BITMAP
3300
3300
3300
3300
3300
3300
3300
3300
F3E0
F3E0
0000
0000
F3E0
F3E0
3300
3300
3300
3300
3300
3300
3300
3300
ENDCHAR
STARTCHAR uni2574
ENCODING 9588
SWIDTH 602 0
DWIDTH 11 0
BBX 6 2 0 6
BITMAP
FC
FC
ENDCHAR
STARTCHAR uni2575
ENCODING 9589
SWIDTH 602 0
DWIDTH 11 0
BBX 2 12 4 6
BITMAP
C0
C0
C0
C0
C0
C0
C0
C0
C0
C0
C0
C0
ENDCHAR
STARTCHAR uni2576
ENCODING 9590
SWIDTH 602 0
DWIDTH 11 0
BBX 7 2 4 6
BITMAP
FE
FE
ENDCHAR
STARTCHAR uni2577
ENCODING 9591
SWIDTH 602 0
DWIDTH 11 0
BBX 2 12 4 -4
BITMAP
C0
C0
C0
C0
C0
C0
C0
C0
C0
C0
C0
C0
ENDCHAR
STARTCHAR uni2578
ENCODING 9592
SWIDTH 602 0
DWIDTH 11 0
BBX 8 6 0 4
BITMAP
FF
FF
FF
FF
FF
FF
ENDCHAR
STARTCHAR uni2579
ENCODING 9593
SWIDTH 602 0
DWIDTH 11 0
BBX 6 14 2 4
BITMAP
FC
FC
FC
FC
FC
FC
FC
FC
FC
FC
FC
FC
FC
FC
ENDCHAR
STARTCHAR uni257A
ENCODING 9594
SWIDTH 602 0
DWIDTH 11 0
BBX 9 6 2 4
BITMAP
FF80
FF80
FF80
FF80
FF80
FF80
ENDCHAR
STARTCHAR uni257B
ENCODING 9595
SWIDTH 602 0
DWIDTH 11 0
BBX 6 14 2 -4
BITMAP
FC
FC
FC
FC
FC
FC
FC
FC
FC
FC
FC
FC
FC
FC
ENDCHAR
STARTCHAR uni257C
ENCODING 9596
SWIDTH 602 0
DWIDTH 11 0
BBX 11 6 0 4
BITMAP
3FE0
3FE0
FFE0
FFE0
3FE0
3FE0
ENDCHAR
STARTCHAR uni257D
ENCODING 9597
SWIDTH 602 0
DWIDTH 11 0
BBX 6 22 2 -4
BITMAP
30
30
30
30
30
30
30
30
FC
FC
FC
FC
FC
FC
FC
FC
FC
FC
FC
FC
FC
FC
ENDCHAR
STARTCHAR uni257E
ENCODING 9598
SWIDTH 602 0
DWIDTH 11 0
BBX 11 6 0 4
BITMAP
FF00
FF00
FFE0
FFE0
FF00
FF00
ENDCHAR
STARTCHAR uni257F
ENCODING 9599
SWIDTH 602 0
DWIDTH 11 0
BBX 6 22 2 -4
BITMAP
FC
FC
FC
FC
FC
FC
FC
FC
FC
FC
FC
FC
FC
FC
30
30
30
30
30
30
30
30
ENDCHAR
STARTCHAR upblock
ENCODING 9600
SWIDTH 602 0
DWIDTH 11 0
BBX 11 23 0 -4
BITMAP
FFE0
FFE0
FFE0
FFE0
FFE0
FFE0
FFE0
FFE0
FFE0
FFE0
FFE0
0000
0000
0000
0000
0000
0000
0000
0000
0000
0000
0000
0000
ENDCHAR
STARTCHAR uni2581
ENCODING 9601
SWIDTH 602 0
DWIDTH 11 0
BBX 11 3 0 -4
BITMAP
FFE0
FFE0
FFE0
ENDCHAR
STARTCHAR uni2582
ENCODING 9602
SWIDTH 602 0
DWIDTH 11 0
BBX 11 6 0 -4
BITMAP
FFE0
FFE0
FFE0
FFE0
FFE0
FFE0
ENDCHAR
STARTCHAR uni2583
ENCODING 9603
SWIDTH 602 0
DWIDTH 11 0
BBX 11 9 0 -4
BITMAP
FFE0
FFE0
FFE0
FFE0
FFE0
FFE0
FFE0
FFE0
FFE0
ENDCHAR
STARTCHAR dnblock
ENCODING 9604
SWIDTH 602 0
DWIDTH 11 0
BBX 11 12 0 -4
BITMAP
FFE0
FFE0
FFE0
FFE0
FFE0
FFE0
FFE0
FFE0
FFE0
FFE0
FFE0
FFE0
ENDCHAR
STARTCHAR uni2585
ENCODING 9605
SWIDTH 602 0
DWIDTH 11 0
BBX 11 14 0 -4
BITMAP
FFE0
FFE0
FFE0
FFE0
FFE0
FFE0
FFE0
FFE0
FFE0
FFE0
FFE0
FFE0
FFE0
FFE0
ENDCHAR
STARTCHAR uni2586
ENCODING 9606
SWIDTH 602 0
DWIDTH 11 0
BBX 11 17 0 -4
BITMAP
FFE0
FFE0
FFE0
FFE0
FFE0
FFE0
FFE0
FFE0
FFE0
FFE0
FFE0
FFE0
FFE0
FFE0
FFE0
FFE0
FFE0
ENDCHAR
STARTCHAR uni2587
ENCODING 9607
SWIDTH 602 0
DWIDTH 11 0
BBX 11 20 0 -4
BITMAP
FFE0
FFE0
FFE0
FFE0
FFE0
FFE0
FFE0
FFE0
FFE0
FFE0
FFE0
FFE0
FFE0
FFE0
FFE0
FFE0
FFE0
FFE0
FFE0
FFE0
ENDCHAR
STARTCHAR block
ENCODING 9608
SWIDTH 602 0
DWIDTH 11 0
BBX 11 23 0 -4
BITMAP
FFE0
FFE0
FFE0
FFE0
FFE0
FFE0
FFE0
FFE0
FFE0
FFE0
FFE0
FFE0
FFE0
FFE0
FFE0
FFE0
FFE0
FFE0
FFE0
FFE0
FFE0
FFE0
FFE0
ENDCHAR
STARTCHAR uni2589
ENCODING 9609
SWIDTH 602 0
DWIDTH 11 0
BBX 10 23 0 -4
BITMAP
FFC0
FFC0
FFC0
FFC0
FFC0
FFC0
FFC0
FFC0
FFC0
FFC0
FFC0
FFC0
FFC0
FFC0
FFC0
FFC0
FFC0
FFC0
FFC0
FFC0
FFC0
FFC0
FFC0
ENDCHAR
STARTCHAR uni258A
ENCODING 9610
SWIDTH 602 0
DWIDTH 11 0
BBX 8 23 0 -4
BITMAP
FF
FF
FF
FF
FF
FF
FF
FF
FF
FF
FF
FF
FF
FF
FF
FF
FF
FF
FF
FF
FF
FF
FF
ENDCHAR
STARTCHAR uni258B
ENCODING 9611
SWIDTH 602 0
DWIDTH 11 0
BBX 7 23 0 -4
BITMAP
FE
FE
FE
FE
FE
FE
FE
FE
FE
FE
FE
FE
FE
FE
FE
FE
FE
FE
FE
FE
FE
FE
FE
ENDCHAR
STARTCHAR lfblock
ENCODING 9612
SWIDTH 602 0
DWIDTH 11 0
BBX 6 23 0 -4
BITMAP
FC
FC
FC
FC
FC
FC
FC
FC
FC
FC
FC
FC
FC
FC
FC
FC
FC
FC
FC
FC
FC
FC
FC
ENDCHAR
STARTCHAR uni258D
ENCODING 9613
SWIDTH 602 0
DWIDTH 11 0
BBX 4 23 0 -4
BITMAP
F0
F0
F0
F0
F0
F0
F0
F0
F0
F0
F0
F0
F0
F0
F0
F0
F0
F0
F0
F0
F0
F0
F0
ENDCHAR
STARTCHAR uni258E
ENCODING 9614
SWIDTH 602 0
DWIDTH 11 0
BBX 3 23 0 -4
BITMAP
E0
E0
E0
E0
E0
E0
E0
E0
E0
E0
E0
E0
E0
E0
E0
E0
E0
E0
E0
E0
E0
E0
E0
ENDCHAR
STARTCHAR uni258F
ENCODING 9615
SWIDTH 602 0
DWIDTH 11 0
BBX 1 23 0 -4
BITMAP
80
80
80
80
80
80
80
80
80
80
80
80
80
80
80
80
80
80
80
80
80
80
80
ENDCHAR
STARTCHAR rtblock
ENCODING 9616
SWIDTH 602 0
DWIDTH 11 0
BBX 11 23 0 -4
BITMAP
03E0
03E0
03E0
03E0
03E0
03E0
03E0
03E0
03E0
03E0
03E0
03E0
03E0
03E0
03E0
03E0
03E0
03E0
03E0
03E0
03E0
03E0
03E0
ENDCHAR
STARTCHAR ltshade
ENCODING 9617
SWIDTH 602 0
DWIDTH 11 0
BBX 11 23 0 -4
BITMAP
0000
5540
0000
AAA0
0000
5540
0000
AAA0
0000
5540
0000
AAA0
0000
5540
0000
AAA0
0000
5540
0000
AAA0
0000
5540
0000
ENDCHAR
STARTCHAR shade
ENCODING 9618
SWIDTH 602 0
DWIDTH 11 0
BBX 11 23 0 -4
BITMAP
5540
AAA0
5540
AAA0
5540
AAA0
5540
AAA0
5540
AAA0
5540
AAA0
5540
AAA0
5540
AAA0
5540
AAA0
5540
AAA0
5540
AAA0
5540
ENDCHAR
STARTCHAR dkshade
ENCODING 9619
SWIDTH 602 0
DWIDTH 11 0
BBX 11 23 0 -4
BITMAP
FFE0
AAA0
FFE0
5540
FFE0
AAA0
FFE0
5540
FFE0
AAA0
FFE0
5540
FFE0
AAA0
FFE0
5540
FFE0
AAA0
FFE0
5540
FFE0
AAA0
FFE0
ENDCHAR
STARTCHAR uni2594
ENCODING 9620
SWIDTH 602 0
DWIDTH 11 0
BBX 11 23 0 -4
BITMAP
FFE0
FFE0
FFE0
0000
0000
0000
0000
0000
0000
0000
0000
0000
0000
0000
0000
0000
0000
0000
0000
0000
0000
0000
0000
ENDCHAR
STARTCHAR uni2595
ENCODING 9621
SWIDTH 602 0
DWIDTH 11 0
BBX 11 23 0 -4
BITMAP
00E0
00E0
00E0
00E0
00E0
00E0
00E0
00E0
00E0
00E0
00E0
00E0
00E0
00E0
00E0
00E0
00E0
00E0
00E0
00E0
00E0
00E0
00E0
ENDCHAR
STARTCHAR fi
ENCODING -1
SWIDTH 602 0
DWIDTH 11 0
BBX 9 14 1 0
BITMAP
3980
7980
7180
7000
FF80
FF80
7380
7380
7380
7380
7380
7380
7380
7380
ENDCHAR
STARTCHAR fl
ENCODING -1
SWIDTH 602 0
DWIDTH 11 0
BBX 9 14 1 0
BITMAP
3F80
7F80
7380
7380
FB80
FB80
7380
7380
7380
7380
7380
7380
7380
7380
ENDCHAR
ENDFONT
